<mxfile host="65bd71144e">
    <diagram id="uD5L_TZKKwSjKkAvI25q" name="Page-1">
        <mxGraphModel dx="446" dy="426" grid="1" gridSize="10" guides="1" tooltips="1" connect="1" arrows="1" fold="1" page="1" pageScale="1" pageWidth="850" pageHeight="1100" math="0" shadow="0">
            <root>
                <mxCell id="0"/>
                <mxCell id="1" parent="0"/>
                <mxCell id="3" value="" style="whiteSpace=wrap;html=1;fillColor=#dae8fc;strokeColor=#6c8ebf;" vertex="1" parent="1">
                    <mxGeometry x="80" y="30" width="290" height="290" as="geometry"/>
                </mxCell>
                <mxCell id="2" value="" style="shape=process;whiteSpace=wrap;html=1;backgroundOutline=1;rotation=90;fillColor=#e1d5e7;strokeColor=#9673a6;" vertex="1" parent="1">
                    <mxGeometry x="130" y="215" width="150" height="60" as="geometry"/>
                </mxCell>
                <mxCell id="4" value="" style="shape=process;whiteSpace=wrap;html=1;backgroundOutline=1;rotation=90;fillColor=#e1d5e7;strokeColor=#9673a6;" vertex="1" parent="1">
                    <mxGeometry x="173.75" y="30" width="62.5" height="60" as="geometry"/>
                </mxCell>
                <mxCell id="6" value="" style="ellipse;shape=cloud;whiteSpace=wrap;html=1;" vertex="1" parent="1">
                    <mxGeometry x="270" y="30" width="93.75" height="50" as="geometry"/>
                </mxCell>
                <mxCell id="7" value="" style="ellipse;shape=cloud;whiteSpace=wrap;html=1;" vertex="1" parent="1">
                    <mxGeometry x="90" y="40" width="50" height="30" as="geometry"/>
                </mxCell>
                <mxCell id="8" value="" style="ellipse;shape=cloud;whiteSpace=wrap;html=1;" vertex="1" parent="1">
                    <mxGeometry x="110" y="50" width="60" height="50" as="geometry"/>
                </mxCell>
                <mxCell id="9" value="" style="ellipse;shape=cloud;whiteSpace=wrap;html=1;" vertex="1" parent="1">
                    <mxGeometry x="240" y="80" width="50" height="30" as="geometry"/>
                </mxCell>
                <mxCell id="16" value="" style="rounded=0;whiteSpace=wrap;html=1;fillColor=#d5e8d4;strokeColor=#82b366;" vertex="1" parent="1">
                    <mxGeometry x="80" y="260" width="93.75" height="60" as="geometry"/>
                </mxCell>
                <mxCell id="17" value="" style="rounded=0;whiteSpace=wrap;html=1;fillColor=#d5e8d4;strokeColor=#82b366;" vertex="1" parent="1">
                    <mxGeometry x="236.25" y="260" width="133.75" height="60" as="geometry"/>
                </mxCell>
                <mxCell id="21" value="" style="shape=image;verticalLabelPosition=bottom;labelBackgroundColor=default;verticalAlign=top;aspect=fixed;imageAspect=0;image=data:image/png,iVBORw0KGgoAAAANSUhEUgAAAggAAAIICAYAAAAL/BZjAAAAAXNSR0IArs4c6QAAIABJREFUeF7svQm8JVdVLv6tXXWGO3d3ujORkIEwxBBC7A6z0CGAjCpq8sDpKSg4Dzg9VCT6UH+C/+dTnw9R/wIiqIl/eYqQCEJHgTAlImAQSJOBxCSd9HzHc05VrZe1h6pddc7tk3/oTvfts86P0PeeW1Vn72/XqfXttb61FkFfioAioAgoAoqAIqAINBAgRUQRUAQUAUVAEVAEFIEmAkoQ9J5QBBQBRUARUAQUgSEElCDoTaEIKAKKgCKgCCgCShD0HlAEFAFFQBFQBBSB8QioB2E8RnqEIqAIKAKKgCIwcQgoQZi4JdcJKwKKgCKgCCgC4xFQgjAeIz1CEVAEFAFFQBGYOASUIEzckuuEFQFFQBFQBBSB8QgoQRiPkR6hCCgCioAioAhMHAJKECZuyXXCioAioAgoAorAeASUIIzHSI9QBBQBRUARUAQmDgElCBO35DphRUARUAQUAUVgPAJKEMZjpEcoAoqAIqAIKAITh4AShIlbcp2wIqAIKAKKgCIwHgElCOMx0iMUAUVAEVAEFIGJQ0AJwsQtuU5YEVAEFAFFQBEYj4AShPEY6RGKgCKgCCgCisDEIaAEYeKWXCesCCgCioAioAiMR0AJwniM9AhFQBFQBBQBRWDiEFCCMHFLrhNWBBQBRUARUATGI6AEYTxGeoQioAgoAoqAIjBxCChBmLgl1wkrAoqAIqAIKALjEVCCMB4jPUIRUAQUAUVAEZg4BJQgTNyS64QVAUVAEVAEFIHxCChBGI+RHqEIKAKKgCKgCEwcAkoQJm7JdcKKgCKgCCgCisB4BJQgjMdIj1AEFAFFQBFQBCYOASUIE7fkOmFFQBFQBBQBRWA8AkoQxmOkRygCioAioAgoAhOHgBKEiVtynbAioAgoAoqAIjAeASUI4zHSIxQBRUARUAQUgYlDQAnCxC25TlgRUAQUAUVAERiPgBKE8RjpEYqAIqAIKAKKwMQhoARh4pZcJ6wIKAKKgCKgCIxHQAnCeIz0CEVAEVAEFAFFYOIQUIIwcUuuE1YEFAFFQBFQBMYjoARhPEZ6hCKgCCgCioAiMHEIKEGYuCXXCSsCioAioAgoAuMRUIIwHiM9QhFQBBQBRUARmDgElCBM3JLrhBUBRUARUAQUgfEIKEEYj5EeoQgoAoqAIqAITBwCShAmbsl1woqAIqAIKAKKwHgElCCMx0iPUAQUAUVAEVAEJg4BJQgTt+Q6YUVAEVAEFAFFYDwCShDGY6RHKAKKgCKgCCgCE4eAEoSJW3KdsCKgCCgCioAiMB4BJQjjMdIjFAFFQBFQBBSBiUNACcLELblOWBFQBBQBRUARGI+AEoTxGOkRioAioAgoAorAxCGgBGHillwnrAgoAoqAIqAIjEdACcJ4jPQIRUARUAQUAUVg4hBQgjBxS64TVgQUAUVAEVAExiOgBGE8RnqEIqAIKAKKgCIwcQgoQZi4JdcJKwKKgCKgCCgC4xFQgjAeIz1CEVAEFAFFQBGYOASUIEzckuuEFQFFQBFQBBSB8QgoQRiPkR6hCCgCioAioAhMHAJKECZuyXXCioAioAgoAorAeASUIIzHSI9QBBQBRUARUAQmDgElCBO35DphRUARUAQUAUVgPAJKEMZjpEcoAoqAIqAIKAITh4AShIlbcp2wIqAIKAKKgCIwHgElCOMx0iMUAUVAEVAEFIGJQ0AJwsQtuU5YEVAEFAFFQBEYj4AShPEY6RGKgCKgCCgCisDEIaAEYeKWXCesCCgCioAioAiMR0AJwniM9AhFQBFQBBQBRWDiEFCCMHFLrhNWBBQBRUARUATGI6AEYTxGeoQioAgoAoqAIjBxCChBmLgl1wkrAoqAIqAIKALjEVCCMB4jPUIRUAQUAUVAEZg4BJQgTNyS64QVAUVAEVAEFIHxCChBGI+RHqEIKAKKgCKgCEwcAkoQJm7JdcKKgCKgCCgCisB4BJQgjMdIj1AEFAFFQBFQBCYOASUIE7fkOmFFQBFQBBQBRWA8AkoQxmOkRygCioAioAgoAhOHgBKEiVtynbAioAgoAoqAIjAeASUI4zHSIxQBRUARUAQUgYlDQAnCxC25TlgRUAQUAUVAERiPgBKE8RjpEYqAIqAIKAKKwMQhoARh4pZcJ6wIKAKKgCKgCIxHQAnCeIz0CEVAEVAEFAFFYOIQUIIwcUuuE1YEFAFFQBFQBMYjoARhPEZ6hCKgCCgCioAiMHEIKEGYuCXXCSsCioAioAgoAuMRUIIwHiM9QhFQBBQBRUARmDgElCBM3JLrhBUBRUARUAQUgfEIKEEYj5EecYwRYAbhhp0Jdu7KiYjldyI8+O/V5t5/eF/3jJe+bA14I9thXHuVccO5JcGVV2VEVxfMbO9jOfcYD1UvrwgoAorAxCCgBGFilvr4TjQY/XgUfOOVU+itzfSwuMmYYi5f6x7MsLTcabfPbBVmsZfQ+ZTzU1b6xbvbXWxNgTUuzHmUIOWCzkORfzEvWp9PW4P5dp4UaCWrKPqLeGDbCq68diAk4/jOWj9dEVAEFIGNi4AShI27dhtm5Hw1DF66PcHBTVsGSX4Gm7THBT/GgF9SMC4jRg7iO7jAQRh8AxGdzgxDxJvFxDPTx2F4OxiHCXSmOAsATkG0D8AqFxgQ8WF5n0F7CXwzAXcUwH1cFKuGW3uR50U7Nffhig/vV+KwYW4dHagioAgcRwSUIBxH8E/2j+ZdO2czY56UZ3iKAc4qiM8DcA5ALQafYUDbBAN2G/0HwwVYBJsFpoKISUiAxA0cTJEvQI4niHvA/VsdQEIRxFmREaPP4D6AZQKtAFhi8KcI+LAB7ssG+T150pqbmW3fQU+77vAoD8fJvj46P0VAEVAEjoSAEgS9P44qAnzN06fWTpm6LElwDufFC2DoJcw0A3CLgB6D5N/EkwL72ZGxF+su3gRDgBFOUBEAyxKEMQgxIBJngfMkRCyiJBsFAKtViAkEAwMCrTKwCsb9IJ4ywAdA6dtzDC5JmXanxJ+iy2/IjiooejFFQBFQBDYgAkoQNuCiHe8hi/sf171oFqf0W2uHaabbXVvE1Obe0r7ebLs1+DEG/TCBFxhoiweAmMWai11fJEIH4I617dYtQGwNPmEgpl4MO4GMvFfNs/ISRAbfEYPgSPCeiIo41AiFEAVyHgfLGkTXGHwTOYA7wTidwfcZwu+t9vkD81Pp1FpWHO4eLg7h/sVleu3ND47vaiOiyOONv36+IqAIKAKPBAJKEB4JlE+iz+Crd6bLz8HWJE+eR8T7yNCWouC2SanPefFKAr0AQMtN2YUOGEi8Jff22d92dv/vaQGQEyGxzgHrFhCCQDkg3oRgy937cVAhQGtpCOQktp4H/2JPKGr3OVtOEriCJyhlFIP6IP4agC4YGUBfBPiGTpfes9YrHpsDX5p54P792HaqwepUm158nWgf9KUIKAKKwEmHgBKEk25Jj92E+Ppv3jJoDc7NgdlWi+cGGZYGhfn3ToJvKgp+cmL4ZxmYEeMbjLQjBs5fYOmAzWAsQwGNEEIgFdYtIKetebKRyinOO8A+zdG5AuwZ4qLwP4TQQiVaqG7xSrNQjS7WMRxB21AQ6NNMxSYi3F/k9FkCHsXAA5ymb+k++4N3qPDx2N13emVFQBE4PggoQTg+uG+4TxWf/OoHn3OWSdO2MWZbnnOrO8VfExPeI/4FIrwSjHmAEgYKMgAX1pgPAIiBFzJgcxLcMcNCw6axLimA9zuMEir6MIWXJrDVNjqyEJGQ4JSQMIMtulBRFCtgJDZg6lZ6hkoh4TwT5VVDWCRyUfCXYPCznNFS1xT/Cuxco8uvVg3DhrvDdcCKgCLQREAJgt4TDwkBvubKpL/tgccuP5DeO70tezqYTGfQ+ud+kp/DSfFuMC4kUMrgpCQDZD0Aco91nFehVpbABxNCGoITE4SX9TNERt5fs3ZMeawXIthjovNctSU7gIK958GSAy9/CJ9nP8lVZhr5fWgIJR39MMQonBASIr4kXiQ2NzOKZQZuSgzWsgI3Tu3dehOuvOjBuap24SHdaHqQIqAInDAIKEE4YZbixB4I88507SPmUd2Z5QMr/fbM9NLsMuS/0w49ul8MPsBMZwC8BsKp1twS1pixCtAMiFtSoKDMPXAhBskokN15Oxh/Z3kdSaiHJka97wIX/ngrWPQBhxoNcZUZnQegFB6U59kzli1lIExbQuIyJT2vKYMj8oMNb4TRuaEHtlEw2aQLzgCTAkXfCiiZP5eBPpQaLKFf/EPeLQ5NFWaRLr/h4Im92jo6RUARUARCEFeRUAQeAgJ8zZVtnH9g6sABYHOa5Zhb7PWX51/OGV1NwGlMvAKiTQBmwWIskRFIahHM1nbwlgE4daKrd+AIQGnE3W5+AKbEuv/9K97J++PFM+D4hBUyxuSi0hlYB8GIugk+jXLZs4HpGAJ3XSqEMgSRZJO8uJCEZRcl0faswQsmrf4ic7mYfBfZWgzmRiJ8ggveZFLz8dauZ32OrlbvwkO4/fQQRUAReIQRUA/CIwz4Rv44SfPDtbek+2eXuu3kUDdtdS4mpheB+DIiPIkZbZLURhdqsHafiAowbNihEWJwngJr1ytvgA8ByKHeqts9vT3WvuU8AkI8gvfBntwkDzHOo/7mrlgVW3Keg0BU3Nm24BLZmg1SuGlo/H7s4r2wvgcXzQjFGepiTE8k5J8+A2sECEa3EZk3UFrc3lpp7cccLSMzCe6b3U9XXSvpl/pSBBQBReC4IaAE4bhBv3E/2JZOfs73t3t89xVA8XqAv9GWPmaRJpLY8FyqJXob7HIXqroH3vh6ExyMdFmgwL5fJT40Sx05NrDEjJQgwkJ3ndIZFukLgh4hjKMee4hOCx/n0i794WWsQUYjkyr/Flau/PL4ng+utkIIZNT0FmXJJkuSXK0n8U6Id+Q//Xv3Gjb3iseBe8XPdl+482u2EZU72gYsNu4doyNXBBSBjYiAEoSNuGonyJj5xqdP9de6P8GMV4HQJeDRIOTMNnNhyu+mI/PtrXcsKiytd1Nn4AMAjbmWngmXSSkFlZpZCZ4y1MswhyBDpFvw2/1KDBlG58bd+Gp48lDNIOgfq2NjVUQIacTDr65vr12QzfDgtudOvpYTLwH4ewBfYeBTQrpyYM/0vlM+h4tuSeiiL0rIRl+KgCKgCBxzBJQgHHOIT94PuOlt21tPetzCf2XGzzN4gUSgaMsUOkFf5TUY2nP7N0oxYLlRrnQEFb1oUoWqypG/faMQRTDXsaah+vQqTFDd+C6CUXk54vWqB0WqsIQvxui0Dy4YUf4YVX1obPo9afD1HGwBqbvAfK4/1XpfJB5jfIEoAIcAuhOEv2EUNxmmewumpe4VH/mqeHHoamhVx5P366UzUwSOOwJKEI77EmzsAfBHX7K51199NwjPAXAAVJzqWimInfOtk5wJFbWBGDT5W2ik4LMGsMrg/QScGRorlBLDSKMgSMUeg0pDEMhEhWWTIIwQONZCE7EAMXzOqJUJmomKBkT6iLICg0vprLwN/mtm5RNBTmnpgmR6SBaHVJr0lyz9EEIk5O1VZtrvIivYC/BnmczfFAXPTZniQ2i3DT3zg/dv7LtIR68IKAInIgJKEE7EVdlAY5L4fP+jV1yMrPilAjjXehEKPJoMGV/7wKcIkrAGiamLHjDx0X6nPGDKmXAfAafD1lGwiYalBrDesbEiAxVZaGRBVKUVyloKTVFiCGiEa9dqMFj8g1Gvii7VMyF8nkMUiojesXUX4uMd4SmTJH3iReW5qD4/FKUWjiGihjI5IxAaKewkjgYJNfwdCGfmBb0zBb7ceu4pnyNSceMG+vroUBWBExoBJQgn9PJsnMH1dz3vaQXnf0vADBPmvOrflxhA3++c26F+gOQFWKme1xG4ZEFbssBVVS5rIbjMBWteo3oGbnPt8PFb75DyGBnmKsGxkQnhzisFif4aZWvpSPTocxcaJaNrGRBhlUovBMMWRvCm3aVpCF+y46/GHM4bUbxJ+FGfgE7QXNQyNaxeUupI2OILqRzL4E8nwJ/kg/yj3U/8y50afjg23x1mJESoZZjwNUhwpc2H1ZDPsYFdr3qcEFCCcJyAP9k+lj/83EcNiP+cYXYyioKIJLWxxwW3bKojcc5M7aqXgjWLua+86GiB+BJE2R9KHvnsB5/H6NozuJCDvW+rSgck1xEbKgWeaymP7rgqASAumBSnBQyFA0pD7nf90U6+ma4Zl26ujH6VW+EVCr4BVeQaCbUbfIaEr/xYkAu8COGxTa78HFxZJluR0r5btrRmZmuYiGwK5ZdTQ2/IOb21vQV30SUflDoP+nqYCEjn0nv/Ad3W5q1Ju9O/MKfky5tPm+lj992DtbnNZ3Yxtfcgrzye+zRoTQ32zO5e2r/n8ad1T79kj+L+MDHX004cBJQgnDhrsaFHwrt2pgMyPwDgFUWB59j4OmgPmFMQnUbEbWvvy54M1nDHFQ590N65C3xHp8ADxLiGgkkj6x7EWQNDVRhdGceRVRpHihmjlMZxoYmYgJThgChdsuYl8M4DVy8hojful5JAhOkHDaQXUAoJCDjUv7fWGxMqV1tfzGEmPgTG/+ys3fWH9OLdvQ19cz1Cg/edxPiWW9A+e2lubi5ZPLxUbHpGgeLlAE5hposN4y9yog+lzI9lU8waol5e0K8xQ8SkH1rI+U8PtJP83qkDq99wC3K6ymb1mN270brgsRCvkKarPkLrqR/z9SOgBOHrx1Cv4CyXvZfWPvycnSYxrybGd8pbkROg5TbAlhRIDYBlSY2UegaeNJTCvrCxjtzrfoNc3a7NagPlTjsiA6OFiaGSUZl5YI1rXDQpXtBhb4Ebbax/qJGEUprojiszJMoeEe7oJokJnS79WXFgw7eTsKOyRIKcp8Rf34ZlVogxxYQMUh/ClHUq7yfgI6Di19sPbLtViy+t/1U9/Km5Uxjp0wpwC1xcboienxB+oiD6cS746V5nO2DgFOLi/xCZM7ko7iBDT2PgPH/lZTB/0hD9w2x26B0Hk/krTY4vcUpXAHgsD+jXNj/z4J2Ln5i9EB3snR1QgVliuuiwiFD1pQiccAgoQTjhlmRjD4hv2t5Cv50OVqe+vwB/J0iKKNnyy97AhY6OYuiMhAZaBM4ZsIWVfM+kgoiNJx3BY+C6Kkbu+NDMqS5ibGQV+NhB7Cmoiwc9s4lqM3jCUgYnSo1ApFsIq1SJCOMqCEHxUBaBdHv/erkk393SxQvKRthxF0r7IY6MhOiKw8gVbYq8JrlVcBDvB2OWgG74LNetsvhiAfOODqb/mi5/396NfYcdvdHLzv7QpxYuZdB8d4rv6PXoTw34IgD3A7QV4C9zgT0weDkD/24Y94HwPJZqoQXWmGg3MZ8KwjZf/Eqak0mJCzn/eiJ6FjPOBPEsGHdbvsz4PBF6AP9DOzUf6xX8+FQ0KzD3zV124N+DF+PozVKvpAg8fASUIDx87PTMIyAgIYe+KS5EnvwyA98KRk5EIrpbJUjWAs9ISeZQ3jiI8KwhJxowu1bRBFPqFsr6ByMbL8UVECID7Wxsmc0Qfg1vBkM6QqdQRjq8ka6HNtzAh7wJTY9D9PH14kt2TJW3OcgiKxJRaifKzy29FkEwUfoZ7EgOM6MHolNclkj8Ytn5SmGmfy+K4me6V/zzxya5MqMQgwM3bz5r880H7l188qbvYoJUAv0GMLaDbNrpHgC3EvgshjmPwCkz9hNodwFsJ3DX1be0LrE+k+1WKreZ4CzBntwwd3x5DkOEQfCw+VW5G8BtRNjKzC0GfQ7AvzDTl1tUnDEozI2btm69Fxfs7k/yOukD9vgjoATh+K/BSTsCaRF9cNsDc13gZ6kwr7MdE10XR0lzlHLMUglRiECpRfC7d9lviyvdCvVqCv6yFkLYVHtrGQkbY0Br3oUgNGwWRiqN9Yh+C1GYwF23VjTab+wr70E9FdKdEROb8E6ZRukHW6/DEHsjnCCRpauVT/0YJagk4P7cpVZudX8vK0ke9FhvtmMhvpNy80vtfvu99OLrJkqbIEZ6+TPbTmslxeZ+kX07iG4sMv4lJPR0Ak9xYRf3EDEtF8x7jMEl3sjLvZoRuMVsPV05yLb6Fpglo0FqfiS+q0gJf+noAaRxmbwvOpLE604HUhOLiQbExduY0+spKV6Egr8BhN0FaC+Bv0gJ37yw/fDuUr+jJbdP2ufliTgxJQgn4qqcZGOSDIce8S+A6EJibGeGa4JEaBNjxhtHE9z11qFe7pKdhQ6BA1cjwW7e5P9sRSbXaKmK9wf4YuFiMO01QxwRhSNrCmJDH7eNjrtANEWQIXRR+RDq3oGKIkibJzv+yLAHYYT3LOQeEOsZGKWtsMczyf9ZMWc093s9OqcH1QLA0m76x79w6+Frt7/mZbn0fDjJbrmh6YjXQODd/4ktT2+lxW+BeRuI5pz4kKUseGHFMYxlEN1OzPMAzvFGPmSMEBn0ucCihMQkpdeSAwe4kIA04pquh4aBYJ2ikKZfllykMNabs0/CQS5NFfehoPcy8QsBXjBEm5hxGIS7ifBXCbXelQ36jzYpncVU3DK/Y/FLJ/t66fxODASUIJwY63BSj8Ka+2uvbOH0pYV+vvpcLsyrQbyDmFog7jBIHrZD6YijujPExm9UkaMhItBosjS8w/edkKImTTGJ8CGPqH9U7C0YLUmPfQwV8Yg1CJVQsqIPMQ3yqZUxLXJVGEMWSC0jwxuoWjOpqkemFYSKrbIpk35uBWSHSvgzw3x9evlzPnqykgQpSb30wtknZEgfS8SLCfETmOn1EkJgwqUA5qNu4A+SJWu49xREjyXm6eCYstEEp7CV7JAlBi0Q8bQlHu7mDSRCPAoCtS0UJqEfANJUTDwH4T0XtQr/7zJ8+5A0YHm/sG3PMmbcz4QHSESoxFIt8+IC+PckzV+7emhqddvOB1a09sJJ/eg87pNTgnDcl2CyBsBXX236l3/sIiC/EDmeDKIzAP42/3CcqhVD8tA0RIU+8u+iEr6yUuX4Dy6FCNZmKmNIXSzFgVWtgfKsyoERBwOi9tBxbYUyQ8EVlG72dSgJR6MqYpXoGGhC7V6Q8IpM0n9H3dHeCyB0pk9EbWtafJ5D3bNgj66cBta9LTUmbHap65VBkLbZf9RKWr9Jz/7He0+2O5F3Id0/s+WMNvI/YcbdTLiYIIJC2aHzQWZsIXIEQQwtA3dbEmDoLs75bGPw6CgLx5IAKRxKKKS2R1rqRiopiUA48NXBHSEIixaDW91cw06lcNHChjGWQBAvh3jKBsy0SsRfZuZ3ka1aaj4+O9P64Mo+nps+Y9N+eqyms55s9/Dxno8ShOO9AhP6+fbBu/tFbew53F4dtF6cFqadE/+YAZ4IiFYhKpTo8iP9W2WRJBd68FWZg71uhgrc7q6xew+u/Fq9g3qIIA4ejNIHuOd+facfCEfNK+CtRWxDYvLRXP66V6Rp8kMYBTkBe5hxGogTAcHVQSgJjN27VuQpmClfkrJMSrWlGPcz0Y3M/Eed+cMfoh03SyfODfmy99QX0cIqeH+2ZSpJ8wuQ4xUPigu/hwibAF5iYEFEnCz7dEISyAGY+kz8ADNtJcHUdSSVEIKQB6llILebeAlcGKFWqqOCy0etZCQVOfD3b0kIA+ULZCAiETEdHNKxuvMOMbCPGGdL23MwrgXxGVyYz8+fcvBN9FjJkNCXInB0EFCCcHRw1Kt8HQiImBFfvIjxrI9uXqPs28mY7yOmp0DEXVIdkDEfdsO2BkCj9XL1vK5v5WrFk+Jdvh3rUMzfv1sXKo5IKSzlEZVBDpMP58aG3f2tSSZqaZcjiIoPU1gTEraZ1TWshR8QWdFc7Ttsa0wQ95x4joRo2ZbYdsaxd8N5XyzFkvi77J4Bfk3n8ud8aCOGG2Qqez5/2vRMlj2as/79RMkTc+ZnEvD9AC6wyy+7cuMlK1IvwsVhBiCsgG3mh6SASobCqX7RBBtZCqkv4YIChtZsi26nHahKZ6/HAEO/z9LdEJGJEAeKvju13mRlY6/yDpd04BrxYIioEqkh7M5AP7DpsoNfOHDz5tnNtx1YwpVWV1H/Unwd31M9dfIQUIIweWt+Qs9YyMLglH2XsMGLwfwEBj0f4FOkHwNLVca6AC+SL5aq/Xhf5p+snhCEDlC2roDvL1nLNoye4tHOP3RwDIWPXM1D32Ihqp9QfZkq8hGPt1nDoVqIysPRTLesKzMi49L43CpcIZoDMfgsaaVtG7Jp1E2wWjzinKwivxZM+SIn/PrOs7e+f6M1fVq5cepRWdr+6TbhrTlh00AMZ46/hqQlhqgPJNUWob5GAFOgc6Yf+DwTegQ8yXfZFD1BSBkVKam4+DMUmLZZC5WBb9KDEta4vcdw3y1/WEwe/E0UiR2DEyxStTpvhi1VbtOBJRsISwa4JjPm7YZoJhvQXe20X8y9f/FW7ctxQj/yTujBKUE4oZdncgfHNz59qt/rPKYozGUJ8aU50Q7D/GgAp1oFebzrtuTBpZDZkIOUWfKcwO7p/T48ywsUeYE0kf5Gjhn0shztVorE5kMAeV5AGlFK70m7fYxq4xaFNFGUD5FnckUwQj2EmmfDm4y6/sEZ4ziMMCrTorbq3n43hZPxMaWmIvJV1PBpVH5k5hVIqilxpxJUOq85A7cVA/6u6W/e9amNcvcJ11v69MLlBeFviXEzA49hYDcRnkLAXFRuQgiChA5c2W8HflwSQ95aY3DHhwhce/IgDiX0fLSq5cMTdYgirhV7AmqhgtijcASAfceRanzxse5mkF4PU7Znmc/QkAJP4kgh8DQZ3EWMP2JTfGTp3rmVM156z6p6EzbKHX3ijFMJwomzFjqSdRCQh/naR5776KSF0zDAVWyK7wBIdr+bioJnjLHehQGYW6v9jAaDDP1BhsTYrtIY5DlaaYJBXiAfZDCJsX7aqakuDq+soNNK0UpbyLLcehYKLpAkBqluuChnAAAgAElEQVSRNhIyKGfm13piWwrMzUzBGLctNcb2h8Igz9BKEkswkiRBp2M90JA+SsFYiyrQ8oYR7ub10ixLSMrAt98Oxx6OmjdhWEvhvR1SV8KXszaFNNRy8XR7vGQ1uJRRR7T+vjNLP0hP/fC+E/mmtEb+87PbDq0lT0wM/lueY7sx2MRSa8PKDm3mgOgNXBqi43QSshICEPifK8jpeEJVt6siD9Ychw5g5foF8hj5qxqagcg5ExQL0dqH+8ADXAstNO6RyFPhB8lSxVHKa2+pxQ/cHMWzsea6TtJXmPkLnOANC4uH7qTLbSqmvhSBh4yAEoSHDJUeeCIgcMs1V7bP3vbAfCdJTs16+cv7g+x1q2trM1KRzpjU5EWBQT9D7hocWjsg+34J0iZpikFvYH93XgKnbJAvQZo4AmENeiiTJzo2eTqL+RTjTvLUNTBSEgfGkgHxKsh/QhSc7o0wOzOFTXNTWF5dQ7fTtn+T8wf9HGnL/TwqMlwWVBoOCUS+gVqNg3KOzdBEea1IMdFMuYwqKngfi3Spto+EAmQ+VJjkR6ee88HbT4R1HzUG/uymTYcHxVsJeDJA59i+HrZgEWdgW8ZbtAK2MBExcunX5eUrLjwQvANRy4zwOeUSSQVQl/shbvw6uQtPzxH6g2DU1zX8EUGo56lEM63iRrX7hSDCUltf4fxazS93vG3q5bxp6BdMn7D8GfQRMvlb53csaqntE/WGPgHHpQThBFwUHdJDQ0D0Cv9p7vyh1f7aa1CYx09102mxBD0xxEli98TOkyAeA0baamF1tW/fF6Mu79tWe3bbzNZrII9Su592Rto6osWwtpLUniOkIE1F5A77u9gYV1LPkw0ferAkgGC9CuJRyIscvX6GbruNBaktKX7udmoLJGVCMPx+1uduloSgDAE00ieHtQoOs6puQ2TNIlGns4lxmMMOU8RvQnssq5LqlqL5eLD88DXtucd+L+344xMqsyG41A9+ZtMlBvw3km1g0xdtTB6uloCDwqd1+vvJMT/RFbiXr0sQaRTC+zUiEO/gR/0cyET8MA0JpoEI1khAQzbY9BDE54TwSERYGrKRSKLrHBVyKwvTS310TcJJVqxI4FsKxk9ueuqhmx7aN0yPmnQElCBM+h2wQecvz8Lb/uKiHSZtvYmIdnTarflWO01WVnqUFTnmZ6YxM92x3gQuJMxQoNNJbBhByIONHeRsq9GI618sQpaL4z23f1pedTZRzGSrJeECRn+Qo9tJrUBxdbVnyUSSEIxJ0O9nKKzw0ReJ9rHmtCVhB0aeS1q7c+R3Ox200wRrvcwSkTQB2h3Z/ALttGWPEbISpI5lPZ3S6jQWLdIpWEIR6w7jDAob4nAO9Tj8Xl3NTsCV7XGB90EOvHVqfvb1tON9KyfCrSKFjw68dPNci3F2zsU3EPMfACTNksS9Lq+WOGsKpswQS7dQQcOWRraOhMo427zQ8vcYtmHJYbmDrxlqLygJcNf+9Z4pp0upeEft9+BIWicCYclayGRohqUi70WNYNQXSU5f8R/TAXCAQJ+gbuc1c5fskcJL+lIEjoiAEgS9QTYcAlJsaf/2Dz51air9xSzD01qp2UpGtr0mWe0NRB/AnVbLxAWErPhQagm6dLdKER7NPjzg5Ty7q5dAgtUY+AJIPlVwaXnVeh/aLZFBMFbXMksQ+pnTN9hieJnk1DmLlKSEIof9u3gfRBsxEL2DvCmmWgSRtiyvjE8smUGrnVgiMz3VRp5n9mfxRISYiHgeQu7DqPCC2yDXv95DdRtKMUScl2HPswTBB7xXDZm3Lx/If3nTt91w6HgI3byRFx6X8zVIDp89/wokuIpgns9se3UEJ45jWcw9J8K0u+gShGin7yJLsWFuuvOb4YN6Y86Q31hWt/QeiXroqOZSKMWQFYErdSX+tEAkIuJQTzKpf1UbPDAcWkWX4mIeUsDJYDcXtNvixcWbFp52+JMb7suvA35EEVCC8IjCrR92NBDgf3zBTK81eC0Z+g3rFCe6FdJ5j7HZ2BS+QlzNtn10MJS+t4E9uMwsaPRAcMf63g52q2f3cFUqQ6xCCz5jG2rwG29p2msSFJx7sWJqSQAZg5XVNSyu9Cw5EG9Clmfug7xXQba3eWGf3NZDYUMdodA/EbqtFuZmu2h3hDDkdjtsdQ9eju9mWrdylX4u9kWEI6O00FKaJ6qM8u9ygLSRls+4g5jeOWD6+5krPvyF40ESDn50YXNi8kdlSbrNAP8dBpeCWWI1IvwQ2CyUflnEMSSehACKjQgJVwvUsNQIxKiFbkvxrn/Ee02jXXoOgtqxuvGq2z32ADSdPI2QQ3m6vwXrQSE34PKUiri4KJd3iHmvhU3r9FOUMFLfqi2ZswJ4/cLy5rfv2bKanH7JHsmI0JciMISAEgS9KTYcArxrZ7fPyetAxc9bk858JwPni3u5tO+2Wh5J2qPdnEsc1gb8rS13DZ+sP6E0+vGWcfhrERUpGnI/lDH9pts3QpaLApJmKR4G0S4M+gUGmWvy188GNv1SnuDi3pCHu2gW5NnetiGKwgaWZbDT3Q5EiCnehlMWZiEODqlyZL0l5ciGiz05UynkI5SGiMtGuz86z4G3qSxxa0s/Vm0jI9g2yH9rivx/pVf88ycfaZKw+JnNT3yQbb0hZ1xKhNPBkAZLYvzEDWPX3cNdLV61xbZ+hLIgZ7SZj215jV41wgzl0gbHSvjA5qdGXgkPufuI6Jaq3XKjPBcVs6vxUz9D99dmSMQtpxQW831N7ADdTRR5Jly5aPv+vzHjTmK6/3BR/OrZzzi8f8M9CHTAxxwBJQjHHGL9gKOJgAgT+1v3fisDrwLwXAY+T7Y8My0RMOWfreKLF6GBGLVSdBdKD4dnu6TCxT7i6lndTBWsxH8h6yF4b0dnDwyfH8eug/PBaRbIEgAhD6U+QDQQKz0bhnA7XSe2DOfZxIqcrchRQhAS6pC0SxFEhp3xqLoJtcqSMXkpLVggGT4dkyR1FMsGyBgk3Q1XGXz7g/0AXtneecOXHwmSILv+QzcunGtSvIalKiJhBow2EZZtF0bfj8KuaQR7ubGuulaVM44dQdZ2N70Ew8a35JG1BJSmcfdEwDlkohoakY6gIUiME1eqFNjAdEaMy3pMnMPKkoSGRsHd/pG3opZFUdczuFuE8TUY/tP5mcNvpovQP5rfVb3WxkdACcLGX8OJmgF/4EWdXnftdwn4IesVkK584DOlRK6L5COV9LagTK+EY+6neJ/tNWYN/KqnfhmKiHISo34HPhsgUIXheH9ZgXFIpu52lLXwQBSPFuIgr8x7GHq9DIeWVpwewr4vVZSdNZrqpDY0IdeanekilfoNSYJWKuEHN7W69qCiNFWRpHirXUujlGjHQT/RzQBlzHwIxB/lfvGzU9/8L8c8BXLx05ueXTC/FoSXgG1vBCECfTDusZ0YIf0oSv+BuGREe+A6gIdaVl436sGor7dfNmvUo6D+qCWLU1OHshkc0LVXjUzEf4lLKDfOG5UlEeYXRbXq2odw7ViU0JiL/Zi6V8TRA6aVAlgk8Pdkefrlrc/Y958T9UDRyR4RASUIeoNsKAREoNj7pht+FES/7/sOSHV9W0XR1VC00xFlYSMU0DSM4ckcAtXOhV9PAXQKN7cbjLs0BglfMywRNnDxTry6rjXp0ZauXqsgGHM3Llvmz+8QxXsgYQUx/kIeVlb7VtMghZxaLYPVXuY1CyKINOikKWZmupjutGw5pKY3YbjjZLTlLO+GsjiAZSO2wZELNUh8X9I6PkymeF3n8hv+/VjcQBJL3/+Z2QtbRfLrTLicyDbw8rtsusf/dJ7D1BXF9MkoYgeFSVnvUXMHXdrSEZ6Fch7rhQkaEx3yPMR/HxFSWNf7EEIeDYJR3XxeG9MIe8Segtpc3bzt0WWvDtdoynoePFGQv4eiH0KPvkJEH+eMf3FBww3H4pbekNdUgrAhl21yB33/rp2zc8BbDdMrANwHpnnbEjc0NCx9BJXhjzdYtv2j73zoDE699HG8fx5RiXcE8D5XoOkRsEc2iURzN9+8XN17EY/bGfUwXoO1fg+9XoG8yLC61ncJ8HmONE1tuEHkFtPTbcxMdRy5aeBSOafDNStPSOU5KU2yXMPuw4P33Go9GH/Rnun+OD3tusNH+47ctQvp9tmFN4HxWmZbUtjqMr3cYsWGGqo+CTJkMYCilxBxYsuSBInJS1Mlz/uqegeNLXy887aWdmSpgWb2aMnoytMb1wk7/sbO3ekK3OeECIG7W5oEIIDa4Lojhjt0fpSxEf7mUmZ8syf/9zJZxWd7SBzrfyUJvX2Gp3bTjntOiNTWo31v6fUeOgJKEB46VnrkCYCAEIQFmD8D41sA/gID5xDRPJgTBqWxPC8SI/rcgPBMrx6xzVTAoAoLor/mlBs9ILyiPJCMugfB7eriqonVkz4WNpahBv9trASHdQ9FTe8g1s6GFoCllTX72G+ZxKZnyh8Wl1etdqHbbWF2qoNO2yV1NIlCRZDKq0eStnq/iYhMLRfgRSOdD5l+b23Q+v2FF/7jURW5Ld+08I15wT/DMC8D85zvPZBJb4VCOlmCZUJlVoKdnFt88XL4uWIRhHlbMMm/mloQvyL2n2ZxoyFGUMWrynBCjQQ0nqb2cLePH1YpHslrUPEyN60oq8LPs35Rt2L1ug4Oj4qjSmdUR5ZGhULEMeVzbq2TaleL+A3Tlx2+6ZHQmZwAjxUdwjoIKEHQW2NDISCbr8Gu5z2Vkf8VmM60lQ7t7pFbVf5+rRCQ673on+RV8Da40IPAPNrtj3iIxk/aOJG93G1HhfwrOzLcF8GB3QxN+Of9yLbP3l8cbS8rUiOWwRcL9AkZMk0RN+47uAxml2I5O9VFpy0NqULGW2VN6yTG9Wuyc+JQC6G6PUg0CGAJOdxBoJsI/HwmzBU5/053/5430VVfPGoit8OfWfgNZmxnpicS8ZmB2TBwJxHuI/B2Boli36UvVmsmoPRAokmxfyvJQXVMVNeiuXMvmcSwWz8mF6WXoRkWKPMoK9wqv1AIkfi7IBIZ2jsg5hGxoNCThHDFwDliL4HPii0TIxtfaslakBbgNkwTSLBnzU5+wdxjopYlWER7GfgMcf6q+acuntD9ODbUw2sDDlYJwgZctEkfMn/oeQu9NPsdYnoigzcRUQdM5zjPrd1IxVlv0hJXGEJaPcsrbUFkD2oaM/fFqAz5ejoEd1Qsn3fP6Dh0Ua5XjXhU3oamJmD43GFtQ+UL8AqBEC6xhaC8pTHA2lofadKyxZriusN1gWJTp1CfuSckti4CmO8TwwypSwVsZtmVAnc8GO754c7ePbuOBklY/PTsRUVh/ojIbAe5Wgfe0EvFiVsI3Adhe+kzqJpneOs3nAZY0yJEX6Bylz/Kb+9hrDwBjd187TbzF21URYxTDMuMg2qUwywiviHjL3rs14klIw2vRuzRGPI8xF6GmKP6z7H8tMASCHcDvDsh86sZ8eGFHYduV0/CZD51lSBM5rpv6FmL8Kq363kvAOXvAJO4tk8l4lNcieBg2O1TVOLSA4lfSzOnYV9vw7hGhj4Y/nLHFciC1xrEAAYyEYcAjgTwkcSQ9c+NDHfNu1DNcVjXVq+BYDtIltvLKrhux+rU/t4Nbn+yU4k8IMED720bSf3pRUYhJSTn3KV9OyvCV5HTd3ae9+HPP9ybS0hA76aFc1dz+gFDfAWAHc4tbve4MqwDDPyrYXoCG35Uoy5U+NhqHz7K5R8Z5/jPo3oe1ESIZUigrl9oGuGmcHGImBzB49DUIDTJy3qfVYYXwtxGiDP9uYE9V3qHUBzCeTPk++IKTwGfZ8YHEuDc2Tb9GJ588LhU0Xy495Ked3QQUIJwdHDUqzzCCBx4785NUwv0DwCe4Z6HlgzIM1ZqIISsgzUDWmHCZt9lwD5CfTAhiAMKKXY8pPSPfRANlduoqdbd/nF7wOjnmk84UI9QC9h9FUN+XuWWrocpmtqFmFAMZ2DExZDqYszQtdFnAC5LgyYfo+74YlLN/aucIuUf1yyGjDlPdGSoa2D6Sg68fuaKj1z3cG8FCRXs/8yWM9OCXwZT/BqArZGRFGjEgyBNMIT0LQz1URjy5UcjaZRKjjMEatkANdYwZibx7t0fuq63oXGpZrhipKeh0YehuemvEYiGpqGpjfBDLRNnAmEoG5c6WuXCMQ7HAQj/JNkgBL4bxvyfue0HPyAdIh/u+up5Gw8BJQgbb810xB6B1et2nksd80mAV0B8lrRNAngRTFJlr+PTHgsGixvcqdOjHgbBfEblZqpUx0bL5QB6s9jQ8HZ1dDggVjr4dLyacG0970MgHsMEpv7VHRWWcCMpj3NCvLI5QZD2W1K1Bpa4Pkk9iU7lwQ7+GOuYiUPkVszgcxqEYOUg7jHTvYmhH0xv+KaP09VXu37bD/H1wMe2ntlqDf7QAJ9k8Ot8A6ZQoCg4acSD4XovxG72+DP8dMu6BpXBK+MmI3fmdS5RTbbp2vf3UWRIyzNLoxw+M7boTTLRJDOjnsQjQhz245spmg29QkR+7HKvR0b8wKX6omAqx7oOYW5stuulSFpA+BQYD/SS1k9u27H33oe4pHrYSYCAEoSTYBEndQrS2W/wTc/97pz4hwFcQMA8MRmRLTIg3esq+x09+eL4u2/ubJmDFTn63gZ1db97alahAX/h2O0/MgQwLkTgLMmwIqIe+ojJSZhSvBWMMy6GaxyUn1BvKlEar9LSLno9wZQrMGl9+i60YLmEJQnW01JqEtzoQ1E/+UU6XH2FgOtbndVfomd8QtIOx75kHZdeuvAdnNPVsJ4BfpTUg4JrXSz1DAJTqRVAsm9WLnshJG4H7I3ciBh8XR86KkMgJgojejKMvPZ6XocQ0QnNvkZ4BGphhWqhhzIN4tTLJsE54nzXu2aNQTXSLOqpQPLV+CLAn1hKZn7qTE19HHs/n0wHKEE4mVZzAudiSy9v2/dzYLySwTNENGDmOSLaJgV9RNDm085F7CZe1IJRVMr2aEvWrJLo/lQvkBRy6Zo7+xj6YVdw5auwFWwaGQm19MWoWFPz/aYwsfp7ZTKGCzG5vzlDXwkoHRZlgQBLCLy5dRbfBf4NgyRt8ACDF8hWqQwFB93FojCD7XFhZaLMhwj4sfberX9DV1071iXNN6F1KF/46QeH+GskokQ3MdnBSnaC7Z8RdrTe/Mvv8p94FGzTTU8GQrJKVba42hHXvh1Du/3md2edHX04z3KTESGNcrceaTnW0UpUn9i8YSLiEnkLgmtqZNpjKFBR8gF/zaHUzZARUS8HHfNhd4mKZMm9IXePrOmb5y479NtScmMCHzUTOWUlCBO57CfPpO2G/7oXtXuttZ3G0IvYQAjCSwn0aLZ5+lgjkiqALB4FsTf7WYSLwGZngNj4anORtyE8IxuivjIo4L42ldt/mB40g73hiKa2ICYa65EO+34tiFzXFoRtcX1UFbmJN5GxBLGZn+/80a4CdFkkiniVQV8i5oshmSB1D4vXc1hcQ/hCjmBj6MutnJ9PV3xkbOnevZ845cJOMviOgumNbk1olci2cW757AUZ2mFpaslsPUNhgULNAymgFGcx1vsrlIdX69ToYVA7N+KMNSMec41aaebSU1BTeFbZhDGRiG+EEU/fOBJRekgaJGek8DE6JiYpVos6IiThI0+uB1hc4HMU03W3uhC9e8gU3zt/2eLHT54niM7kSAgoQdD746RAgHftTHtMjymAbzHAawGcY40NSwxVCiiJwI0TIsrAtBdUzDFTV8hDKVt03QzF6NhSzf65bm2P/aJ41X4Ix9f1CNVXaVTgt9z++SdzUzMQfhdPftBJNLMdAinxPSdCGnsZSRnyONjxhsyE9QWL0Yax3Dx6piDDliZYkgHSluqEIXPB7+gzIinXhK4TOASSYL00dyeUfHfr8n/62LgbbP8nNz8rofxagLZIDQMy6HJhP0vIm42FeyMmRRqCt6BS5DtgAmkYbewjEV8zO8GzvfUKEpU8qtylN0IY/t4Y0i1UYA7TsqYdtoSlPo1ab4hKSlJOs1aGMQ63jMmsqIhwVH45htB3hRSdR1xDIiPGLUjoz+dO2fS/6bw7RKyqr5McASUIJ/kCT9L0hCSsZemZnOT/xTD9IBHOEVIAooSYl7xMcVaqwoDRA0iIgKvZ7/Z7ThHgvefeC1Buq62K3x5FVig3OjQwKnwcfc0anoCgwnPWya1W7JmoQuzBMAxnNYQ1jjUSYS5ubnGPiUBVquqPjgHV6zeUc3fZIeJpsToErzmQo21PKSIIrh0mbrscU+t8yL0z4o9ap239GbpodJhBXA333jB3yhnT4MNEPwqmnwBojcFzUjGRCPsY2AQJFTmy4JlCwKl+d5eBFr+g4Z9R2Q6lUDQqLVTbsUeXLg13rZLRiG/W0PY/MMtI4RkvaHx8uFw0x6GPG74ZSiCOkAJZDnREOxHn+onDJe5oWXPRgMj/JKzkdCgFDoFwbWE9O8X7Nj1l8e803HByP2GVIJzc6zuRs5NCSquUvShJzH8B8/MYNC1NhrzxdTWHK7maPCNFhd/nwioVpVqguFNdCMLG3M3A5v4T9d2m3Lm5Qwq5d7B713xw6lbGPor1Rx0cHQ0YlRVRGfx4Y9wMKzR3nM0AQyV0rGkXyvy2mFaMCpdU16vKSzuLVtUlshZLiJZ4aCyJiNNJQfRl5MXr25vSXdj+ocO2n4N/yXGH/3X+MchxwXyn+NfFldZjYYq3w+AxXNgqTFwUfD8ZqyUJa1bdz6Pc+qNsdqPSdU3RHxbRG8iaK36dgkch2hPNY8iFXxrcWFsQ/1wyF38TxSkiI0hAbMCPmJHQeJqPMPwVD218TnPuZUmQquCofH/Eq9AD8DEQfywp8j+Z+dryXrqq9PJM5PPmZJ60EoSTeXUnfG5ru775AuL+U9jgmVzg2y0RYD6dSDwATfkWFZYkyAOQyZDBtBM5WuMZNlG5r8UkngdpiWQRds/ayvb5TVlDo+Db6wVBfm3LF3sFYnoQrhslZI5Z05hw1CX7lXGvZ0L4GZasKSIGcTik8jCw7zNpgwrOo9BUQdhxS/qjGJWlgvEH3V7nt+jF14lxcWg5YeLPA7iUCJuYsdkACwxc4LMXAi+xbu6yV1VoNhQQj3fcHq5YgBi77WtiwdqSlZMv0Q3GtbzWega1mryfmPvHLW+oxxFdPxZLxE/fmJA0vQhljKtSjXjvjbDMAZPUKoiTdQPIsTCjMYYj3Uc10CwlXDGGV7nAgngMJJ0V4C8T8LksMb+xZceBQxP+qDlpp68E4aRdWp1YaYx27dw0SMzj1jI+1AX9LICnADhXsh6sCI5IygaLRsEZo7h0chn8dbkHcqCNOdh6ypWpDI/uijL4r5ZXi9skc2/lqks2DJMv0ewMTERNyhBBLdTuDK0fb3O1qzBFnVyUXu1GNkU4f7juQs2LIa5n8a50KmIQX79OQkoPicH9hswL28/5p8+Wa3IrOkuHFr6FC/wygAvZuq1pTZowWV2It7NRWEEWwIU7RrxivhUb9aEdd6RFqMX1R3kMohBAzZbHRn4UQWgY2FJjGpGMIeLhzxnKkog9JfG8w/FAzlZHE/2x4V0phzNq3HFcJRp3bXxOq+CwL2D7OjDhesP07rk7D/69ehBO3metEoSTd211ZiMQuOd926dnN206q5Pll4HpMQBdAPClDDzBxc/ZuN5OrsdTcL7b7WwBW4ppkOfWaprEuBbMRQFjjO2BkOcFsrxAkgqZMEhMYtsvCzkY5IWVQWaZHJMjTRK009TSjd5AwvaMVmLsdfuD3J4jv1tjb6s0EIpCKuG6LaWQlVxqC9pAckifrCxd2SWyxMH9rXo//t1ZulH6h7q9I5m8ECn/7KjolO8qPWCmlERpKbP1OBL4z9rzsz9BO963IqRs5eatp2VZ9psg/g6nAyEhHtO+mp91t1TtmT1baHQ1bDhhhsQfQ27zYMwbhnq9WP8o70Ez1l+7xRpGPly36eofeY3IqA95QEZ4SeznjiIP0RiapZvLjIbALEcyLcc7K/5hP8bqTUKdCfEoELCLDL/30ODQe856OnqqRTg5H7dKEE7OddVZPUQE+MYrp9YGh05PisEvMmMnS3vggs6QlP6COc/zImmlCfI8w+JKH9kgRyEafTHMCSE1YrRdEEL+K4ocaSuFdF0WiyWEYvPCLJZX1rDWk6J07iXnJEkCk7j6tmv93B6bpkIaWlhcXkYrbWFmSjSUhLV+hlbLcCpdp9IWCluTSEhHhnbLFYoU73tiGLnkYRAjFbJhfcJBrzCy3PIQUmWKZrBCjSPKjIvgv/AkwHpJgEPsQgtbgovFlnNmupXAV7Wfu+tz11yD5Plnb/omk2InmL+VgIt8qmnoyliWc2DQKoUy0EDS9BSUm+J6GShn5UYZwiMZ0HiegUSMMNy1y0bHDYUw/IFhzENjX69wUuS5GEpTXO/z1vMOhBsu/D32oIwgTCUE9fNcOmTsYYB0f4T0QfkNYv6nuacs3qoNnR7iQ2cDHaYEYQMtlg712CFw+66d3VMLc3m/N+gA/Ial5dWzksT0CvCps1Odzv7DK8gGjLZtKk3WU2BNsjz15XfLCNyOX7wJ/WxgPQ42YTIX74AY/xQznTZW1vq2RGArlRbMci22x9s6t37bbBsyWgPDSFoGeSZvMBuRR1gFhVXxWS+FbPfEm2D38v4hnibAzHQX3bZoK0Ob58ralaGJECuP4h5laKAsYCjXdbGSdYpJ+dHaJE1bzzkOQVhFvHXLmNe2HtjyDlx5bYGbkS7mc09jMm8E48mQbAUXPpDiRzmRLZUtnoQltiEgtq2KQ2w/cmDU4y7NGH+zDHF8CzUqHY4z/COEfK47WFxnwP8e3h+6ZtwTomGs1xNQjrrra3ygQY5GVWccFboIhKbh0XBr6SyDC3RVHpfwN1kXuSO/ZIhXCqY/WZg99Od0kdzpXE4AACAASURBVPZpOHZPqONzZSUIxwd3/dQTDAG3g71a/sPev3/mzOLK4uVA8oftVvKoImcSgz7d7aDbadln5/LqGjIbUsjRabXQzzLrEXDue4ZJEkx1WlhZ7WO117eeAXkVuXM1dLtte63V1R6ynLHWHyBJE8x0WuIpwPJyz+78u93Ueg/yTEYgHgnxWFTBACEI4v+VrfWm+Sksrw3Q7w9cyAOMmamu9yIwpqfaNqwRMhE8A4k2vvV0yJgoNNMgY6FjWMpmRkZlHKUao+UO/2py/GJ6xYdvWP3s3NMGGf0tmCRbpO3KMPocTzd09/FRIZ/wOXG6Yy08ELvij5CF4K8cqUvidMRoqx0IyShDHh/WCFmU826GMvwf1gtdxOeNFDmWBMkhURKKUbqK8rNrQMQupIoBRFkUIeuz8r7Yfp0S/mnXCoCKJoFRSNbPg+Wxf3fOHHoj7bDkTl8nEQJKEE6ixdSpHB0E7vjLHZcWyH+p00pfAMLM/OwUkoQSMboh8Ctb2sEgL5gLESxIZSBnfOV57PMbgiZxkOX2e5ZlGTptydgzNqwgWoZBliPLJCxB6LY6tsKChO/FIyHGX6zY0vKqPS5J3O/9XuYJSIrVtb59b7rTQbfbsvqH1dUB1vpr1svQaUu4Q8INCdrtFN126uxj3Gcg2jIG0lAFJUqvQTitCn7bXAVn1oKxijM73MOlTOeUQIyA+PH+Wv+qwZbPfxMxv9PXTZAOklnU+0FqHsiVU5/REDIZgm2vwgehKHSpiKjteKNk1kYVoshYl5qMOCWyYjf1AkrR59hDmq59a7mDejQUpvaQBW9DdO2aoQ+hoNi972/pJhkIl4j1ISO1DuF8/29EqCwHiKdTkYIaAbGZEt5ZJrEsX3kZVDBWiOjDVORvnrt+8Ua6WkswH50n0IlzFSUIJ85a6EhOAARuu2bH46nI38GgHdOdFg/yPEkM0eb5WTH8oZ6SVGOU4EFhpFW0CBtdmcWmML6ckfPV+qyHMo7skiatFrJ8gDfa73lLbrd+PowgAkchK/K7iBYlTOFS1Kst62CQW0GkocQKIlutxIYhnB5hnRbSpfmNrIq9qEtlrIkYY4tVZlM4OlCF0KN5+VTRvMgGh1cOvXfqtDtPJ7BkkwhjEgfIwLbqZkgrZyEELT+bB8DYEsSLpUFs7OBj93yT/JRdJmqxfZ+CGNvzOFl1RIag5zvDpYsbBr/kWyHcEOshqqrZFReLSEBMOkYa/MgrURMpxnPzy1BboiaRiZlFuPlGWYNY8+quG/cxuZ9AUiPk1fdvOfWGCz67O9OMhhPgIXYUh6AE4SiCqZfa2Ajc/f899aws6/8AM364lZjWIJfa/8WchAcW5iS84NsAiH7RmnVX+cfvlGsmKzY/QyWQ/b663oehsZ8LKY/W9x5fYf0GUu4KVfkmV753VD8JZx0atqbxe7n/956D4UJN9vNGpEvWbVUUtpBsjf4alvP7B1Ob960ZU0zbgAtjYAhtG8sHO/JFrjgSgdfYkjHb1dHZ3rDTjxAfa0zjc5uu/5KwVQxh1GfE/KlZdrl5548SJA59O0Z4CppzLA+JF8vfKjWyVL94iA5V7zbPr3CMioc2vCx1nERI02fwVHTbS5hB0h7/jUD/wkXxtoWnHb51Yz8FdPQxAkoQ9H5QBDwCt/3VpZcA9PZWQmdPddtzq2tZKytyCfvz7PQUzc12xF0vj00bSGhsAa1/wJvdUjYWYvcB5DgDYFTNgaE0xMgnEc5tGvfYULsvdKwlCKOsKiC6kk11My5HlSmO0daz+szKO1D325czC+0EQjvo5n3lhIs04BW6m9Kpg0KyJIYtBEEGJKTA1v9viObEvS2DDakadX1i6LrkJlANLZpi7XqNnbN37JRjHUc0akLF8JnNJ2qTcATO1mgfXfpmyrEOF1ay61mPVLhp+voacYygTKtshDKanoQG+dlnq4baeiCVA8jz0thbIo4YWauqpba4liQURMiZcbsh/I/ZmUPvoYts+W19nQQIKEE4CRZRp/D1IyCpd9sHF54P034rg55sDFal9HJi6Gwisixh2+Y5l4bnggX2se3DxjWjWLdTzloMd22sLFi83RsucFTu5BuGtyrVHIx7vCFtlEMeyj4I44nPrW87I99IlM1Q1etr2uMqtFCfb5x5AGTpA8jb98BGsMVbQOgT20ZQQXPgiv7UDXk1mFG77lrooNG9MPYyxAtTC4tUvzQJQi21z392bTPufwnEoZnpMCoz4Yh3a6QpHMU/4lTKMNYhb4U/sRRDNn+vZz1IO/RWSGOszb+BqyUQpcOsNotbQfx+As0w0UcXLjv4rq//G6lXOBEQUIJwIqyCjuG4I3Dbe556Ws69Zxvwc0H49iRJbgHzbUz0ikGWd1qGVk49ZX42TVMxai1XV7HamzXS/0pvwkgvQcUyvHQ/2r1H27g45h8AGhkyqO34nTWol1wus9YagYVKj9Bs9NQw0I4VuUZWXmpR3yZXtiToGyoHeAjFyPl58kCRd+4xduLSB8q1ES4LL7nW3MNigJgvDHGE9dzv8RADgJFx9JOqO1Mig2+HEV972OlS3bd1d3xNRNkkPA0Pybr3/tBxzYmXaZreb+TdDc0xN+18Oe9KrGrjZXFTq7L+QlgLdxHx+AgmsQ5B8LuJGHcUoFMN8GfzTz34zuP+hdYBHBUElCAcFRj1IhsdgbuuefqWXr76LeDiBUTmmd12q90bZLNFXsjutpUYyrZsns2nu22pBLg5ako0Kp5fOr7LXXnDtV0rRlSrblh39Tsi4l5NIzyqHfR66xCHJ0YRj/g8+1CItsLlWK3tpxXbNhvUkqqTDoeyC6Z0a7Ilecm6CKw8sHzGiDc6a93HRWuvM2VcgBIJ2tAqEU/52Ij8TQotST5mGEqcaDBktMfseusVFutulhpcTe/BuoY8usaQh6CRIVLDdb1KkHFthGaYZGhh5A3Rxw6kwAZkGezPrkgFAIFRXq5OR+3GCTeRBb829eD+CZKS9e1CdB8TQXqX2DpfZDt60rtXO50fP/2SPcsb/Xmg469uHcVCEZh4BG562/bWwuzg9wj4rwCtdFqthV42SH1igvUIzM50sXlhKrNlB1wY2D1/XYqCe0L7RIa6BLAKMQSg49h+XOmnGfOv2wf/3C4tmfu9fq1RS1ltpb2xL/fRgcDUtREhfFDZCXecnaNkGziDAO54clBB4YiBb1nhnBmuYrXzGOSdO5GZxeA9gCSIsgjdwKmHVNhG7jNBXQblKMMayw2au/wQo4/NXHOHf6Qdf2xXG/UUmiSipgGIDK9z70eoxW2lR3g8/EKWLDAQD+8bsJBYQiB2XwhBeiqSzg7kq7cg6c6BzZngbB+K3ucgxUABwVgqWAuAUhK8QRiqG3GYSDRuM18hse5hcGflPn1GGEqfgOuyxPzclh0HvjbxD5STBAD1IJwkC6nT+PoQ4Kthdj/mya8iw3/gisIUGRlqVcIvwux0hzZvms3A4gaPkxPdtqpGGLyfvDLNsbF1747yABxJxBifE4hJfWsdkwVvnGr6AYdR/BnVNSMPRdmHokk+vO6BSLavljw1QyjNVQghEZc8L02z92DQug8kpadid/8IIx+75uMYf2V6ow6G9YiHJ24jenbGVQ9HGUkHSCWwaGgMRokCa8Y9BqDhDWjOIZxnPyJOf/TnuTtGenysufYXrbNgOk9CMv14mKlLkMxtBxVrMLNPAIoe8uXbkS3uQtJ5HPr7/hr54euB/JAP4AhZkIKWsU/HT7UZVomIjrvPLI72zKbewd/IUvlbRCWfNQZvnrvs0N98fd9GPftEQUAJwomyEjqO447A7ndfvL3Vav/FIBuczgXPy9ZLUvCIsGYMzUpng21b5tFqm4oflM4Dm8Dg942BAFQ78aZHIUy2EgvWC/OPMuL+Yewq1ZTCR/dzTERGZSNU4A6LG4NNdMeQzdOQWgRl/lv5AdZGSFpbUg99DNdVCOOrRJdA0drHg5akzvcknO0/znvHKy+BhBdsxsIRsw/KVMemqGDEbeQNfinaC0ay6c6P3Od1g93ILqgWz/0Uk5PALzxBLNUfI1Izy5GOLActxlykmwSkj0H37F9HMncpqL0ZZFqgxKfcNtmM/dwCRbaConcA+dJn0b/nDeDeV4CkWya4DIkqa4qaYdFmdHy59I3sCFuBnEF/udrp/LCGGY774+yoDEAJwlGBUS9yMiDwwN89fm5pbeZ1Rc4XMyB6BCnWIwZryRjJwzfT0jxpZrqDjjRkqukDXEmESltQ74wY7Mi6tQ9KS7OesXUmNzb+wXsQZz6st0WMvRtxN0dnI5uPAbffL+1gpJEIdMS7vmv70SapiUkQmz4Grf9EkRxyngMj3mmXD+K2pvYT65d3NaSsa3tdsjCmHXJJNBqGvBGlcSH8spRjJE4c4U2IyUszhbAm7lxnbKM8CVX5aMn0FF3BEkz3GWhv/X6YuacinT0PtszmiJf0+pBOX9mgjyS15SNcqW0fH8sO/SvW7vpV5CsfBpkpdxfFJMkHxmzYrOEx8dVAZWldQw+pquhqVniGJwvoeLHU4Xqwjfo7Vrrdn1aCcDI8EUcnNJ8cM9NZKAL/PxGQ5+mt73nyJcbw61JjXjzIii0+eJCR+GcNd1EYSlLimW6HN81PLxfgKWLyOfqVvVzPYxAbzdKYlztXZ6Xsg33Edjc25vH1KxtW76UQB7TrXgdnLSufcQRUvIuukxbfBLvyXpTaB08lYsJSD58w8vQAZ527iaUOkig6jLMvthalJQdxjKF085eA1gxxGG5DHxAbeXvI0Fxi4UL953GGPkBREyU2yEOk6yzZVWyIR31GjagUuSvQma2iffp/R+dRPwTT2TL6LhbhRjbAgXu/hkP3fw2JMbh111+iv9zH1KY5nL39BVjZfw+2XvCNmD/9MZhO92Jl93eB+/8GmHkpXTDchKkShZZZGJ4g1Etn+BENCTSJVooCb99E+RvpqYtSX0FfGxwB9SBs8AXU4R99BL7615c+rxgU/5MIFzpPcbmtskWNbftiomLzwszeuZnuDOeYduWWq1ezcZFsr6THQmW4Gq7xyNhUO/zIEobUyCiFMQ5PxF7uqjNvcI1Xxrfs2dvInAjjqn22sXmIORcsPSzLydU9FkGnMErYGMiEEISDPGjfRS5C4QhKwQacG8lksIQhbOCPaOgb3RCDe/9I2QSxYW56DkbyoSa5iIlA4BVR8aJGRkB8E9SIwpCHIr4dih7InInueX8OJJth2vNIZs4aeXNngx7u/Y+bcOvH3osvv/9PseP73oCb3vlbWDu4D61pIO8DS3sInWngcS9+JV589Z8hye4v8v6i6d3zu8gXrwFZb4TTgVSDLH+uRanCV6AunCy/FuLliZuPLhtTvHj+ssWPH/1vpl7xkUZACcIjjbh+3gmPwJ3/++LN2Sb644Lp233oWHotFKDCtmEqCuv6XgRhMDvdTufnZueky3NNtxi2nOuq2hoCwMhShTBFrCuoyw+rfg3NY4Nti0EOnoc4/OFMdJM41AWMViwAXmZgmoikmE4pvqiPzZmQ0LKp3vlRfM8FBt2voqAVPyxpRxl7DKLJV5qOodh+mFNp5GNCFoUH3NyOGEev9I916UddnBhpFyqi6BjKKOdExKCqttSlJ2iERyMmHsUaKL0Usxd/ANSadymgxoULmq99/3kbbvgfr8G+3Z9G77DchtIRxBn7KpQEFBmw+bwn4fSLn4bW1Dwue+V/w1T3MJY+/ywAB12KZEPrMRTKiTQV0d8smwtcVe4TZm4BdC/An2hR/+emn7J61wn/RdcBjkVACcJYiPSASUNAqip+4+CSZwP084ziRUIK0sQMCmaTi09cXOTAIQB705TOTdNWsnluGklqSFo+y5NaujHWBIjuURzJ44dRHWWww1HN7IbmsaW7v5b06KhBc8fftLyjRI3V9ZBJ2qLt5tfQKgS5Y7he/e9+a2qnXIgHAVn7bqmE4K5ifOp9kydUKYoVn4mhGwVjFE+v7dIr8OqGMDb8IwWC7sRmemW5YuGpWXfb1BZ0vZBIuK7lL3bcrqaBSc9H93HvtVoDzvugRKJWw5qDPM/wobf8CL5wzV+gv9LDzFZGIgkKjdspQFLkhGyNkHbbuPR7fgoXvuiHMJ98FKu3vwomlQrLUkthOGtj6O6MjvEll+UGl/tCejS4EBthL8DXA8n1PCg+uemZh746ac+Ok22+ShBOthXV+RwVBGQ7/NV3PWlbYfCTBvghk5pt0jbZV1CUvO81MlhCgTPlA6e6bUxPdWxL53Yrta2XbZihNICVFau0BFVGQVPcWA9R+MBG8ABH/vR4Jz9KJNiskBgZfouTFIsuQx8euYa+YWDVcVYsaDWDlX6htKKRN2LE1lre6ndvRZEultwkDgmMTJ2TxpOuP0BdqjFklKPul02RYTMc0dzEH8l7EIhIRVgcOk3dg38vjDN2GITjY3fDkA7BXnAGrVN/BZ1tL4eZPmPd+1fuvd2fvA6H99yJVmcz7vm3T+Luz7wXS3u+hrTrxhbDE4YWLkjUxvS2S/Ddf/J3yG5/BfLeF0C22JJXh45KO42FltVayMeEW9baEHsJomXhxUS8SIxf6Q1a12x71t7Fo/KF1IscFwSUIBwX2PVDNwoC/PsXdG7bPPs8Tvi3EmMelWX5Moi6AMsjeTbsmqWtnVOBE6Y6KbZsnrOS8FaaStKZV+vXhXjreRiG3ffBNtVDAk0hZPVlLisblgnszt4NZ0HE61DqE4aD0jYNPjSjWq9+Q+1acZdH00e/sxtI1sSZ4PLy7VQ8gRLgfPehiDjkvu1zVaCn+oAgs6gnbYyKp9chX/e2G+Var2kL4ihIo+lSGc4YunrlRSmdDrXxyLsDkDkdU497P5KZc0CSirjOqyhy3Lf7C5jfegZmNp+KIhtg/z234f2/9P04cNun0J5yaQTxQ70GiRCIvItnve738eTnPxeLn9sBShsAjfAmlEJFxzgCv/UqU/txNTvCkFgSv7PVGrxp5htX7tko33Ud5zACShD0rlAExiBw9dUw3/uESy4AzHcXRfEyMM6HxOWtD9g9MY0xYshyFCLLh+l0W0UCY8ST0G61kCQEIxXt/LZyuFdCvQNjPSwQziqz6qMRVzRhKF3R+4KdKfb/Xxq66knfnH49XBG3l66EiM2wRDXe4YT6rH0/smQvmPq2QJKDQLQcBiaxpQFrcf3QQ7vWGyAepM/BtJbKP8EaaXtHDA/UbOA6vRnsMVHooobRiBBDOH6UN6QstuUvUhEKYUqS1QFMn38NWtteeOQ7Ma5WFI5kxl1f+AT+6gefj6k5scuBTNYvFYZciMMg3Ybv+n+vw9Tiz2Ow/AmYpFMTK46Yi9PYRpckkoFb55P1HVgPE7AMxgNEEDfIZ7lIfnUhPe8G2nGzeNz0tQERUIKwARdNh3x8ELjpbdunN80W38LIfwrAEwHqkI2mIyGijAj3FAWnYN4mDZ2MMdKbQPQLNNXt8Ox0m1tpKsc7G2nz1KtdfZhVvJOPA/HVttmeXeoLqgL69a9zTDJiAx7bvUAc4tDD8M+OXNRFjs1ghRtT3cUt54j+4AH0zQOgRHbLzjttjxYuJbLHokp7jJXyQwRhRD2E5m65vDPiUMDwhJ3Xfyhc0YhBxETA/xxHUGqGtDTYjXszPqFaYA+B6A8KtE77ZXTP/CFQe9PDurGzfg8ffMur8aW/ew/as3WPQOxBCBdfPdTCU37wR3DZs76KbOUjchtH/aMr0uXvMnGONVtwD3Ult0SNsYeBmwGcKaLWDPnrN1+2+H7JcnhYE9OTjjsCShCO+xLoADYSAmJ37njPxY8fFGanIXo6U/HtKIgN0T4mXiHGeUVoNOTqDCdiAVuttCepEDMz3VaWFySFlqa6UhDHicHt/5NVg9v+Br6bdN0oe49AXGzJme71vsbV9ng9ghCTktLkR16GWK8ffMuBKITfPd0ZLl4gpIIGGHRuR5EsWSJgx+trIMTqOFcMyedBVJ75uhGPFPVNbYIjXH42kYsgJgLN3f1QqecRhMAxmeHrxuGHUSmWbqL1UsblfW4HZYBiBWb2BZh+7DthOpsf/teAGV/44F/hvT/8fdhyvvNINJ0cMTfpraS46OWvwrNevIxiVVIep4/ctbIZpiEMyOlDkqhWmPgT+kR0Y5HTHcbw+UWB6xeeeugtUmHx4U9OzzyeCChBOJ7o62dvGATsZv/m583jtntWMXsO7cf+zsqSSdn0ryKm02ZnOtzP8+0J6MmDQXbGIM+l+RCEDKRJgoLzXp7Z/gXSx8FuyeZmuyBDVuDYMmaVyBQFFzOlEr/ctbuvaV08WL0XCwetXRpR46ApYKwfU1mAJgmoW7lqO1w/ru4FKTUKsnVMDiNv3YvcrIBzAiW5d/+PMGGN7XnMU2qhBG9811XkNQlCZOQrkjBib+3PiwseVfmQI7wLtQD/uFs5cmkEf0wxQPv030b37B8BjK+1Ne4yI/4u2oRPvus38S+/czVmT7UttEfymvJUcXnNnIIX/thzcPppH0KeS9XF6sJDRCr8qSJKtqKH53SOjUgtBLZhh8NENt1xP9j8Duf5jQvPOLz/YUxLTzkBEFCCcAIsgg7h+CHA11zZllQtuuranK+5MsH5a521A/u3mqT9rNWVwXULW2ZopVjqmn77eQRs6qT0yd4A22HweDB9DeBv9Zq7rQw+nwgDl+2Arjw487woDFFbmhr3BxnLr1kuUgVGkRcYZIU02ys6rdYBA5pPW0lrdrojKZOl4kyMeVF4+VmkK3B2cr1tb0UoYoM9tBsuqxKVFKR0OwQS0VydUOcgJi3DYRFnQvLWXqmiiIJWXbOgYLxtVNunCEQqtyo+XxnkUQY74gBVzYMmcQi/e4IwyoPgCFXD+xARiiPemc0GS+Hg+Km6TmaALTFdrKB1ys9h+vw3wuYqPswXFwU+f93b8aFffS26C9VmfT3HhwyvtzqNZ77mKlx8yT8hzw57UhkNoEHWhshYY6yEsvVzasswMxYJfENh6HWbLjt028Ocmp52nBFQgnCcF0A//tgi4KsWszX+AK4FcOVpBx53eDXZk6TZWS2Db8uZD6TENxbElwG0g5guBvA4gP+Oic6VVEZjcEYBfIaYzwboTAa68ohn21iI+gDbbHTf+M6mA9odv3jZXQKA0xwwSZ0lu80TeUKWF7zWGxTZYEArvdxIgRyXMtlGauvpS75fgU67Zdv2ihtefLtuCzcqhFD/Sq+f+uis4HDmgkt9dENv5riF3LZKj1CGGWLngkuJtPY/a/8nitZ+W/8gbG1dvLqhvYg+ys4gam7UJAjNioRDBCK+pUb52kcZv/XeC9dqOBwC/PbP8bnx7yM8EhWxScHZEtqn/QI657wBlIwuiiSXK/IcojNoT001EwbKme7+5Afx7le+BKec7zs2+r/UhIURLmur2/CSX/5uPPrMtyPPmkrNKuoVslp9GCW4reRKwkQS233EKxW9YrQglgJbOMh58arsYHrjKS/ef/jYfsv16scKASUIxwpZve4jggC/7TUtvOaPRSAYbBJww87kgQfQnd+SnJmmfEmW0ec4wWUEnG6oGHCBVwG4mxmXEWGLVEkkeaABmxhSVliaOJbG05ZQtr9LSUBbUrl6zEe5AIWUWxZZN9uHJyfyoGTiVBzrPjwgj1I5WXwMQiKEYCT2jaJAb5BZr0I/y7C83Lc+WwlByABabeE3YjULbFqYtSGKJE2kfKN9QDu6EOoUVIbc/sHWOqgyEJoKvVGhi3LODRFlRRrqy2vxcVbEmlJHjgpknTus90CaNZU5if6IWEcQXPmlrR21/XWDqhnkEHrwADh7HXsEwjAjl0Ns3GOyUXKBpqgxqkdc0xs0CMDI2g5N8hAIhEy+WEUy9wp0Hv1rSGfPWff7Muj3cP9t/4GF087C7OZT6iSBGYv77sP1b3o1btt1vS2cVEvPjK5akgV7SBfPeOV5+IbL7kSWOS1M7bZ254UeDBU9cj/J8vaYVjtAx2aoIul5AtwVhtIn0M0J0rfMPOXA+x6RB4F+yDFBQAnCMYFVL3qsEOCbXtPCdkcIVv/x2edRK/m2JKFbUmT/kXHrXOQ8lZviSWDzfIAfQ8BZTPQVAs4GsKl8EFZZBHaTLgbd1gS2j0SWrIRSbC+Gt7Izks1YGeJgSO1+27n/5eG5QgYd+xB12/zZEAywvzNuh0GbmB7l9GTu0R1280IMBllu/RP9QYal1Z6EKuwx0pRHwg/yt9kZyZknTHfTjEgSKUM3yYjABGbgtQlOFFnPnvDeDvvoX6/GQfP9GqmoVf8JVtzNqmgdwFq+D0l30WUs2J5/bqRiWZr6t9puPI4jlNa7If5rPMHKUwIhiosnRSLHmheiZhurO7eZRTHkZGgMvtRJRESm4eiJuJltcwGz8H2YPvfXYbrbIvYz/O1Z3LcHn3nPm3Hxy16D+dPOQqvdwerSIg7vuR3//HuvxV0fuwnTp9pL2td6noPwfl6cjpf/9v+DrZ23IO9/zXbxjvI63eJIxQovNPAktCRgEkNI1x6DZPV0pIfPBhUJ+pvuzAZzt+TUOnR9gZWVtIPfmn1S/wvH6lmg1z32CChBOPYY6yd8nQjwTdtbWJxLsPOGXn/X5Vdyga1kzCyo+BVmzFnjxSiIeE3qE4BxiEFzJGXiJPGe0QmPzXXEdRkBe5ixVdKzpLRwPVPAehhyBlrVF0ZMdCkPHCpDbDvhAGsQ4ZbhOeEU7uFszc4ySWhCCi5FBrvaxlW0Q37KM+ddWF3roT/IMcgyG26Q0IOMJ01SzM92bSXHNHFhidGZBjEKVW2EOJUybA9jwuLOih8VfkNZbsWrGg6VJ8EZfwkvDNp3e4+0EASDIktsJkOSSpXeSOk/ys0fPtpbtqZhb0goHEnz91sZXWi+4S1o7H0ojWrTc+E9EuXKxaGQRhgkvkYtXXNEFMJOSzhptmyLJLW2isS9jAAAIABJREFUXnHEb0l/dRnvfvWV2H3DdTjrG0/BqRd+M27f9Y8oMtegSf6TwNWIVRomDAQsL56B17zrzegs/SayfI9fn4p8lfMNo6p5QjKY/HTM3PpK0OGtQO7DI0k24JnDq0VrpYu8vVLM/F/23gTctqsqE/3n6vbep7nntmloQySgidKDgII3hBKCQa3SxO6ppaWi2KCIJT6t50X88H1q6SvL+nzqZ1dliaLWUwQjEhNACpFeNCQkIQ0kgdzk3tPubnXzZcx2zLnWuUkg5t5zs08V5tyz115rrjnXmuMf//jHGLfdlJ94xg+izBqcPHmDOHaM3s/Fzx6agQVA2EOLdbYO1UZA1687uj8ri2JlLZ1hOi2RFOeXTfXNkOJ5EvJiapCkaxJSDQLYknMmAuq8cGW3VVlgUwLOxdpN2NsyAFKRAcqQE2M/o8KHQtWWs3S5NYSKBaAgOjUs4tkEdIChE3S9Wp4q2Ep5kqiIVsoDHnDYrVebEO/ghj0TYtqf/k0sws5khvG0BAnTbB0FfQOagSgGOc45sKLO3Ks/MJaLhVCMkqF7fe/Aa6vo2lCzOQhTLD3/TH9vkxmq4c1q6miatXEXaBuK0kgkLt3xFGGB3R56T3rvGnawEg17iqBzIQcmfWEJtjMqEiYGBrGL3vk3A1EOObCbMeCK5nR0we+hOPcbTvl6y7bBP/zBm/C+X/+/MNoPVHOA2jVQKwd3fwwY8enhl7eYTmZPwvf8t3+L+uRvQKSF5rUYvoh1HobZ0QybqJJi84VieNMrgJoGYW4+JQzdkvBEl01qFSN3n0JCLe5DIn8Ns+oPMB5PxbFji9oIe2BDXwCEPbBIZ9MQ5bFjCW0O9N+TL796ZWW68hLI9mkN8I5ciB9vIL8yEck9spG3t0I+RwCHqDChBHVS1H6XjXFzatwo7rS5jgPVjr7XMxnR44yM1kaQhQPU4aQVsJ1zvIPpss0dUR46wMqiGNLAxOSNikBz+Q69mNGGr6L36rsVFmmM5bzG1njazOd16iQI+qwYFrkkoePKMukorXlw/jTzsBkfwubMHxm6jzxjwlsTfXQcclBxm/yErIo73EVsHQT6r6qgGDdsihkENnRrpHvV9I6GiN4UfiOM6w/O1RPG6GUeOIPBL8OBAWcbepiR3iwKCrUk52DpS65FukRRsN1/7r7xw/jLH38lII+jmYWlBXYDBOqNMae0Q5VVgRf99B/h6c8/gq3rX4qkWLIvRnDxSPxZCoGcmDqgTYEBVv7lh5BMDnqxrFocM5KYidHK1BmkfDekuAmZ/B+4d+PDC6BwZu/uC4BwZq/PWTE6+deXD7ZH09VUihemIjk/gcwbKZ8vpHiCELgEwKoE1gF50Hvwrn+w7gTDy+uyWfG2QXUSIg+VyHyS+SvDHSvmw1i6s9/Okzdevd1Wtd5AncokIzibr2CEc1KtgdTn15aNZwH0MNc+RdF6kzYAQeUZg/o8cUdGfdfUMbIsaxV+2JlM1e5M2ZBStkmSpBgNKfSwhCLTXQGdEWF9EgzoCq4WMyjm9p2Z8RDKn5Xfv57MFk1+nEACWlC/J1O6X3MuulhSQFt7S+ZkEzFfbqydi2ww6xf8zTICdnhm5B2BYcQiBPw8nzA3cYZKMF0pdIjedj5moRI1Lu1E24wQB7WCPg4JZDNGfvj1KB77A0hH50ahnPD1V+mMf/1mvPMNr8Vg6bgqxxVjoL4Ng4OHcgwcvuRyfN0b34Ri+40oT14NkQ8038TQr+4rEsRGqDdGrcNXbZXV5yyP/ulVIqmpCiNDILFFYef07TzUmalHw99C4lfFa17zL2fFRncW3sQCIJyFi3o6b0nZ8ZsvL7CZpeXWzpOkFE+AkF8PKS8SInmaEgMKJeAbKasRdAnUSnxjQtQ2642atXD6ECscVA+wM3jOTOg/m52rT5Rn54hR7cYkGGBhSxmakLYvc2NeGWPcGEAJrmevb42tL6uMUlMc0ugiQi++TwwYpxvyc6pBt8B4NkeaCDkvm3ZeVinVXKANmaSLpE1YWRqqLpOkW+Bjc4arU0pZT4ff3+19WyMZQI4gnKHCC2KKtjgupWhFk26Yz60b3s1GMMtojJSZVVZngIMGRgb09kuIsxiceDAweHpFObDoHKdu0QgqFXiziIZC6VTmolISE4hCZ7lix0wneeRjc5OUmkjePkE+075Z570qPYaUU+Rr/wHDJ/wMkqVTAwQ6+WR7A+/7nZ/GLX/7+6jGE6rTGcQG+oGoHhaBx33nPwlHX/8WnL/6djm75+eFyKi8c6VOwuZt3dyIK++oQnBKU9OuIKnl0s3fm2fHnwKkJG7cRWThHy6jxVUXoUlsPOIXn4AQf4S2vQFZ9o84cuSkuOoqSnlZ/JwBM7AACGfAIpwNQ7jtuqPDQ8BKIcULAXEFBC4QEk+ABPUlWKPasnZLdgbOZlBbibRJI2Ssr+fxg3S7kBe2/nVMpXb/HcTlGfbQR/Zo6m1aotcWuOPUGKg2ICEWSmW05zBtHW1kVrnOickXayRkbQoQqZLKsedtQwLeS7fBYT9GDiKUiKKleL5mWQiIUMrkZFZiOitR161iGrIsxRoJGYcDEji2ulNiTEyHGgobmLaAgsAFXYMyKbz3b/kSD8j0XNZtk201Mt3MqVCS/jGllO0Db/ECyzTgH3G41/md45PoNh4KgAjSJKNx6fsuIanjolhGK+cK2ybpU9A2n4DAKrLht6CpPoS2/ihE+kUQYj/a5pMQYgCRnA/ZUgmAOSSOA7KCNLpZCGoHTiWOycAOkR/+Pgyf9DMQyakLJk23N/GZf34v7vrwO3DrdX+Kycl7TEaIneFuSEFZ5AoYrB3Bc77rZ/Dsr/tejG/492jHbwUSg1P5JiQwV2kNUi6xMIODR0KOxMrHfwhiuk+DIPei0e+G+7JIhc6bCEJShJKoK5TCjzrhRu0IhJLoswoCf6COa+Ub8ZjHrOPKKyvF3i1+TtsMLADCaZv6vX9h+b4XjCbzwSU5ULdSfIuAeDkkpRXKAyZNkFRLGYuic7sXTYCCDTMBUBaBqg0QdoRRh5OBVW5YKI7zqn2u4/bGV+1idG1KtFMn8hAj2N2C98GzC36o/G+WlDW1DayxrxMh1lspDzPf0zVlsvUaTpVOGD8ZfeOwgEbttsZw05yT2lJnN+jat1VFWoUZZnPtlA2LggoxtUujghpQdh7CmHXh11G/G8hm8zfsfHMmxi6yFLWshreIVkx0qMfYhE5QPK7HFDdlCo1XjE38p1FlwyCkwBfd/h6BjFC9QmgrQZIchkgvRlO9G0l6EfLBK4DkPGX0s8HTkeRPRjP/GGR7Akn6JAUkJOaoZx9ANnwOkvQImvp2VNP3oa3/N4ACInkimurvNZAAFcBKgewpWL7kWiSDB27YRADw5J234MTt1+Pd//n7UG1toUWpbLND1KwcQjUGDj35yXjud/88LvqKV6C5+xdkefJPgPYuAbFkiDwPMCxtFGkQNMMgKqTTp2L5Y9+tUyN9lm6YQmHnVr/HE0hFsdBTQAxiP+0B0ENKxZfuQCvejLR9O/KlD4lXvWrRDfI0mYsFQDhNE7+XL0tVCcsD608RafM9rRTfSC0HBHChi12bmj3et1QGnYoDqXRAK8Dj9LUXUUvibDPu0/u4vi5AFNgL5wKqCgSGNGaesOcFFBvAAYJN6Qs9cr+z6X0sluZpcMJFhP4bin4n73xHQlL6pdZB9Jhhz22bUoussmBgfG3tIcfO+93VzRmxBq6oUqxXgGIQJrM56qrFeKoL2hCTsLw8QJGnpg21B079IEtf1xl/BrT4PHquGmgzSnG8Q8XhyXFM1Gz0OISc6jG3F+sF7F2rqYx5dD7BnO7mhiguFthznGZ2iPChhBUgG3wTBkvfiSQ7jLr8ENLi+Xqu5BQiPWwyWY0YX1AvBVos/V1yhPU6kkdNzAvVtZjpZ0GkaJu7UM8/iHp2NZr6HwB5DpYveS/S0fkPquyyrq44w20ffCdufe//h5uv/u+Q9GqIBo997lFsfvpTmG1sYHRwFU984Tfgi1709XjiM78Kcnorxjd+vZT1zZQJnAhFFLC22eZZdYyN1XMooiBBm25gePxrMbjxFUA+ZekdPfIJP8eUl0uTS6+EZq74YxCtkxkCvc13QuJ9EOI9EOU1+MHX3rxgFB5Zy7EACI/sfO/Zq8nrrlwB7p2VaXqxaOSLW4kfEEI+hcoF757qZiObocE2vKR69roGQ9wlgCO2dPFu4j/390Bwx2GFN+R20gMjY1iI8Pxd46W+o6gAbiBtKVqNTrjGoQ8AaYeVW74wbGDHF5+nN+jhNvCwVHGc0mfPSamRTSuR5zpYPZnOMZ7OUNfUDwLYt2+E5eFAhSB0Bof+seNVe3yQGqk/96y+n3M+v1R+guof6PCCaSBk2WIOCPTFnMHQXis7uxX19RsRO9jQ4PBzsh0uNnrqPtiSazhHmoEKSfIkDNd+BVnxBGPk7Zjip2i3V9oeZ3pomFn1xlH/fT7+S9SzPwbkIWDpAqTLX4zi3G970N0dZ9ub+Oe//e+48W2/icc/9+W476aPYu3xF+H8L3sxEqqPcf4FOPeLvgx5MUQ9vh6zm78fbfUvPXMe6QjiNTLxoVbsYOW2/yCyu54BZFRhnCOKHi2CWzfzy24BA42cwgXRf6JFofDDJ9HiTWjbf8LS0t3iVa/a3LOb6R4a+AIg7KHFOl1Dle+5/Mi8mb5JiORaSPl/AuKpUspO8XgfU1ePFVkFRWJzpkDdQ4IWrXKtzJ4Q+OmmMryWX/mYROi/6u/6qjgR9c+3417xoDZy1mv21if8W/eazmCqj2yFRQ8evHENVys+r71+YIh7ahf06RS84DE06CHA0PNOWQ7032FBJRx0UIS+v7k9wXhCoWYo8SLpCg6sLZPQ0e34HLxxEBj/PZ5HNaqkRjm8SYv4kloXR1IpfdbjZg/Gg3iwYwFhb6qiBQbsfBwU2IfC/a2DGBOk6ZcrhqAYXYVi5XIDDiwkYkUHOmP2oMZ/FNMU7Esq7E7rUammTVQzq5n/Eyabr8Xwwv+J4vBXhUUOdpkj6uS4dfxuNFWJlcPno5qNlZFdPnBErXNCehG6Uj3G5MZXo538HSTWIUTuBZ7cxlumKrTVlCFE4b1WiqpZ+djrR+n0oGFQdgEFdsr4muiXJ0Jl5uJ8quJ79etEPR7uQCL+DI18M9L0s7jvvk1x7JimbRY/D/sMLADCwz6lZ8cJpTyWbL79g2v50uTFqRA/CInLIDETAkvGIHDfwd20Se7S+jZBnQTMTiGodpErWezkzH1m1Jvr+PHsNJVxEMIGAzhQsH5u92+xJenbnfpTC7kRtmPfdbzOaWI1Fx0TyxgJ3kiCeevdfTKsiRCnCcZsDNV6pDsjrQEPlBBzQNUYCTxQ6IGOoVRJAhEEErIkRUIqkIgGtsBEr2joCna1CxJVcReanKr0AU2Zq1LLScb2ckaqOHsSePQRMXBK7zOcLQsCeKiCawzC61HYYBtZfgWy4UuRZI9Hmj0GSX6+r10cnL730efWn/Ht8bPVs+Wq4lH3oG220cw/jArvRX7wO1AceSlETkLAL+xHthXK429D+ZlXA5IySoamkjLrX9Jju9VV9XBVyUsqVjrYeBYGN1yZCFpHX4HcU0oxJupgJIbK4mnkGCt69sJUDUlahQ1AXA+B90Kkf4H77vv4Aih8Yc9J37cXAOHhn9M9e0Z5DAmueOUQ08l5ZdV+mQS+G0JeDimowiDLZoqNQ2Bw1Yc+DVHH2LXYOaoRYM07YwL6WIPYe9WUd5dd0A9zZETZzqKNux2rvgfOUHDiXA/YJCQGNQ1MSKEntMEN56m1FnH4w8/ubiGPjrMbpXBqdpYzMboLJDEGXIyoWkebTot0VQpB0N+2J1NMJnPqIoXBIMewSLE8oowHunK3WBNnNvSMmmPc2kg0g7tVLQRN41vXlLHbscHnYkVOEEVebUd8yJY0ENZx57bnHPpF1V48xAUohv8Oaf4lyEYvgBAUaiCHNWINbCynt0yjGXTAu5vtQNVB7mMgjFVUazWHSJawc+/3o569E9nat2L0xNcjXbnIfPchbteyRbX1MVT3vBX15u9AyJOQoKaj+j0Ipl8Pw2NpXWGUZAem1AOJSBqs3PSDSI4/ERhOAdvkye54Hil3wGVHehKkj7AiJ7tZKfu6MkGSO1SI2yDb/wEk1+K8894rrroqrCK1Z3fk0z/wh/jEnf4BL0bwrzMDxBiU73rXxQnSl7VCXiLb9kkCyVEJWQnKyfJeIyttrCv39VLeTq5v2yzyFEN9ttjIqH0+MryxwQy9de5yuO3e7xs9aYR8rB4s+DnVxIceMzd89ndriEOYEa5J6E337Z6hB94FNv6++uj8MOwQO2/+ldYhBV+wqQOsXLxf3828rHBiY9s1hiKAsH/fEtKUoj3dueaz5sy+W/cW5eA2tMmOaSGliz8HlokZlMBgcc8y8kDdcaccD2Oy7XTE53QARIcVipVXI8seA5FSt0Qy5qZ7pnpUbSpfbAH59hkU5GRTw1IylFGMj+M3SACCmohPMN38ZdSzPwLEEMV5P4d0+ZlIly8EkgIJsQpqfP0/sp5ANjuoTvwdZp/+UUDeC5Euq2wJq7mwQIoz/hH77xbc1imTyRTDu74Zg9ueD6SmfXffWtlh9TEC7sJMyBKzBfYhib/fQck2P9ahHeoI9k0oimsWmQ8Pj51YAISHZx739FnkdUezUoqvk1L8ohC4wGQbqB7BurSqbkls+UbjiZvUQSXhM2p9Rpv3eZ0BU2A88VN4p6H4MZxiDxyYAe540Zxl6N2t3C7VibcHTGgcIghfm4CZCIyuBzxca+DARqcQUQgMuFfeR++H4sFuZgUDdUZoaOfDr6Xfi6nXg8R8XmJje6oyH2j9B1mONE0wHBRYXioCpqBP1GjdUIgKdXE3muykU/LbntPeEPlJ7jiUPbUR+BMQVflTj6YNK2ig6SsAO/vDbLH+fKpqFQxWfhZ5/jSI7JCp+Eh4OKY32NV1MQiAgFNFGXh8sBwAnApUxVsGO5YMebOD7Xu+GhDEwDSq1lI6/GJQmerBY38O+YGjkBnVZKDsQc1MtNUWZLWO2e2vRzN+P1DfDWSUxkjjc60PuOEPCk0FAME84g5f0W1lU6x88jVIiUFIjJMeAzD3aHEwZP7o0EnP9PLzxDoFfk6uKuVTqL6v1uFGtPKo+NEf1bGtxc8XNAMLgPAFTd/e/bJyLN91LL2nfN/gYF59AyB+qYU8xxT+sft1rQq+SUEAgWoI0K5AOw3ldJkGx9bQc4KeAwVP4/cbYe6CmPk0O33vFm1K2AbGLyiiZFX33hrYCi8OcLi9y18hZhNUYWWTehgbaj1KfRL3AjHWQRsrXx6aj5WDA2dMLTOtJ5sxGFz2GWYtcDbAm3vWVIklV/YJL7vgyytLqMgSZTuong8V1a1plX15/GMOqrF1HDme9mnDMlQbR1CouMF8cDtEQplupnKEMeb27bHG3gkP9YRZPOqjE6xhFLMT+khmYPQQ/J852cBBhLIn7RRL+38PWfEMDaIotODECtH2qECTuft9axSLAcZjYDL24QO6WJZpdNI0Pn+QBej8jZkZsAyFu2fC3gO05W2Ybr1R1UxQYQFJ56XskxIiXUU6ejGQn4f65B8iW/4KtPVxtPMbIDIDcDjL4IkMP7NsHWJmobOzqfZnUqx+4jVI1s/TAME//F54aHcOfk/2ZPzB2Y0N8K+WZ5v6QEgMGly1NDG9f9LfIH74h39x7+7OZ87IFwDhzFmLR3QkxBrUTfqiJml/XAh8hZRwFVqMWSIVEm0rSn9gjBzVKKBtVTEK3K/2MXd1LNX5NSCC7w6eWg8NFA999ntuPKbf1Rnoa3hP3vt/3HNXv9uNKfb0mYWxpiUOb6giRHTXDDiE1+3qH7j16hM4esBgrGIQYO9hBaJNNvTi9dnsPASWgM1PHzvPwyIOWrUSmztTjCczpVtYXRopESM3v/ye+DnomKY4rgrrVHJTGRRB/6Px23THmFpm/+bT0EeHd1MjDWwzO5oDHTaVMTJIjrGQBbLixRiu/RzaZhNpfoQeeYZOrBFvdftEAglLI4AAAv1sbABTskkG1OQ55Y7qz04Se9LzExQeMDfNqXf3FSoZUGO6+V9RTv9fCCrp7H6oJMhMv6LJCJJAgwI4VObZABNecKrPOO/m/XeYFv16yWQmRp/5NhR3PNuEGHbZsuLz8gXkNRDYu2heYLOI0Xl5FEY94ryhhV0f9V8SjfwtmvZ3xY/92F/sMrrFnx/CDCwAwkOYrLPlUHnd0ceVbfIqmchvRosnCeGKxFvSW1I5XqBNbNMj/V5y0Z5XgIUmnUoLd9Mbw0wCPZPx33j8315rlx3W7SdWL8DZgT6dAb+W+91tmp7biICO463rRpcJprSMsqqQppkS/1F6oBb9MXDAGIqOwLIjjLQz4e801kCoTxigoXPSNe1e2QVbpm+ASnNz4I5pPnRBIAuY4jHaXZq+SdchgLC5PVW/H1xbwvLyyNh4s3Mz4+OYl2SKcnibBgjTHOlgrtMc1f96BXJeFxqF7WNdoGdZoqejz+Cwv3mZrXV4t1GMXo+seDrS4hI09XGk6UHlnUMVPmKFEmgQa2vAcKjDCyQ43NoCxjuG7RDAyiowGmoGgX7u+RxQN/qhYYyOG7UDCmYeA+GjeauoGubsQ5hu/gAAAiLm3Pqx8UwWB0aOkfLSEWezOWHnX1z7ALthMrLGTYNMpxh95ltRfOZZ5hGJCh7Z4bgb7GgEOqxQVy3JlaU9bz+3WA44qEUmUcQm0H4fanm1eO1rp2fLfn0672MBEE7n7J+Ga1fvuuwFbdv+CiCeJSVqIcgNEQdsa0JrumOhXdcT1rtB5GVXQiu8BjGtzTljCwR8mLcvVstCBGaePBjQO+BuMXCv6I/F1P5xPzVgMV0jCAyUNbZ2pkrAl2U5VlcG2NmeIs0yJeAjVsEa8P6wtb6PLijpAQac3tDbcsew2PMQk0EToAoosjRGO+/Un4H+l2ckQ+daCLtu+vzhOnPXz68t2a2dyQwbWxOsLg1xYP9yKFqMvHM1hqREXdylmjbJhMIVZFONQTENkPRIdEHqLggIylx0p6KfaNIMhdUVWiDCpjE0lDOkyXMwPPALEBipejxJsh8iJS+cbY1Kc5ACB/YDoyUdOiBwMJloRoF+ihw4eEjPCx27uaE/D4ABG4j9nqlT0N0KLEBo0dbrmG7/Cpryz1STKG5/48dELUX/3NQmgUXREB29AXshzJ2rOsq0kjqhhxpwzZHOH4+VD/2I1mrQevb9OBDCkWN0IAdzMUNgD7XhnO5lyAmhuM4tAD1g8p0Q8j4k2Qdx333UQnpRF+Fhsi0LgPAwTeSZfhp57FgyedF7npEK+UcAnmrG25BBlyqM4LfVmDaOjKnduRRfH3rmmJuWsMv6/Q/T7qy5Dpnl0Cj5ebTUK+13hAaswfQBZxvR7kt7tII4b2Zj+t8YEmPV3X5lLAwBg/G0RNM0mM9rDUZSgdGgUA7h0jBHUVAd/T6gwu/C362+UzszfJ/vApcQYHm3LwYa2rAyEMLHYzb24FyRkNN95tghvap8bTVbIbEznhGhhGGeI8sSVVTJjyy8L5mOURefhWhzVU2xbQQS6vwXwRLbLbETMuASBOb1cgMYMM0GDHQ8ZWds2BvKHsC0uBzDlVcjzah0cq6zA1Q6YuSSkyEvCsoZ1SBhc52KSWh2gM5HYYXVVQ0eCBhsbmorrE4TbbMUhhiNgKrUx9r0x4BRYONta1Szv8ds64cgFdkXnS8CaJFXTktGj++6EDgpJS6K96oesOAeAj7fxAYlzX4s3X4V0nsv1ADWDYUjMyZCjIFAvB59GINvCRrN0KtO+bh/D4nbIShm1b4VNW5FmtbiR37kTtrfxLFjTol5pu/He2V8C4CwV1bqCxin/OvLB+WofKVs2/+EBF8mqGuifrV1excqcG4p604dAWvTnNEgT4SKpCius4e6N/IkTruHhjGUuRlowhQN+lZ5WmSYEsn3w146PhiX3oE8A6IrNFgdgd5/9BjI46biQo1ssbk9U+pxcvTqpkae50iFUP0LBlmGhGhmF0+NBIR8Azc7rM08D9R09jgr3jMedR+7wbmQGGD5AEn4kPTJCfma9QFB1RmShIh2vzen5HNOjAqde3WZCu6Y9XP9mA3wSqaoh7fpuSfNRkItknWraNWXIVEciC62IykjQLcNDq4bx9D9QoY2MGIInAfNjFO80Un16G8jG3wvRms/qhsm0d84OHBPDi1MokMMsxlQzhWsduuv2IUDGkDQA6NCD2MNJjgJZAWMhw5plqEsgfWThoXggMTWTLCjTtBUn8F043Vomw+r1Ef3RtnMUXOoNegsjNNCChIrqGZJFE4MGAY+MbsQAvodsaRRI0U7Eku3fCfSdSpD3RNm6EMgD+Y4/9oTQ0CClfebntr3Avgw6vZ/Ik1P4uRJKY4dW7SE/gJswoP96gIgPNiZ2sPHVe+67EVN275ZAI/Ve4BxOb3/15pyRtr0q0Cy7nzodfTaczf7HZUpco2R+NQ4qph915yDEY/eRbCG2xtFbe7i69prxAI8zk56g8hDHyHYsAI71XRH0/So6laFEKiqIP1J0fOmbTLdz9KowMH9K8qY6W62ftePjXPIZtht3BhNxlbov7BdXZ02Zlz4XXN9pZNsOz4iBh598xnMYaAn4QBHW9VQcOivbc9Bc0Q/pMHofU5UmuNnkcghyuQ4RDaHbBK0TYo0I8GiLuKkDQ9zGVm6YswQ+PFH4+kDCD07W+ho0792kA++B9ngq5ENvhgiIQFm8DRzHgNYWgKoK2ZNhZVM0SO6CWIDiEEgQEAAYmcHqHtYbgIPKyvAwQMkZNHH0fGdbAc7Bn8TVMxpuv5TqOZvQ2JaQjt73sOwqG/6EIuboUgDy9W8+lli52L0kH2A1X/p35ZBAAAgAElEQVRlsiOH97yyTSfnyeyzl2Qq3ND3w5mAANUzhkF/j7KlSkDcCSE/CIm7IOT/QiU/jTwvMR6X4id/cnsPb8F7dugLgLBnl+6BB05dF8dH7j2StvjVRIhvtgbJaAAaqdu/GYNgDKmum1aRxxG1MbYmjUwDRb0NSDDf6yl8FOkYGqkwBbmLQZggytH3mQYxO+G/x90ytWW5OLt2VAwMMlkLsVaBWOFpWSNLBbZ2ZpiVFZqablv13dPUilEkDvLcFAsy3mCsuoj4XP9CdTMQ/LjM7s12ZAeKFDZzKj6H52ynytgYax889PdD2t+wPK6c86kzLQKL4WeWcSJm7t3YDYNg6GadoGCtQQOZ1JgXtwIpMQiUVkggyxoUbzWs4XLQNfC8GbPAL6+X3v/oJBPX48MyEp2kAWe4qHLhBRgs/ziywbNVp+FECRRZiEFdwyAZMvA2pGDj43SvBAyIXaDPiRUgw08Mgb5jPx90HhIy0rF03Pa2BggupYK/0xz60vVHKLf/HLOd/2gKHun3xM6XvQ7Xcthl4EkEDtuy0/Nb4bfLwILZMuxUyJpyeZZvfFWW3vdksu9CMUAKWVrFrhIN0kxn1O2V1USnTAM6+E4IsalqXAv8AwRuhEzeg9lsE6973WTRtfGB9/dH4ogFQHgkZvkRvIaub3B0bd4mh5CIJwmJZ91fv+A/AXLJGBLV6F4ClZBJKkWrJG7ezNpOhTy6GBptbuDDLY0ZZrY5mq5GDWWIx1kCPQavyx44O9JPpjuaO+JOeSxd7etSoKxrjGclZtNSbd3UNpcQT6ZCBmTAyAgkWFkaYjTIlciPOkrYU4fj5+4Wm8Ge9ba30Jcx0MmcYFn8Hc2Brb3Q0T7o4VuW3gIOO5QwbKGPioGTZWd4jJv/zVqJbmqlD+G4Y0SpiiQl7RDV4HZIQe2Pw3T5WEznaWxmW82vQZyc/43bYBvxiuc/AjPqY/M3IfYhK16OfPRyCCwhHTylmyngDHgMTM3F6c8ECOicDbHj5rnght+uDIUiKE2SHjrSKVAoou+44B50GeZ6/glMN34QENSQyQAEC0F09CbAI/4+GWaz59XHhuk3HGzpsMKc0lCkkNTpi3I/EyIR9VfnQsyegMHJ564n2+dkyc45S0KIO8Rs9X0QzQUQeBsSrKCRLwbwPiQ4ASnPgUj/khQbqOtPIssojldhMNhYVD58BI3EQ7jUAiA8hMk60w+V119ZlPetP1W29bltg8OpSChacN79+cE/JQQOq6iALnRE2xW5dEOhq62z58BS/Hwn0b+HHrDdZf1nQZ0BNll+H+IchmcRbPB5d4rdX92GEULHsX8spO6nXgN0pZ3pDGVZoWobVJXWGngGVCqAUOSpqhiYF5nqR6A28aA6cL9hDTZitu9y48zv1h3v7Es3tBAbdGWaghLQ6p6dxYpDCuGM+H/5AI5nFqxBC0BFZGzc2jMmwi2xOTYAe4Jy8Rs06boKNdBjZ+1g2+qZp/9LmQ27ZjDEdHe0WwV2v0e/0MEJLH1eXV8RNfQaPA5p9lzkxfNRLH8NkNg6CH2AwK9qIBY0ypuOgJAF5dQFSX9ABZbmc11DwYUrWAVGdVl6bg1rJVvMJ3+Cev5BNNW7FSPvRbimsJYZFgdhAbl1qp1ez7N9xPQ/9HC2RKIkOQOhi6PR60dgQa+eqKRMqjukSJu0Ho5ltfZ7+9b//W/h00cSvPrVE7zhDVA5sePxHD/7sw3e8IZ0kWFwpluRcHwLgLC31uuUo12/7uj+5TZ5pUwxK7aX314t73yJhPg1AM8C5NDsAGSHp6oPr1BM+lBKqTz7+Cc0Uv5T78dry2BS1ajUWpBY1tER9Hg43EOOezr0jcnCEb1BhXoANRbjapZ1i6ppMJuXKLIM2+MZqloX6qHNr8goFp4o4SHdwaDIMRrlyNNUt0VWMfZThQn8fPWFQvQWGjAzUR2J8DM7u5xN6GMP/HlD68mNu/+ke0zvuHZZe3ssBx96nH7sbo0Yy2PnjQBCXdyJJtswxXvst6nfgJlbm/rIHr6ASdhFqLgb26BS+WztYdb8MxietW9OX1cjH/0YBktfiyQ7x9xe/D7EYOFU4GGX15QGTeCANAcUYrAopfPi8cZOmhpomuOYbPwQZP0RANRXwVel5KEUtzxdcouLWAKmIXhr/fJa3G7UJsqRoNCAbwJBmY8incgmGQjR/PFssv7qcy7Fzlm0pT7qb2UBEM6SR0Bed3RliuxLM0lMPpCP5afqUfrMJml/A8BjKKUfwJrPRFeyxLmAIICgBIc8dh+zj4A8ASGWIDFSIXLaNszTY2GCJvFt0p015SFvaX3H8PwRRR03WWLshd2/IjZUGV9CO7OyVv0EiDkg1oA2V5WOR65QXanj8izF2r5lLA0L1G2jvqfZBh8i6c6FvnLAosTeNAcszKvuGtpQJ+EduOBhNHMZjumBQhR9YQI6axyc8eyJBjL8c4/jwkwSDmJiuOgEosZyk/CTAFiZ3Ykk20arNAgsLY4JE4PwgbPkXDlvvsoZALZzmWknnEd1OBIpdSlwhmVCrYKVwbrzpRDpUzDa93PICoqpm6wF9aAzaqJjyDltwRs6mQP7vmvLNbvxR9cIRAQWi1GR8zmq2Xsw2/4pqFfZiCTDdTS3yYCRGglHjIY4i0GYxSp2f2BaDivLEYJqgmn5iNV5kJZ3llDPNiF/bOU5m7+tio0ufs6aGVgAhLNkKctrLnsu0qQSol1t6mZtkOJd2KrEfN/gd4TEN0jIOyCwAinWBKjnKyebI2FflyYn8dGOIQuWle8kPRAwcWeq2qOepx4qvKcmgg+BWgPWBx5Co8S5C+/FUkYC4ZXJZIad2RxN1aAoMsznFVq0yIgVIJ1BnmGQp1gaDdR/GwozmN4Odg+NGQ0OSJjtCp4aXs2RAwsnHOspSKR1Gb7J1SnBGbtweH4Pwjo6hqDyogdg2ubF8MqwHQzU7NbR0ota9cGho+qzKwhAllWNfDhHm2+gzTZ1tp3q4GG+R3pVVXiT2XJeZTG2v4yf4l6vqZKhyzXoGHmqzLU9bxRaCBfPGtAJ0uIbMFz5YSTpYYiU2j3TCXT6pRMuxvGQ3faPXY/bzbXvOxEdS2GGSjEI8+3/hmb+Z7pls0HncaaHOrslN0xETP0pbBuicQOPJjJwawoqMSCgWQzT1dFSa/RvinE1AuLqNpE/u/bszY/aiiVnybb6qL+NBUA4Sx6B7Xe88JyV4rGTql6/qEna1c06+/C5m2tVefjk6wC8CpCUw5VJyH0mA8GJE63RiD1Jb5y1mWSkpps1XxJZmR3lSpDt45R35L4Za9DXBrrfW+ZeuwmTqN0tSYgVaLExmUI2LWa2oBG5P0Ko4Cn5M1T1cN/KEEujoWITmpYEc6wvQ49ey4MW40U7i2SBDXfM+isl9oVo+gx8F56Fht9Odh+IUJ9xN5I9zwEr0NEOeN6ir5ZE/zjtrDjz1OOeGpRB89+2ytVs0i1Q4aR2QA32woZNVlXfCQGED1/vI+TuneMdT3+E3+E7XXy8m8IWSfoiJNnTMFj5txDJigq5a00CMeu2fMgDhRv458xa94Ry/HL1fYemi0T/GerqdkzXX4NW3oREDDu6DZW9EyLYcJA6kyBkViIA5XJhOIbhw9fZB3QVtayqy6vAP+QDfNvw6Zu3xxW0z5Kt9VF9GwuAcJYs/+yayy4kt34wmB/HeLkFPgesPrWtpif+D5nglZB4mS6nTKmNoNBCTg2VYspaOwXkkKt0RNozVOcXHddVBCTlA5pURWYkmSje+IhaZ61spyYWYqK7W+sg3Jn8v2wsQxt+EhkS77m1M1FAgboPFlmOtm1RN63KOqPj8jzDyvJQpTMSi2CV+2H6ZfcVCMR2RksQh1xCSr5b1Cne+AOwEDnfzhgzEOJNMZe9xYQyv4oHVxxQWCDU1Xc40OfAUtzDgs9/3xj75om/TvbzOTZQtieRr5IWweJDAxSi988zA6bcNUvNcLaqS4CEZ+mbptj+unHw0sQ6M0+I/RDJE1EsvQr56HkQCRUm2m2rDC2ouTvmxuuVNBJAc9WYRfArFh5HWo0dSLmD6eYvoinfrhpJ6femJ+xiwaIZEiMFQrkO13U8tP2vUYWWdGkrooOmjcSfQOIv1r5885pFeOGhTeZeOHoBEPbCKj2IMV7/liuLiy+5t8AdowT722yc1Hk+TQ8A9U9KyCsgRUESKak6MQrKbqAUB+a4KQ7S1oZVAMEYUvpdRxk71LTaqowTSLJ1lfPMuEvVo9aK5C1KUHfjGQbmyTp/1EMHqy0g/riuGgUGqAUxZRzsTKauqBEV7Mmy1OkJRsMBhoMMaZo4wWE8jR1mQh3QDxj8J9762HuwcX+37RsrF3vhsQ4gPKdlbn2PzFOOJcho4K4jG5/igH0oyYOUMBvDO939FSF3Yy78iL0gk7NRdr5bMUOZ3Q2ZbSFR5bdMw6aeUAdfo454zkyYu8NTZS74KfGkU8/q9hYGoiwBDJFmz0RaHEVWPBvZ8OLo8YlZhBAa+Yf8wWyx5lwuE8IDhnLyNsg2hWxPoJz836qjI1UdVlNhTq3vwbYJ9zfJAYIbj/+eSxqKa0/Y77H5p4eypNCkqXJQGzJlDCl+uKyzvzj8FfftLMILD2Kj3mOHPJind4/d0qN3uFQYCRceSPDhDwOPPydBXg2rAhe2VfMtIhVXSKnKrV6o6yGQmlGRy7Q/2O2UNgHSlROzoJ4NGy12MW5t5m18l0BBQ6IwcuyhAYhT7/vvO4OvtjIWhTbHclOjNQx0dQIFVVkbViBRzYKIJSDtQJroaocJEmQ5FbgRWBoMUOSZrmlgdk+9C+qr8rHFv8cAoPdYF7/3HIRNi4id2tBkhwJQ/4SyILDdjRlkCwECi/czhVnsxdtzx5qEkPFgQCjqzWAxUl9HTH1uc8W+79nTWveWqVipEVKd3YM6vw/CVd7zT14QS7eiSb47sQnuUOH+pvtCEZ5a4YtkigxZWp6L9vRlW8hWV0xMsuciLV6C0b7vMW8KPfZci9c30HhrjSmM+Dv23yaMQSWp201Us38B5Abmk9+AbD9FXaG82NPcjxl7/OJ1Qk/2HhlRpW+CXiP2wAaiUTO3qo+DXvxD7FX6oJT4pbWDR94qLrqFYiGLn7NsBhYA4Sxb0L7bmbzrq14gZPpfhJRPNU7lcQisQWJNCJGzKkDkOtXENpgQA52ODD81dcqU1VWdhqXOibYWQ0uYjHnQdZq5n60bQhnlMxugNWIJ+blEZ4hEylaKqmpUS2WKYZOuYF7X6sskoaaa+TrrgDoVZio9cd/qCHVN2QgEDOyo+O5pAhy67YQfNTNoDhBwcV9kNXidBu0F+7iKU/H39bJQ1/FeoqrFlPruQp6Z8VDGYjbr/nacSzf5PrWzn+zW54xZAA4k7O8xw8FBTvf4fqDQx5LoaSaL3KDMP63THoWuXNnJYDAPVkfMz7zlDpbSN+hhLgcM0Wf+uyGU7dMUSl30U9H8SfpEDFePIckehyQ9ossyU8ljVTDQPGvBInlepvtO7hZiMNi7rYFmB60cY3zy+6iKB2R7NyCoyySlQMbQ0Q8hNu67GHsbolCaAnqdHKZj7wQDDfRK0yGN0TGcoIwoCPxdMmu+Y+XanRPi2CJ74Ww0JQuAcDauanRPlF0we89XXSCa9KcBXAQhVhOBx7atPGQYA9qoqVUfEdLkohgxkzJiLYRsdIhBKbXIt1GsA9MQdPhW5sHaMIMxzc6TV39XP60KeSimgHoijMczxRKoLAOVGmc1/1CAYG11SYkNCRC4KopBsye9OXObsbveIbQtfULN3cSbzvCx+e4LK9D3CeyQqp+6QxY5dYLMvF0xBqbfD+2mGnZ0I06A6EM3MZPDH4mQTeh6srsZeWs7OBvDeA2fNuAu1t1eZDJFObjNNW/qGLAYlUS9GZTB5vY1ZAUiq69BAydlOmGL6Pb7x0NAwdQtkPuRDS9TzxeFHvLhUQiK5AX5HPHrcKpwhEUwLZr6BGRzEm1Fpan3o61vRDWhMiZUcFB1afY/3XnS9+4XqTskq4SIszp2YWp4tE1dTr/087YVV4sEqWzlZ6UUv3DgBRu3Pwq20UflLS4AwqNo2eV1R4dYSpfnO/L3IXC5EDKRrXL4ZwK4UwIHBbBPQpr2z4oLJuqQBIoD11hYOc4ukd2Lptwm6dSJVHmfTLUTNdrtOkmEbBpZllWVz+ZVQnnzxBxQWeO6aXRaYkYgIEWep0ouTXqC5dHApIAHNZkCQBCEE+zOxrZwbth3M+j9Xt8ur4u5RpdE1qES0kxs7pBeosHSkLIpdJtoNQ6mV/AZIWGmRJ+osk8XwMMNHqDpu+2yAyzsEWQ4hMYsPqefl/BuPY+vj+haam2dWjEH0h20yRQyo/+S0NSclXNSbKpDuBfp/+yA4snvM6Z9lIgZrSmr2GuEPSVPmo4KUoEFwtAD5IMrMVx7rcp48FDEXsimSCquBGhnQLKkD2vptSL0MkDbnABIjEiqv82fghCHIJIjqGdvhUjGuiSBQUW76DJ0g9J4LkJWhaiOCTXhZNW6ndgxAlJ0PmL9UgMS6Ez0P6pYPoeUb5EJPiAbcdPadPNacakSbSx+zsIZWACEs3BRH+iW5tdc9jQk8qch8CWQeIxSZOksA9pkyFVJqSW0FLKEFKVI5MiwC0RJFoqSVDqzrqhNSRJV4X2VIUEbB8nSqJaKGhZVNyTYMa9qYgvasm5E27RCdQc0+2qaCRR5gZWlQnnbKkhqvk+6g1CZ790irzfwrICei6giogMNekx93nYMHDwj4V+Z4BjV7jhMd6RaAOPpHNN5pUIgq6MBVlZHAXMQp1t682pHHo4x1hx4IrvLBNgLdYALc5O9beZmmP3uAtxMiMgeMO629oUoQhfehzrUvCdj1IPb0SYUxdKlmKkMs8qZ4Z5/K1CXOdK8hkijOjycQbDj8pNipzN4JWINA4vJu7U5NTVv5lpQTzOqyPlCpMVzkKSPg2yoc+XjkBYXI80ep2oYkJaglTMIZCZccRjl9Bpkg2eqJkzznd+GrD8JiFU01TWatBOrOnxheqbGIRf7rgiB0jB7vsJh3wYQhgjswxVrNnylRF3wiACBrZegs5cIHUnxJiFk3QJv3v/lm7qn9+LnrJyBBUA4K5f1gW+KQEKbtEfQyseJFPshBaVC3gSBfyfIrdG5iStG7Dej7iygpi2gWuxCF6unUgO6vrLyhcnjEJCVBDYExGGq/0bb/bysqtm8zLIsLeu6PTmZV5Vs28e0LSajQT4aDLMhZSfM57XKTjiwbxmDIlMujDq3YyzUdkWV/On/q3I73LvWh8bdCi0E8HPCj+nS7d7t0r/1e9oOHHDrYu0GFW2al9gcTzUrQimXicDa6gjDIU2txiU+/7O/pHMYFjHx6QdS/jNe2M+PvhP+7869dapXxsEDb4njcM0DsRl8XbwN1+ORYluFHJDWSq2vBIzWF2aMgmxSBTXp88DAM1agI8LrAQ+BBCUMT9gEnJ4AP3t2OkWXiO0igKOwsNZWiANIkqciX7oKbX0X2uZOQG4izS5CU98C2a6jrT+KJH8epLwXbXMjBDnrKpRGTAQ93TWMBkIHDoJ+KYHeQhf1MEJDNjwNCewzGW0Jtv4Ew1RqNlitS8JsusOWLgJBn4/Nf4+jkS/f94KtWxepjQ+81+7lIxYAYS+v3hcwduWIv+HY/et/TJ1l59989WExbUQq5FOTRDz+fj709dTJhpo6JRBlC/lUYsuFELdCik9KgXMTgQ9UJE+QYlkAhwXEC1uJjycJ8nlZPglC/O/5vFqazsoPQIoDxSDZhkw/vjMe1xDiJUVRvGh1efiSQZ6OyrpJCCCsrQ4laQuU8sDSqqRu01udwgPm7xo7MAPtDKAzGqFPu5u+wEKIOLZvz+/HEcb42ebqgt3EdJDA8sT6GLOqVqER0k6OigL7VpdUmWdd8i8MGKuxs3CDNap98MYiDAd0uFgycIe5gyhpDil1NahHweyryyjpC5X0gQDO03SZjd1qQxh0xJ7dJjmJqvg0qrJAPihVjcmEWkJr6VxfLD1k8+0x/GbsN/UkOTFkQNEzAKKtsrGQ1sp2wIeZGc5Q6OpgJgJg6wdRlY4J0GZq7aW0djZRJb8FLYUgIDAxtjcPB+hEj2pMOq0hqoToDLweUm20RPT4kZaX1poKJvj58/empZQhuraroWuu21dMEFugLkAxsalCcBqN/MZquvWT4jlKwLz4OYtnYAEQzuLF/XxvjcDD7NqXPKFt0mppNJ1OpqNRUZRPbJr0eC3FzvLJg/fhyHKOe8eVuOpPKc1R3HL15cX5cnoAS8BylSef25hV5+HvT+LIUYFL30VZED5EKiFOXP3CSwdp/v8MhtmX6s6KasdqKDwhRVuQatGYEi0lj7x5bkD55t6huaP4uvWc3Y7oultzCt2byE74wbwxDLy4lEwybKrc85gIFwriNqraI7WOXl4aIE2o5LPym60GIXDyLV3vx6jvJgypKCFpIPj0s8MtJftdf4XmUxW78kBIWTcfJWDZDny+QxBhzxC633FIJtYuxPMYHi9RJ59FmWwgKaj+Dt00O39syPmD3QUF+uvcle7KVXZnCViGQGCEe67prsG8dP8dOlGqwgT6OHLCLYNP8+7TGYkVCYihUwAV9y70gBiWdeBCBX3hE/O+8IeczxcVQ0ok1SgXoN8zc2BFWcUCuEO0zdeuvmDnhs93f1l8b+/MwAIg7J21OmtGKt9ycVEeOecnIJLvlw3OQSJPQOI8na6gbNb4fnX0wOgYHEDg8W4ezXa9ELjgz+2CrOW97YvDEYXTvOlXITRsesrdTur66hg4I7W7VlctxrMSk+lcCSxpPKp1dJErDcXycgGqbdNH8dtN3YIGDjysr21COG4ksbduHgw+TBdSoAT3qASvfY7IjR0DkgzAyAhKgmcsNOoerDDY0pM+yXmYWAti5mCXVIJWTFEt3Yaq+hzSbAUiIQNrhhRR5R5t+kwFtVY9YYXgUbCsOzewdpFjEGD+HmsWHvSLGGVQMAMeFTmKGA5D9ntmAusSYiCEpDzHQFoSayV4mMUdap8M/1/1W8ymmCmey1YVPLOVUFWNaUnCCOCzrRTfuf/LN969CC086KdgTx+4AAh7evn25uDn77nsaWjaP5ItvgRC3JoI8blWtl8hID+HJFlGKweSaE2T/UB3GTVE4ix4b1vluLSwOkdffN54a96j1UfGTIT/voRIEtSUsihbbO9MUc61mIxSGa23v3/fElZGI1O7oS+LQJ/RmtAOexB7xsG/9e33AQX7QtOOPp01qmhUUdjmex4EkRJOCOK4SVZvEv57sg9C29Jn8TxU85sJ31b8ncX6kL45bsUmNuc3AFmJ4dIQSVoo3YE1/IGGgBlwY1M9M8CekHiT4+cKvsdulhvP3YzuqRkEBmw4yGFRCvv28jlmiUDeqxfYlFJsJUI+zpbyYD0siMGjSJbvz+C3BU1X0fpGWhmGjxS1FACNUBJDZ5hTEQuRiDetPmf9FxYVE/fmvvv5jHoBED6fWVt85/OeAaV9eNfRp85a8R8FxDdJyHUhcEhAnJASB0yt94F/MH09XV+oyPrW3uhzdoEbHgMKzB4cesEdF8oaSBaWiL1+qtNQ1jXl62E8mesAsWwxGBYoS+qHI7FveYTl4QCCKjqasrghpx3wEsYp9K5vN63RAgL9Pa674C42sRmULkptrOdlg53JTI0jz03hSx5T12CJdKDEbaieHG7eVM5crCGIBe/+ETBha6eIi8GOoYV4rSjnBnc0JApozbBd3wIxuBfFYIWqSrlQvMtuYOU/3W3FsRATqbCrzu2myg6wT0VUstmdJrDc7H5dmEn/7QGzIjwO1MdzpoOvCT9vhLFU2qEgEbBhSXwoRBcUdWEVF0Ki5uX0jzQQOMZzpB87UlhSNdT+GhNKByGmEPiBfc/Z+MMFQPi8t78998UFQNhzS7b3Byzf94JRNR990/3tFX4GQhYC4ibZyqMQojE9IHzXOd+WmgyZKpVoDY7uYbuLt99TPEjPnHWXrOdrzVt4LkssmPRM9Z/xeI71rQnqtlHtogmwZEmKpaUR5mWJsmywtjbC0nCg6+WrzTcMXegRhDw4N7BhbJ6HJezofeVE7hVWdY3N7akqNrU8KlRRJtI+UOnpTjEpZwi0BdT3GmaE+LCG/czfi70Hf0xA6LCgDA9G2OfWHxuHc/isUGnmGe5AO1hHmuZKtOi8fXMqziZYw3mqLAVnnL24371Mtgiiq+7BB2MehoAxiEIf9tGyJ7QOe4ANdCZsCUktIg3OM+fpGGfGL9lH1jy9Pm7Dvqs+Y7g5LvKpsnDNBMTklGvAFjMdWjQxpTRoAfH2tpTftf9Fm+t7fwda3MGDnYEFQHiwM7U47mGbAfmel50/q8q/SBPxpFbndZEaepXv2ywcYER5qn6js58hXa2Mjsrbjg2sN0u+CZLeB50vRmWinc7BGD9beIY+E9N5CSID1jdnKOtKbcQEAlSXyCxFXqRKh0BVHkl7oGo6OIuhXb2gt0GglejWkvAGeLf0x9DUEQCgFtb3nthGrcIcwOryUAEEKjzlRfEhS7HbXPUt9KmAC//sgY4LBJKdEAvbjpTL3KCUd6Ed3okko/Ic5vM48M6ng+MYbnyNdVUAwrRGtleLMgLc0kWsfFdI6Cz2KV6NLqtBSCd43tSQI1ElM/i9NZxCjMkaNdlz2bFxhGKJKCbLMVNK7w4tHVE1lgCiEFQjW/lGADfLTNy0/zmbH3nYNoHFifbEDCwAwp5YprNrkOvXHd2/JMV/gQ4xFIo2Vi0cNATQTRk6vQ6oq2RlajTwRDDDOmvK3LDKigUN/XQ/hwZc0MfU9ppqHpNQz7m2qlkUJarN5tgal2ibVlVBJENC/0uzBPtXVxQYUJVkqOyzAR2hV9xTk4H3eujUHrC2KSwGZUfumADTgIoGTCLEeUCDqeAAACAASURBVN2o8MbOeKrS6A6tLalSzmR0eAGqsP6DMbc944kZDccUeGPnajhoe+ytiprEyI1XORcuZTUMVfhr6TP5cIReP2ISyvx6NOkYdVkjL4hNKFQTJa8TMEzIbtkKZmWtF91vjD2z4W7TIQgvhAz0C2EIwv6rhEBhH76YSXBPoR2TDbY4eiTYkn0NhNjtj/7dwUwMl/bhKQdK9IDmQoibIOVTVMM1qZgD+mmQyNfuW3rcb+PiT1SL0MLZtQ8/mLtZAIQHM0uLYx72Gdi55rKnZUl7NSDWhMDdQsr9LXDQuIm61bRpFa0MkFZR10JQUXoTU2eVYAxNzrhuT51zMaA2VXY3pkqPqq21r/ZIu6OUmExnirJXxeNUkrkOTeRZoppDDQtquxur8uMsCFZkKRZIBixC12j2efccfFDCO4kix+MpdmYVqrJRNRYoxEG6g5iO1w5l2Epa/Zu5yR5SeRVEmDIfajjihyLQThirZEy3WSlvUWPwFjBCpiqlnZU6uRfj+k7Myy0kWatKcA+WKMtBZW3qHx4GCP8UDjM2zHpi3E+fst89LVHmg+Og/NcJC62bkuWmhABPg2FDjen8PgBgxhaAjN3ul4OVsCZWvEyMQOP6XnGnbsAkV1gbk0oK/Mpdy489dsklnzDNKB72rWBxwjN4BhYA4QxenLN5aLNrLrsQSfuXgLhAQt6bQFDJZ7ITuU7149ui2v83Sa8gJaXkhXxs2JrY7bSagzCcRBTvpmqPuYBQNYv0lWQym1WYzStQPL8mNYSuLYRBnmM0ogZLxBgkKjPAp9N1mQquiwgEhZ3gL7MszHhbo6o/9bywtoO+FPF4WmJzc4yauBXVuyLFkYOrSndAbbGDPg+9FRZDPUSfONIbeG9XrDXmn/WJDX2XSmsYo3BKr3Segz8/P1SqeKu6AWWziSyXGIwyJBllOZimV4Ye6IQFGACINQS9kYpIqMdBgPGgdYUGb6jpASDwaqsN2kQWl1WgDo9ASHAKE/Jwy73bi39q1sCBYya/8QJK/yjRWKlQB6UyWqbDFiIh3ElKW7pHKlP1nkGafMfw2eufWbAHZ/NuvPu9LQDCo3PdT/tdy7++fDAbTb9RSPETkOIiRRgIfJJoTgksmwFyG9Qqay+14j7YYHUpZt0Hl4rj6/bTuqiC3qZnVA1OV5vTKX26/Y0Q5IU3Tat6JlBWAv0MB7kqkZxlCYaDAsMiU5S9PpvywgOKXRtuLRl3Zfu4VYjcUi4ItAvRrwfQVoV723QF6uuwM52pJlDDQaYKM1Hr6+UlKuWcIaVKlKYgkwUV+jx97f666ZKBTkDdGOPaOy2u3aOkWnq7DcVZVr7F9DMQoZ7EjpTnfdAYW1TtFkp5HDN5l5rnfCCQ5Suqs6cKY/AsTD+x4bPOwwZ9b0E3Zh8zDFbPyP/u4cJuIHB34+7UoW5o4YL78gmMJQgeKXsfp7q2fwAI9c4hMVAdp7rfoauoEIMQ+OV9z9v8qdO+WSwGcNpmYAEQTtvULy4sjyGZf9Vlr4BsfzRJxX7ZKo/mQgAj3eBZ2Uby9qmQj7IuUgqpcILx2ITAhmyxLoQ4l2yGpI44OmxABov615ciwWcAPFFKOVQ4xJTG3R5P5KysBWUiUFlk0hrQZZaXR8qcLo0KFFkOUpVpBzUmxsPaCnxFuyAgNI7qxYvEit40dms26MO1e7u1Pcf2ZKJGQ5Ualwe5CnsI0lruqikIwyFxeIEDFQ4Q+kIBoYw+3EKcG2ugjfq+TSnsYUN2Ezi6+TOnt2wEaRK26+shs3WkOdBQxmkjMFzKkKbLut3YbgY2XCAeedLry8FDn7ENsU5Yc8GjxODFNo+a1UaGY9NHcu89jJjwsAEXMrKxxToMdnHCTBbMBLBIf92ydG4aCEhPIeWAurtCohZSvHbf8zd+d7FTPXpnYAEQHr1rf0bcubzuaFZJ8ewW+H0BfJExxcQGkMdPDaLmUlKGg9bjS8ipfmjFCkkajbhxIqUoqFeEhFw27AGJqqh0MwGFQlCuv0hUSTgCAfet72BeUoEj1fRB1SwgL5zYAmIQSIDYKE6ia/I4Fa/tQihGDMIZDATEE96tw2Cu5bIerAUh11yPZGt7ip3JVIUVSKA4yHLs3z9SYYW4iiAHNCwrJKh+GAODANgERjJOD9XfjMISTQuZquqNUUnnmAXpHRtjHaKQUHC2Wk4wF7eiEfeinEsFEgYrKYZL+wzfwiWn0azzmgcR7c+zGWItQvAY8EfCcwfK+PeEMUrT+0D3RoiON5PYATUM5FgWzd/IqXpLhKDCVO5yoh0OalTWjzupfrxo2jcg8BEpxfYgx4+NnrVxxxmxUSwGcVpmYAEQTsu0Ly4aOHNks6+79OK5FN8OIb8TQuxAYlVAjKRsqYDLcQjqOIlV1a9BSOrmRH5pa1w/yis3e6oPAdDnSQJRU3cH6mDTSCSJkLJpce/GNoUPxNJA1QyQeZYK0hikGWV6EUMvSkCqgk2BcdNhDtPTxhpwnjdm7ywuNBQLFr2lsN58V0vBzLeUKOsGm1vUIbJWrAaBhkP7VzAckmDSZz4opsWM2gbEbVaIk2hGj2AH9PQUi+JG29+lCfcQWNOMTeptcDd84UGFZVT0X/qYD/XJLgCLhPZTeSsm1V3qXkmvSAWhihExKZQSya1/tIgR6HP3wrIgXCJGTOsb0UoQQTGX4qCCAQUyxNSBVNX2cCDOhkO6FA0vpKSMNvVGsN8143JhDjcOM432tnszF8xyBMSVRG1QHoUVxgLif+U53jipk/bQ804S87b4eRTPwAIgPIoX/0y7dWIT5m1yeQtclgp8JaUQtFLekCCZSbTfKoQYGENIXhn1TR4LSjoQclWoRoXadmv6Xv0mJxPK4Eqm87IaZFmSVA1lbiWfS9NkX15kS4MiFQ1548rkU28FSfnfdCLanG2FQeISVHy9TyvAveXY8yUYw8V6hv1g0nZtgfq+x9eHNBI7kxJ1TW2RtbO3NBrh0P5ld343tigzIWYPbNnq2Fhbg6znOLI4TuTo3ed4Lrrz0NVPxAF1rovw3/dsRd8zar9Tyg1s1f+Epm5VuCFNKQVVyKwYiCShEDvhRmqWpBmFTk+KWI/AjTZr2mTxhLLlEWCIjT7/PJpCJ1HR89wVLrrz66EqTQevDcJ0ppqtCHGPjhmYP+pGCmz+NRCJx1CblJ5ECHFcSvyWQPNf93359okzbW9YjOf0zMACIJyeeV9c9RQzIK87eng2w0oyTJ8hhDwiJb4IkFdIif1C4rBKJdBGPBetijOMdXFgtZ02rZQnEiE+OpnNj29uTc49sH/lMVsb4/curRTPHOaDzbqR5w+G6fOUV0eKBpOQZowi5S/oJs12s7Um3JQg7iau6W087v8QiP2MtfB+c1ytJnZVdUUHCotMZiW2tsao6gZpmiiR4mg4wKEDK2oqfHxeWwHet8JOc+j96xvzL79hASyRHxd2CiwTXzgfEuEOOzf62ir5ccX6gBA87VIV01zSc+2mqiLVqmhvx1zeiaYxqfuEHJcpJFMgzalLcebFiyw04IxnGPsI5RXxM8oAhGMYLGiweMp8ZzfP3k6lvX5wXIjJKDxgQCkXbDqsQwjWfd4jjwlH79ECr61AQhYS3FBY4eYyqb7+yHMmn11sTosZsDOwAAiLZ+GMnQHTtyEFVvdvVZsHijT7Sgh5QQrxlVLgPVLKLxNC3iyAP5FNekEr5JYQ8q6yTe5bvexF6/jT68WfAngB7lybteWB5WV89vwrXjmr3v3u729b/Aqlphm9go3FqrxIQ8MbvNFXy0CZNV1OiYnieov+uDi9FynGRrMvHdB6mZTKeHJjrJo+ZaTWJwXnMMfB/avK1mhNRTjGB/LsTV4C3XrIbnR4dZ75YGxnb5+KUADprayDJwElbs1dX8hC28goHdIhMvt3imQQM04sQYuN8uOomnVdl0IAo2XItoaoKmB5tUA2WDGsi+60yTx1PUBurT2icu9FJ3TAQUHw9jDmI45Nda+jtK+OIYjYDCYw9EPkeCzUGvj78JSDppm0xIZ+iBmjx4WyfAj8bqsGFy3WALxl38H0e8VFJ7fO2M1gMbDTMgMLgHBapn1x0c9nBkxTGol3HR3g3dRg5uj98d1jEMcUHctT4Hc9PXWSlE17jZBiTUKamvjGg3YVCpULbTw4vtN7T1sr83mcOyxpzGl9zi7ogVm+t9Ol0o2bdnAKh5CYkhgD+qFyz2maYv++ZZ12yUMB5k0OPHJmzL3d80R5HN8PgYa1aHbEhgVwKabdPhinAio6K8VIN8y0eabBXysMtbD5ZoLI8F4k5u0JbJXXqyWjZNd8CFAJCwIIxQAoqGZCmiJNh47a70sTjMoyOJwTePscQPR+4B89o4mlP5BmphNWsJY/ZBHCJ5mPqTNmDip4lMpqa3UTJlUY1Kw6lTQnXNKIRFKnMapi+n5I+UsfmWz93aWXquMXP4sZcDOwAAiLh+FRMwNkT2fXXPpdIsWvC2CDKt4BYuCcSuXRKfWj1zK4+gHWezWmn+GGjlFzoYm+BkjW7nRfPe35S5U9QSmX03mF8XSmvN/RaIClIZUZTlWGhRUixs6vC0Q7Sb438J7hCEMKsaDRChk72gUuwo/Bhw1LxDJ+awXZU+a0BjwlM7LOYRYEt8oWTNARNuggsFneiFlzt28LbQWBVPwiBbIcGAxz5MP9il5Q33UdmqJXgC/NqTQHfW+OLgCqQ04eC/ZrDiy+NIvYW9uAXYNNkXqwOmEMLpHhYyOmQLMVRLtQd0e6MrFmnxJovwYpTq4+e5u6qtoSy4+aPWFxo6eegQVAWDwhj5oZkH/17KV6dd+PNy1eDWBZJGJZtqpwEnm3VEOfCik1AqKRUqVL9hQX0ru+j4czA8zl4SxIzQ2w/b3XtghgezzHZDJX5Z7VlagiYpLgnIP7kFMHSVMhUZd5Nv6gspk66T2UBZ4iBVO1vtDGlmsEfLZDvyCTj9syANzO6c89bPH2NW6WxY8KLaT+TggR1L+MhbRz36LRlSWRoJFTrM8/ghZzF7Bvjbmjr5GIkUCCylIxRQ/SfFnVkTDchimIGCAZN0hrnNVIuQAw0jAE/R6i5eDYyRn3KJuB3WJAUhk8Rhh3LiCHAaHix9CQcka2KoRAC1gLmppWNWGibIpc36T4RyT4qGzkWxuk7z/0/EVo4VGzCT7EG10AhIc4YYvD9+4M3Pver11drbZ/FRJfI4BD9zeLukEIUbayfYYQ1JdBhbRVuVkp5MhYGl2WqXdHDl8fb9iMmQyqDnrTHVDxhnUnMSJ1jbzvxJYyjSSTLLJUVXSkIkhrKyPX+8GuQMgecB2CNdJ+rQKWI8pycPd2ikZSHNjsDpw8eLLnNNdV6oDQlnbBlwUBLmWTFQ3gcIEDE56eOW0+jSq/FZWpjaBAFNXULvR/KRWStIzq9lVeCrC8b6RYGY2tCIyRqFGvqzXiDhxEmQcBFuKLEn/XAIWAAeC6Q4+PLD6zJcBpzmwpDrptqp89g6RnUz2ntpyzxYaqWZmrb6CZA0qxrCUwhsABALdIiWvR4rfX3rH5MRxTeIcvzd59wRcjf9hnYAEQHvYpXZzwTJ0Bcr+q97z0GW3d/DYEHgshbhYSUwj5IkCQV6bqL5sENPI/bZqjSRXXmi+eehYr9rmJDGsLWII/Cjso5RhQzitsUKYCVXM01Hee6/4PaytLupww80hVTF+PtFOTIQQzejViQWAsqPQZG358fd/jhj8GFlHRpF1TQnVxqi5HEGr1Y3DDQzMernAdRS03ME0/hqqUULINCtW0wHBZAwJSArQVRFPpFab51KmRekWLAeWuJEizAZKEABmlSPZbTw4e+PPuFR68JhFLOdSdEl36YodV8GDCS0zsErLTWF2BkyGEJt5mKtA3GyFwn5SYCqovAvn2+Sz/tcNr922Jp2N8pr6ri3GdGTOwAAhnxjosRvEIzID8zWfns4v2vVhI8RSRyNdKKTIh5PlSkg7BtIjSnSMt06veDxeLZ7qDuLBP6E3ukrEQCPx0Wcjt8UzMqxrzslQpjYowT3Q/iJXRCBm1lFLZCnqCPPsgWqEyO+3IQ4OkjzX/1+sDtCev3NKwak4AbHaxijp3w583Dp30aRaCYEHgklu0s/sWdKrQjF4Y25tTL0wjJ9iub0TVbrpGSQQQCAnQnBI5QHqEcuoFg1ZnSvmCFIYgIEGhiGJUIM0ciWRKbVuBga/UyHUAgYzCLgDTMJi5awwroKIjPNQQqFf9YxdHVyxocUU+Ay2CBxN05QmAu5JEvLkFtlIpPz4ZF/945N57p+Kqhd7gEdhy9vwlFgBhzy/h4gYeygzMr7nsaUibK6VMvlVAnguq1qjrHhjnT/1uGj2pXd546vIeAZxLkXvSvVnb6+nw/loI8disx0s1Dcqqqk9uTuh8lLCvWIKiyHFgH1UD1NH1WO/grUUfK+C08oyc16+4YRDIXNooOrtHa42YZ25ukP5CXPbOtIRsGqyoPhWRcWd1EwKgwc6h7sVYMq/fCMiYoB01t6t96xvXmFDHU23u5iQ2ZtejNd6//W5GkYOUxJ9AXWnAQD8EGJxWgQExyn4YLGUqJJGptAjbC6xBkupeHeyWwlTJnpLL7B5ovecU+VAdID3otAJB+puu6cRLVWjAQevXUP2OKIGlE5URAiWo6ihwUrbt66QQ/7j2vM3bF10ZH8pusTh2ARAWz8CjagZU7wckvyElvtPExZV4SxswuSGpDS5ATZ1oA1dbvVRktTwhpBggkTmkGFBXSB+LD4xwYOiCUHMiVOdI1VK6qmVZN1tVWa2sLg9TioPXTYOlJWoQlXXqG2j70NfzQY1RdZfUtka7//xYiv5bQaI/1Jhg5n5ysaGVyZOHTa2jN7fJGRU4uG/JSjOcgLNPW2AfqmAcLNTNwQ9/AOMwhf3MhXKiQL6dF3sc9WnYnBOLsKHhie4SqlgBuhcy+AQIrCaBAAItfUsKFDMlxNYQoCDGQUn6EoG6ki4bwuLDYrhizk9TTuIGQiFWPWpElTabIrzJmgiLAAB4pYEtTxHuzVpPYBdWteZg8OoEBNZkS0BTZb9uCQEqUf5pAH+4uj/99UWNg0fVNvew3ewCIDxsU7k40V6Zgc2/ednBQVH+uYB4FqgWgsDQ2Fcq21wKqbh+6ixJ5qWVaEsA21RkJhFiv69g58WLnA63HrbqG6E18hm9aNOyxM5krox3miZyZzLfLrJk5eD+lSTPtFCOPqOiSIGQsVM4iMakGxwbxQD92wQOVCGcIAcgEChGRYdsGCLUUpiRCGBW1phMZ5jMapVeefjACqur6LePWOOgDXdoFT0b0v2UedJR/gJLinA9CA0gs/0nrGU3971d3oJJ/Rlf84DCCyRQrH3qoWl8qUWLVF+CjlEzZ46j2aTmmCq+w0I8tgayAR451VkY5GhI2CBSxbZk9MeEEIn5Mi2JwnAU8EhTrYEkO640hUyE6PpJzqBKievHwcCCGlKo9syWXTAlwel0FajHiKqaJe6SQl6XtnhHA3xo7Y7NTy/CCXtlZzrzxrkACGfemixG9AjMwM61lz79/t7Qx5CiRCu/hgoUalOkaFlKd1QktGoIRQHqpt2BEOsQeCKvc+TVBlqArr13m2FPKWlqPy+2dqZyOp8LcjTzIpNLw6KezubJ8vIwHRaFBgVMJR/qHuxVnFCvlpDG91WTpTpQUJ0g7VlKqhCp8gasGDBgIAzXQAYsNOyGgzAVGqnbJd3VZFZhNptjeTTAgX3LTuXvvXqf+2dKTGqBRQ/r4ZMz9SL3AaE+1sHpKaJnQ13FFK2y15s19yoWgVpD08cZ2euEhKCGOTDGnRgCZdfNv3ndK/qdxIsEGqqZHrX93IYrlF6BWAYCEglQU3uvlr4jsLQyQlVOUM2BYpiiGB5E0+zIpipVsU6IRGYZZdJSRKGRraRkgxbUQ6Jtp60QBfUQoT/O25ZaMNPVs4mUMgOqk4lIzqO+WELgHiHketM0BURSCNneIIX4/bWVzb8Ul1CYYfGzmIHPfwYWAOHzn7vFN/fwDJA1H1/z0i/Nk/ZrpJD/BsALIZGbVk+phFRV6IzinOzDXP9P7DfSOKuTqwQwbnVLatr8qYSB0sWLBCVR141s053JrKlbOU4htlrZri0PB7M8T4/kaZZQvVvtSu7e1ZAZU+NmWiWhC2/Y9Hw17N0EfnGYgi+hM/iSNAdzzMq5AgjkeVN5530rSwYCeZE8N/ABCDHmP0hdjNI+beC+P/3Rbk2h4DN+5HjKo4VPUlbYqm5EJe4zBluHGAgMkP5AQyoSInq2gMIO5N/rRTWgIQGyAihnOixhsh8VcBgY/SKdj86rWoMnXs+Q5/rfBEoInKSZQEtcVEMFm0BCxVqIZEB/I88/TSGKYTYXaZZPdmZJRk2zM5PxSpgjE5sEPuazdiil/HRCQFWI7awQP5/l6UZdVlWa5/shm/bAOe3viovU87r4WczAFzQDC4DwBU3f4st7fQbkW64sZodOPD9J8Hop5UshqIETJ7zRCiU3aNclsI/cOvpckmveohICnwHEAUDuo+rIKiOCLF6iuOMdQNxeVs2HsxQfmU7m/5xmo88WGS5Iclx8f+non5MSSwaIuPI7QQpij1H14QCe+mesHgsh6L/wkshaNh92a7THGLZbStUUamc8QyoS1LLBIC+wujLUfRuMNfcAxI/BSxx9m+ZeAOJS+3n4oFd02SmgHVwj6oJJHjgVCqzlGFvzG1Bjy6UzDgkMtEBNxt6ICFVoIdPyAQo12KA+hRvoM1VskYCDYQ8ockBGmow8AQcCHfOpBhn2RzEKVpJAAkhSr5h0S5VJQaAjQ1M3aJsKuU21pHUZjECkDdU7HKjeUzo1U13H9maoSif9qCBAWobfvD918w2378fOolTyXt+NzrzxLwDCmbcmixGdhhmYXXvpyyDEFQK4QEpcBCEplDAUEFsS8hYAT4AQ+03ZPaJ+qRkCvT8nIMTdUuJcSBxOEmw2wG8mwI5Eu1lXeO/KV7/rY/aW5LH7AxbH0M6uvZTCGn8MyAEglEjSNH4iG0ibf0GoROsdtFX26v9wgtSnNgPPHWmPifv+MkAQ4CDVvxKzssJ0UmIyJ74cOHJwVVUbpC6SymCasXAQ48WNfV5/mKngzxCmSwbixJ5CTuYWbb/JYAIsCFJ/VBqBGbbq61E2my75IB9B0f1krNX/KBWFJpci/STErLUxpx/V8yI3jAKdr9GGXQs2NWah0AP9WzESrBqiAgjmhzSLpF5R7IICAEImqWyqOTI6J4EAOi/1bEhSiOESRDlVWtXUgg5iuqiOE33e1phTzy7qvpgX+OW6wY21wA3Tbdx2yVWLcMJp2DbO+ksuAMJZv8SLG3ywMyDfcmWKI/eOdqbNqBil58pGvARCfLEQeJZM5GNEK5ZNKWZKMyuQtNemUvxnKcRFNdp/SZt00iTt6mg2/JB4xdVzKY/d74ceU7oAPobtv778SF5MrxJJ8u1SyOfpMLo6yqZaUqe9Va1D9EJIX3shIPZbbdo9hFCxBmPMeTpgx5B7e66+XdaNYg82NneU8RsMMhxcW0aqcgL5wbF2gRlFXyhBMxVRz4ZYDMl1Ctq+x50cWYZI77l8WMZ+V4oZxvITaLCFqtLBIssaaDmJvps0Q0uTRx0KrBFXIMiEGIZDULEAWc0gyIsngOGMv5kOrluwqZMKQChFgWYX6He6TxV2SNHWFRIVsqD7Nd266daKJZWdOa1r1HWFTCQgNuoGCTxeAu9PElzbNpBphhuXhvj4oUtx54N9thfHLWbg85mBBUD4fGZt8Z1HxQy85S1Xpleu35rg+VUxP3HocVLII5lIm6aRx9NUPCabV7fjq19yF9724SGu+KuptV8PlGtOQKQ8eO83Ik2uQIsrpZBUw0+nKjqJu01bNDUKWK0BFpVX9tXwC4ZIsB0TtenVIj5duTAEETr0oP6fkEpzsLk1RdO2ujxxTl0jlzAkq6ZKP9vU/9CAe4OpraDXBHhoYo+JMx14FURzeiSJjtVbgUe3zLWh8HkhAJfFYHoSiRZ1cSfq7DiaaqwYg3LWKq2AmhUTWqDwPxnvmviaKFOBKiwqQEZsg55C9V3LMtA9ZakJTRhAQd8hIEEHNi1krRNWHPtQUDkFCVREzhDyMNjGBlqoxHeSIa8ryERiShpIIfA3EvgAgKcnEn9eJfjoha8AMVod4PmoeCkXN/mIzsACIDyi07242GIGjJn+m5cdnOXV1YmQTzMEwgBSViaFMrUyCOuBW+/aBhosX2CyJhwY6DPLCihQTX7djEoNwGYFkAGmIkjj8VTVaKCcfzpk/9oSlpaGOjPP/HS9e38mdpDWKrCfOCvBhyes2dWgg1IEy6pGnpMwwIANpsHwc+BzIfrqJkjRoB7cgSZd16NQYYIadTVFNW9dHYSBMdgkJFSUvgkVEEaj2+bFlFSKpNEuEAiw2gIFILR8Q/0vHwgUwwRN1WA61t9RpZyJQSg0oKCwhJoii+GAe4TEOaBqhxnuaFpsCqlw0l8BuHGQ4oOVxBM3JD71tCtgbmrxJi1m4F9/BhYA4V9/jhdXWMxAMAPXv+Xi4sKD51+VJPLXAaxIyPt0doQsbIMFYwyVtXahAZP4bmye6UloKAcdnXcyBStE1MbLcNzWHlvLROBgMldNouqmRp7lqijS/tUlFIW2agHgCJo5Ob1icJzXA3jtQahbMAApAirUcnA8maEsG+xbGWFQ5KYeBNdeMFaEja1Tg0HUqAafRptueNdfQaIWbVujKanfEc1Lq3o2UBqjovxNoMZmK2iQog2/qpdAYYlc6w9U5gKJFW2hJWIETGXGfKBLc1JIwpZ6VtoFU1fBshIqK0bgQ0LgnQlwkABBI3CzKLE5PIR8ZwdbT75cCWE9Slu8S4sZeARnYAEQHsHJXlxqMQM0A/JDz87L7bXXQsqfUMBA4KSUxCrjkA5PGBo/KrVrVAozsfJ9jAAAIABJREFUCZFSbyHVsMmFGJyzbCbZx+6VoTcgwQghtdC+lWJ7PJPzeSWqpsG+ZTLMmeoDodoJujNpZMH1Ahw4BCLBqBU2zzpw57NjsSCBLGDb4t71HRWvP7C2jDxNXd0BDpLCMfnMh1j8WBV3ocnvCR84ZfkpvaRVoYOmnqCuJapZpQWDZjekysr0QwaeMwd6HoG00BkGVaWbPSnBosmCsLDITR8JG80fjebAhS0IINx/3LGswG+lFWbnX0ENlUK9yuKNWczA6ZyBBUA4nbO/uPajdgbm1x39YinFOwFxjjK/VDtBqOJMtS7u68MB1o83JpvaPVLKgw3Tm7RF17snqkSoaizOhepj3FJJP1UZcVY2GA4yub41EbJtZSpScfDAshImxgWUdgcDdvlOzRbEBj4ujkRoZV5W2NyaIE1THDpA7ReZONFwFDy8ooBWb04DIJM56sHtaFMttuTJGpYd0H8mhSAVmJqhISSgdAg1kkSqjpCqboIJLVgQQCwAaQko/bAmhoBCE4wZsCCCZzzwiIsKRVBGBMklgCkkPiMEXvOEK/COR+3LsLjxM3YGFgDhjF2axcDO5hmgMMOTD5//RinlD1HtBUG6NIF1IQX5p6tKTE8WTMvqVWMlHWFw1RofKLOASjwr4SN5qkKIAX15a2eKyaSi4k3KaydmYTTM5OrKkhgYvtxlGrisAWX2di3frD9lxzCGwOoNuuyDt9xUWmIym+Pk5hhUcvrcw/uMGDDUS3g4wntNeE7BfZ7MUA0/hVZQxWLz4+UOIc5w8ZtUt+hShQ90KgOVQi5nY5TUWskIFEmXoMSGxCCYmgoKrJDWQNcr0BoHcxpbHZMAhgpy6FCDEZRivWmxnSX45se9Au8/m5/3xb3tzRlYAIS9uW6LUZ8FMzC97ugFAuJ1osW3Q+AkgA8IgQsl8FTSJmhgQOJC36LZZgJSPSPV1U+VhFaZCMauO8+biuhQuCKjcPj/z96bAFh2VeXC39rn3Htrrup5TLqTNCEJCUkIcxJImKcgM4KMKv4ooIgDDw0YcHo+FVRwQEUF9fEMDig+EFE6MgQIiQgCDyQMZuykk05P1VV17z17/b32cM4+555bXdVd1TXto02qbp1hn7XPuevba33rW13uNqamOnzw8DGTaZdqBdE3EPnk8dFBJKnIAFqjhivzML/fT4WxvL+IFblkftU596z6bQJiZqaD6U4XRydn0EgUNmwYRUPZ+r/Z0hplaFBUV+j0oCEpck1H41DOuiID4W++/GSxRqZnoLsaKrXtuLvtLnSWYXqqAB8mfeC+TcNKB7ll6cMlKp0O9InSZpKmINM4qov7AfxRp4N37Xke7l0Fj3W8hVVkgQgQVtFkxltZeRaY/pcnnksJ/zLAl4BpvQb/u1L0SGYedYqO/qZEnMmo+MsHUp3nXJJUJhgOvhFvKtbHToVAFsTMU9MzOHREyhhtbkKAQbOVYnhA6vKsbKBr/ORO4UmIYQyg0CkIKxGqgMKOL+At5HIORSrC7EPA4clpHJmcErlhQ9sfHxnC+NigAwcuuVEiR4apB9NLS1ywsxEjE3DQvBNMVrSgBAic4azuREGyLAUXwr+5mkibvLHtsGyTz7aJvsxMTroqBdtgy8g1S/TAlUa6kkcNhSnOMJx18wpOMmWUghgYGRNubSo8bdvT8b2V9wTHEa9mC0SAsJpnN97birDAkY8/ZXOr0blOM10Own3SF8KSEHPenLinzCoW+N5Erp0wY4bBdwLYJYEBIhLXY0sQGJicmsHk1DQrpbKZqZkZpuTIyPDgTevHBh4Log3a9gAUml3u1N2h1sH6/w10GPxSO4/Ou33KIkjl3H9+soL7iK5rIy3gRaCApBekW6QyBMW6NIIbUWksRapCfspaon+w34s2lEstgqfBA4eQk1B6WNw4awGGM5CbDefoteEv2IyQYu52KGlIuWNHUhXMmkh3WXfaLJ29fS8rqe2UZmGfThO8fMuTUGFVrojHNw5yFVsgAoRVPLnx1laOBfjGp67vdjoXZhkPssajSOE1YNoMEmCAfZppvyJcJstl4xJNq0aaZuimiyYcAzAAkOgpSE5/30yn255ud8e6XdETpCYp9aFE4YMb1g1lA43We7TGQy0fn5O8FLIoqnQYI6xm8EvyAiJUyyDDLo7Wj3oeQfFVI9cSDsTRo9MQcGA0BxLCuvERDDQTqzFQimeE/STstUPOQ/E7I2vch27rzpwF6J+AHAiEqKb6c/Bt6H/MSY4eNYXfmHm0QT50pQymAXeqhVMigIGoATb/lWk5hiybgVIN6G42CcJUo9G8V2fZAxnRj627bfJrsTXzynln18JII0BYC7Mc73FFWYA//pThY62ZC1KtnkWkbmtn+McmcCYr/T8YuJKIRqSDpPT/lUUzmA9q4AME/Jyi5PPT09O3Tk53f2lypjuCLLuQu/qbajC9vz01OXneK79xYPoTVz1eJ+03ptR6HDPWWQcbBtqdgw6kjXOH3aPoWEk7VCINVYAgq26RdJZ0R7ttGxlIzcbY8ACGBgfyNk5FNKI3CGDGWtVkEHGk5l3QyRGI1HLpdoKoRd43IQxw1EULgv4KpeiHN1MlGmHwQ5BBcZUpbhyGnuiUmAwTkgjJNCg5xOgI5fG7itX7Ogo3rH/EA19dUQ9rHOyqtkAECKt6euPNrSYLGODQ6JyniC8h0CMI6p8kasCav9hSG+452r3vGZzyJ0evuuGAF9fx7RC8HY53kFS33HJZsnvy/huGsp0PV6YvoXfyhbPPV94BlyC0ZZ56qDFwj6Sy7+NgFAo1Djwwiel2OycIjAwNYmx0AMq3UAwAQFUZsqq5kMcyVIZO8zvg9GhZSCDQIMhxQpkKkSOQHqpECCz6PEizpSCMXW1v8GJzOgcMHCPgm9C4mEH7iPQnG63GW4YuuV/SRXGLFlgWFogAYVlMQxxEtMDcLWCIinuvSujqG4JGw3M7/vYbdw4OdJMJzvDuUex6mOLkLJOtMNWQvX0WylLGFkqY1XK+Ag8bMoV/d5yG4BtG2hQeOXYMk5PSVtG2npaogQg0paky4kw9GglBmsLzJAp/K5ZwotRGPfG/TQTBD7AnrVCgnnJYwje3ctGB8DjzUdAQ00cGcsffL9LgrhVwHUJahb9RuxdJJ0b6RKLp549Npd/ZfPX+o3ObzbhXtMDiWiAChMW1bzx7tMCSW0CiBvjQBemRTQfHjgIbFfGPpBh8ZRMTaUMPjRAalbrEQmK5RDzMw+tF+aEFCxk0ZUi46ULqFj7IXolKTCrhyLEZtLttW52g2lBphsF0FCMDw6bcMuzfUC6nLF8rTC2AXAMFVui0vgspbzT+1lcoOI6ABzSl0EIpVeBBTjBVFa6Bc+Q5+JhtUvsAEyO/7NIQIpNkq1LMZzRD4CPM+Ep3IH3VxhhFWPJ3Jg7AY9doiWiBaIFVbYH7PrXjiZnOHgbQHiY8h0DrRLlRUcKDeotqYNiIOFYj6tUeDmGjJxEREoEjGz6Xv2RQSINaCLuyzzTjvgeOAq0jQJZiYFAhax5EOrMBI60xm1bIyxT9NBSkAKtlINoKVuExj10EYKXb2G9KG6XksYdcWJdiqFymh5cQGKLk7N3JS1GEUK4qKJGsRhoMncOiJs+PyAdLwEEGtaTqk0k/Z/wRh6V7Y9yiBZbcAjGCsORTEAcQLbA4FpCI/b2f2v4YgN8NpnOkA4EiGmHmxFILhGM/QsN6Wy5upB2ZznoyKwwUEg0NMBCJYqvs6EL14T7eY1ot4ZnpLg5OHUBz4rBrVkRQuomhbDtS09TAsvt8nMBEAIIwgHRmtOkPD2CKckz5WKtD6LZuB1S7ADh9KhWs07Ye2kcZahy5PU9wjkqwwQYTgihFgUrcPOYopWBC9nAR7DlkONJlU+oyNzPjAaXw2tFHHPrrxXki4lmjBeZngQgQ5mevuHe0wIqxwB17d1ySkH4nAZdJut+sYIkyYj7GwKjU5kkUoKXXo8njxvELIMioA8WJiwgUt9srjlQjNuS6DR3t7kdGk1ZiSM1YBQej4iClF0MY1juso0Xiog/yX9tUqi7d4IFD4bcJOjlseAeSsrBAw/6nVuMgBA3+lorVfK/D7wmnOGmFEBhUn4QKH6Ga6qiWTLqogqM40GHNfLtiunbs0Qf/fsU8ZHGgq9oCESCs6umNN7dWLXDXzduHkkn82PGM/zvAGCBQl4k7xNSQIn1iFklAu1g3cGCACYlq8AgSNKAwYD6t0yMo29Su/jOaMf/t8CRmpkSP4CiS1ozrK2X7JnvnryjFkN6BBgZcikJKACWo4dfqPp5QKCSWl/xyOm26NUppY+0WLvuDzIS5X9fGuee4MIUQgojKjlW55iDbUQAUHzyolFj2yEwAbRvFoHsJ/OejnPwaPfrA4bX63Mb7Xl4WiABhec1HHE20wClZQNIK99y4ZRN11ZM1q7sU9DtBuMikvy2PXry+oQdYdR+/6rYijabpEJpo8ThSHoUiUTW0HACNtgECCQ8aZ67RgaY22nQYGUTaWNy2qAkWotBFmaKTKpY2lVCQtEbCw3bhrzpQ2uMV+5UkUQfbZoJBWsiPvl5Q2k91kTXuRyaKiapT0h/IZZSD6ID12oVZTULEdYss7j8obOgTPTCnCSSae9IQfcoiw4qH0uTa5gzHiPkzRHg8A19RnexZo5cfjT0ZTuktiAcvlAUiQFgoS8bzRAssoQX4Oqh7Hr/lAspwjJvJRcj4GlI4nxlnA9gaOEJfbqdFE9gu7QPun3Fykmqwq/eEWxAeQMrD5rNpdR8UtwypUcCBkAg9R6Gn+VG1r4E4WAUMNDSa7Z0gPZRfmCRaYUL0Fgjo5Ji5btIdgRRh5OWWppzxO9CJdEqqVHm6+6jL9+dTU+EHeA5CDiIqfRosWimnLXooDh6MuH17HgMyFQtGAbMKEJwBRPRK9hlIwK8aedThDy7hoxQvHS3Q87pEk0QLRAusYAvs/9SubVq338dMdyHhezjDw0jhYWBsrnFYoZCB/bNzzsbZB+kA7/RtRYOLDBSQwB7r9rc/BvF744wZSmWmqQSpzDj6JNFQ2QiUHgbpFlQ2JmrPlvxIVl2R1SRID4DyTIhEDjJwMmUAgqluCJc31VC+d9YhIHD36cdsfnWBiRLp0O8XOv7A+ffdN7djrqpoKBhgCJoRhFXSX6gAGenaeSuIf3DsEUc+u4IfxTj0VWSBGEFYRZMZb2XtWuC7e3cPDNL09SC6HMAhgMQpPQhgW3sYqvpVcvJB6V3ZgBUHbEBCpd4gjx6EDtmF75NUo5lOo6sbSJOOISrmFQKmEWMDaXsnVDaeCzWZAAIESFhtBFsxIYPvmmoFrSYBkgZIvq9lueIg9+1heWNNyiCMHPSLOPSQHfPzVDy964Zpu2LK37quntGbfkZUsYn1JIhSgKR6IxG+qEUSUi4KpQnZf46ONa6k8+5zak9r93mOd748LBABwvKYhziKaIGTsoB0YrzjUzvPTrpZWzXop0jr1zIodc4thwI91QG+WiAPy7tSRR89CCMBbmTmHAYIFOqJ+aANXUDaHjOklXEiUYMkQ6JsGiCUG861BSSa0NmApLPJ9SpQhnsg0QUbIZASRyu+lDX2Gd6BbT3R31RVAmHfyoYQQISEwpLvt79Ig0wbGZm2QQAtN5tJhynT39lwNEg4FEOmIZMZN202oAbd+0CtPUBXA9L/mafB3SlAS8+IY0zUlDaQCVRXmj5+vatbL95wxdGvndTDEA+KFlhgC0SAsMAGjaeLFjgdFjBkxE/t2s2UbSLOrgHjBQC2gzCaN1DMowa+UbQdmVm0uje/x9n6VEPwh9oVtjteKUs+9OdLqIsk7cJ8XjFEKd/vxmZYB9kIku4GaHXUOFXV3WAbLslYk0mTWtBqyjpcF6koSR0bsl+5zLEESipphhJpsCc1ISEMASbTlqIhnE4thElANcYBkn9jgHTV7t4ONB+CxsSLzTHJyIXgbArcPYSkdQay9p3QU19Cc8trQUkT3cnvWiiiUtbHbgP4iCbMTHUnPzeUDD+FeeZbfzB46B9+kh5+i+RZ4hYtsOQWiABhyacgDiBaYH4WEHDwwC3rxmaOtv6OmM4GYYBI1BG5WRXt8ZGDHidfjZL7IQR9B0qjsiIFdkUtf5D9CEiTDMqIFKUgcqH1gCxoFt65PoAnRDqhosA5E5q2WkHOrweMxoEoI1olxWKrde7VfghhOsVHB2r6KcgNkIlI2DJL1kdyqUNqPdxev7MfavAyJMOPRjp4kQEN6ehDgHQUyA4hmz4ISlKkow+2DEw3AXrmAXB2DMng9hw9se64CEQbLG2fW+tsBEKKR/TMERB9RCWDP0hETthhfs9F3DtaYKEtEAHCQls0ni9aYBEtIC5236e2bpzOMDwAuoEIu8rUt0JOIE8rhJyDyrLervytOFEVRBS/Wz1FiQqkaRdaQupK+iyIY63ZquCjSiY8YStljzCKCgIXODAX68cf6CEPur1FDMq2W5Zoh/hekW2eBne6QGMUaugK8LHPoLHxp6EGNgPpFjTWPQncvttUdKiBbaBkwEkfapDuAEYFkpAdvQ3MXSQDW0ENqcpwPA0DBizwgFLm8gYgJJKKkN18hamtLgV4Crr9VmQzn0Zj7MsRJCziSxRPPWcLRIAwZ1PFHaMFlocF7t27aaSr0h867nbeBsb6Upmic/ZVxrwfueURWJRg3H7fhL5N0gsQaDWnoTMFlUquXYu+sVNGdKT8oAywp1dC0CkxjPRX0w2hZc3f6kBGhTdQEh3K0xyOJ2E8sjjmaXCWgtK2SQOoxvnQ3e8hXf9jSMefYtIj+uAnQIPnobn1OVDNCYA74GwaJFECE8GQwUhFaGY/TwYrfZwd6goiCHKObOpeJINbACEmSkmmlkEmNtJgohbud4N+uodB9Gp02/uQDn6ViKJY0vJ43db0KCJAWNPTH29+JVng3n/b+aAu9FnU0XdQSr8E4u8zLrxI9+dihJZPmNcNFICghnzolrTOGdr4fKtp8+6USGQhCDsEAkQF2bCsFWDARygo1LP8zxfaJQ2GMDpQHw1ws+XQRUGalPPZlTlnR4EssyWV6Vao0WejseG56Nz/l6aUUg1fjaS1HmrkYqRDIvfMyI7dbo5Phra7C8iCXruUgSdtBKqOTqvBGkg+d/v7vIsdCTiTiEHLndMBAqcvUarRtG2cptCefAWaI38n4Q4qGX0lPaVxrKvJAhEgrKbZjPeyKi1gRJCu3rKLmF4GUi/XrO9Qih7FLLT5yi3b8L0XQwoW9GG0oMg5SERAfJySlbJShk8gzlm5zoih4GC+qPcL5uDbIw9EVL5RSoGAPuTIOqXB0rXCk+T8BimDlGoBAus2uNsR/Wg0xl8Aau4wpYTJ4IVobH42VDoMPXMfiFrmHikdyUWmc2ECSRuoXH3aVkt0pg1QMOWdjZHeZ0sIiSZb0AK0KDoKmEqFhNj/OWRBLxJOUK0CJBiDat0++EHVXPcKMmGauEULLL0FIkBY+jmII4gWmNUC0nQpJf3rZoWt6EYwP4sZFxNR0pMicPl9zyuwq3mbVpCXXbPlE0gpIklTJqWQJEKa96EBcYi50E/xsY8ChPyBKqExAA653kEeFghX/8Xt9tMaqKuysJwKSR1I2L8L0BCgu6DGLjS2vQWkZ9DYdA0oEQAggxOtAQVuHwI1hgHlukf2WLsihSjOXo7PuqaCQaVDFfBgQhXQU/tAjVHzL6+9NBGFYMtLPOw1uH1AEg3Tqrm+BWbXLtPqKQG8F5ReQ0ST8ZWIFlgOFogAYTnMQhxDtEAfC8iidN/erY8D0RuUgggGjGiNzaSwM4welEL6gb/zPAPhEjQMwVBaMtmogTD4S52L3LeBocxVOQB+fCcgGPYtIQzuLyRD9gCBkKhQqUawAkSilbAJydCj0Vj/ElDaBDW2IB0z7SZcasCv4IWUqIFsyq7yXRqibGpZrIdOXVID0n1SIgGJBSOGQxAgJP+zRB2MIesiBv68+WQYq3JnMmPoIyodHgJJqEEQjEkxSA3n3uO1nNcS0U3xhYgWWA4WiABhOcxCHEO0QB8L3PPpLWcTJ89gza/XhLOIpR6wzOQvlTYGb7QnJCRSiphoJMqV15f2KXQR8nbEAc8gH1aRlTAf5X48JCj2IxaGB/gTVtIUpRRFyHMwsQ8XcRflxbFnobn9TUiGz3apgpAbIAdWVvDGrwd8gvLyXsiBTsxQRIwEDPjj+3w1ShWEAQSOe1CyhscRGVgiGzn/wF9Ua+52tG7fnySSskhHhEJixsesO0T4Kih9HoDbYpohfiUsBwtEgLAcZiGOIVqgYoFvf2Ld+FA6fKlKsl9kjXUMnCPNfMLdwvB8HtJ36YHE6BRoJIkVLjIvuicOet5C+PZXHXbAI/TZh1LlQbjSr6z6i/4Nbt0dph6Ca4cgI/ezOTiQagkhG7aA9Exw+3Y0t74ZjU0vNaWIIjxU3uRAV1bY8zTJ53K16tedlDCIJkHblTG6CoOe42Xx75CQFvqAlElKisNHDirnzaTqY9pWRJQBCbPWhO5h04BKNaUHhUQ5MlFXPKaaozcC9LtE9OH4QkQLLAcLRICwHGYhjiFaILAA770qvYe++ZtE9AoGj7kltBTO176vnmMgOgUCCqQ5UpKKGmBZ28CmIWz+oFZJsZYMGPR18iRDn4IINQlqIgw5FqimLGqAiQUVEvNIwSytCKQ08SKk656F5uZXQE99F2r4LCSDOwvZxtxmNsLAnWOgnEzoQYHlC1hlp0LIyDh4cc4CEDrHoAbWB9oE4WRYcSfuHgMJF8EBBT29H2pAMj51UyLn7YIM6bGMEOxApbzBMiLZgKBEw/yQfOg4ynkbgO/EKob4lbAcLBABwnKYhTiGaIHAAnffsOOFx5ss/RIRHmT9rqslKK2+vbiR/W/ayJAmUoFQbt9cqnLwzRj7dTAMZ6FCRrSOrSas0MMTcCfpQ2YsRSH8riYNLydPIQqEjYknoLX9baDBs0GNMZOqN5EEnwIoEQGFMyDaBANBKkGuIo2Q/AW8KJH73Th5FxUwH3nwEBqADXfBFhsIF8GlOVxZoxE9KlU99H2EQ6u5gUGaSmzM8xRWvUkxuncTta8hGvlKfCGiBZaDBSJAWA6zEMcQLVD4LnXPp7b/M5ifaFyXFzYK/b6JBFgvL5GAZnPKqBz220qaAm6l7z+bNcxfhwdKokjBFSv8g/D8+cgqx+YqjtmM7eCotqK5+Q1IJp6ExsQlJ3gmiqoLs1o3zRJEcyCsSPCoxp9qrl93Ah5E2EjSCQ0XWaiPFPQJ6sw29kouhLuczRwkUuu6Uwe+lbbGf4gaQzfGFyJaYDlYYK5vzHIYaxxDtMCqs8DevUgf3N2+fZq6M8OyjGyq8zJWfwrms3rUEJ0TlhI8L33cTIWAaKX786VqyDFwH4aVCf36MvR8Hvr/Cn+hXylkHzqCPVOIYWRAumvLL9OzkY49B81NL0E68RAPlfqG761TDqsP5FyiY2B7OdRyDapNKuqzNRYUmJsTYqNwDHxb6Rry4wI8jcx6CrojEzhIKpkCpS8noo8swKnjKaIFTtkCESCcsgnjCaIFTs4CtiPj9pccZ6m9FcDNJixg+hskzyewiP8XUsjuTU0SRqraQKKRkugaVFIKlUW98cseJJif7S+zlSPW8hOq6oh1C/VKQ6T82mEawoAc15VRbQal6zF8/iehmgKPvIhDVUvAVxd4hOQVDB1IMGORVb+70MlNhzuqH6HxlE7a72APmYQk4btSfRvAVUS0f1GuGE8aLTAPC0SAMA9jxV2jBRbSAnzzZY17jt35TmJ6rda4hRTOIcIQa1OtYL1kQP5rJDNIUmmaJF0Oe1o0FQGHSrahn+5ACASq0sg5V6DCW8jvv5JSyH37rK2X7cpcogbNjT+L1vbXQDXHAVMOKMJEbas9kDcycuhGSwqCbc6/VnNgNv/bp/TRHBIQGfOIxJJ8Jcog/w3Ahe6/ryeifQv5rMVzRQucjAWW5G04mYHGY6IFVpMFJHpw4IYdO7qkf5UJzxZxQwAtofGHTZSMDLJICDemDc+g1FvJvb0l4l+upFhupORtV9I68B/2VC8Emsg1RvfXC0FFfopSGsFH/OWvEu6YAWeM1vZfRmvnj4JSBwwE7mQd6PYhqIENgRaBv7hphTgPcFDwE+wZqukBN0gBJD1aBSf9lNXlNuZyMjnuNgDvBvAtGWwsc5yL2eI+p8MCESCcDivHa0QLVCwgHRmZ0vczcAmDdhBYyt5U3uhPaSSmZNG2WDar3YD5F67weyoVKpl4X8LfjyzYMzkVImMYyKh2UAx5Er0cBp8SsMAgGb0KauAypGNXornlacFlBQC4kEhYirigT01IzLAnLioRFvRC8z2ZTO5fA/grAJ8HcB8RuRzMfE8V948WWFgLRICwsPaMZ4sWOKEF7tq7fSMBLybF7wBjnXOypmdiKikEkuqEDlQizYiCVEL4tgbFc6WKgboVfDCiPK3g/LH5U/VboObcPcCgrrwxiGhIyaJU77GeRNK4BOn6lyJd90Qkw3ss1UAaJpVO6gc0j68kERiSUIykJUpbQJXMeyHU3WTdzZ9w+hZ6B8lz3AXgfwJ4P4BjUUVxoU0cz3eyFpjH23iyl4jHRQtEC/D1SO7dtuPCrKsvVAoPJ6ZXg3hM/JtxUxIpIEbanDEVCmEvhL6EwoCfEJL3SymHkFxYAx48YDDuOQAG+YxV0xg96YiCW2iDANqOX4v2TxPNbT+D5uaXIhk8wwIRCeung31Qz3yfE+mz4PohGE2CfhUM/YBApeJwvpdfmP1lEN8F8H+O48NfIqKphTltPEu0wKlbIAKEU7dhPEO0wAktcO/enXsyZL+qEvVJ1vrVAB7hV+6mMiHtIFVS9hc0BnR9m8PUgl9092gbuBFUwYEfmEUh9rewqqEHGFQ6NIbnK0k714AJEWmSDtRGk4DG0Nr9+2joDTzVAAAgAElEQVSsf1ygKDjXNP0c95M+CtJYScobe1ULTzAnc7zGCWd23jt4mObrNMXEUub4LwBeTUT3zvuM8YBogUWyQAQIi2TYeNpoAeN8r0eyf8v2hzL4As14GwkREdhyPKQ8IA43SdtoJJnR0SsrFYYeP/jZnNTRESrVCmEPhDAa0M+x14KMMFXvfg73K1U7lK5vkQXRBNKNP43m5uciGdxWI4vc57kwOgaiO1D5SvLtnXMAUDPAfpoG5lJh2aLY2PMdXJfGanvm0/PYhjch5Y3y+yEAjyOir5+eIcSrRAuc2AIRIJzYRnGPaIGTsoCkD+743M7tjZnsBUz4URDWkcYwEYalV0KaiFyvzgMEJccfSBWXdAmCEH8P9yBc/VfAQ4lAGKToS2JMYQVEDkLsSrv2eG8Vs5Kfhhp8JNLx56C55cVIhnbNwWbOYYOg2wehWutqCBEanElnRNO6YA7nzAdVDsX40IsW3oLYXSSUg94M8zjzAux6DwBRdZIbPuz+3Xw81fBKIpLf4xYtsCwsMJ83blkMOA4iWmAlWEDAwd2f3HZmktLbibBBa1wB0hNpkkHaLzOT6bTot6pWQW37Yxc9kP/UreRLBMTAT+ZUhUANcTayYk9awZ0rxBW24RNBhAAp2YRk7OlIx5+BxuZngUIdg1kny3dJdHmPuRznhaFmBQsM7hw16orUGLVAwJSHhOxLGdjiqCPO4fkMwxrfAPBO16DpX+dwbNwlWuC0WSAChNNm6nihtWSBu27cfl7S5t9m4EqAmkp1kkazC0VSrhikCSpO3/xaRxaco/Hq0gHe4VfLEKtRAS9GWCfxnAcuTGRCkEYC1keRDD0S6dhz0TrztZYL0OPkhbDYsaChFgD0lh/23upc9gmO4i709P2mgRNJS+WQfBGyMudo00XcTcSQpHXlGwF8nIi8muIiXjKeOlpg7haIAGHutop7RgvMyQL3f379WGeq9Q4Q3kBEKpV+CYqRJKIIWJDtS063Ahp874SwaKCkd5CHHiqchOCNLs7v8wUFd6GuMqLns2o6wwMXaZTICZqbfhytbT8IJVwDwx8It4IEKERCy09IHSehWLmbcL+s5A14CPsr+HOJz5xLKiCQWpauj9JTIZEo/rL+ivsPAH8C4INEdN+cHq64U7TAabTAsn57TqMd4qWiBU7ZApJWuP2zG7c1u43fZaanN1LdShodKCXdBoPIQNglMYggzGUAJSded2wINCqCiKEKY6+oUXD1EJWUEIq0PT4EqM0YPOfDaExcZqWRzeb4BKUoQd1nVRwhERUBAJWqAqOcONfUQ12EYcmqFOYyjX7mpN/C9cfv8heEhxAFkuZqurjf6bJABAiny9LxOqvaArffuHOwpfka7uqXAHg2JVCNRhuJKngGuWZPXsronFhOEih8bdiDoVTdEL6xPYT+glBoPFDl7yWyYz4bfUiIIcnRkBc1tJ5EOvpqNNY9Fc2tz7eO3Xc/JOWUCWXVvgDbify7BxASXTA/O8OY407719o8cyC5fe4G8D4AXwHwdxEgLMBzE0+xoBY47W/Sgo4+nixaYIktcP31SB6xaffogOo8hcB/mibZgKIuUaLJ8w3qUglm2DUr9VJlQjVCEAKJwIGG0YlSpMLjD99AqXo+b7tSlCAgQAZuj7OjUOketHb/EZobLi/6JUg4Xxz0vHUIfHSgH+KZbWIr/jhEXkv8PPS5fDV3IqjR37ikGN4EYJJESCJu0QLLyAIRICyjyYhDWXkWuP/ftp/R1vwhSvjsNO1mqepsVgqqRDSslA/2kABr1A57tAsC04RphhwQ1Egfl87hj68jQAZpiTzykJdZtsHdNtJ1r8LAzp9HMrR9bg2OtGg7VCWQq/Prqxj6VBMYI4puAddwHKo3tKKenRkBBACGRFrZqSheF1s8r6g5XBODjQBhTUxzvMmFtsDXvobm+vu2v4aAxxD4aY3GTEslWgr/5EtfKgB7WjKH0YGSewtX+D6wEFbk+ej5LAJJPZEDd4HqNX3awewfaC30RDRc6J7RRTryfAzteSeotQGQiIEhFZ7oqyPMEcySLxANBdNPQXQO+gAI06gqJEGGVYILPbN1gzgh01FuUKICgnTmgIrMoyFphc8CGAUgGgi/F6sYFn0u4wXmaYETveXzPF3cPVpg9VtA/Nm+vVufoRL9ljTls4iyzWmSdZnQgvRZMhLJQVp8tsBx8AaWgu3umB6Borrz+gOr1ykJJ4UHFumNfiJMwi1QzUcjmXgq0vEr0Njw6FOsCKgDCWw5DOJ/e6ogBMFIn4UadcXl+YidiDVhgjPun/RbuEF6LzhgIVoIMcWwPOd1TY8qAoQ1Pf3x5k/GAnd8ese5AzT9bpXqixLFQ2Ae9yvw0FeXuAeyg/tjabXv3EZJ+KguihC0N+oZcwVkzKqjUI0auHEVYxJ00wX0Rgw/9NNQ6SgoaQHJwMmYqk8DpfBU/fwq20ZMiQCEJRM0Osl7nvUwH224HcDTAdwauzcuhpnjORfCAhEgLIQV4znWjAX4RgweoonfIcWvJELi1uWGXZaDg+rqP8jx91AAwrTBbM475DSWTlKJDLiZ6FFm9J/XERbzbwEC6Rmw2oCBXb+L5uZrwrtyYRE50XwctqQDTuIYU5kg15nPtZb9Y+gjCEePg4MvAPgxIrp12Y86DnDNWiAChDU79fHG52sBSS0cvnnsxczqfQo86Fs1lzLUQZi/VmsgCDFU0/g+LRHqFYTljl48yYy7Jp2Q93Ko/L0u5VGVahalQ84mQYOXoLXlZ9DY+ExQ6qIGppGSaCB4tuV8vzbmEn0PZkNPg5GA6po3zXfSlm7/fjd9l0srvB7AJ4hoeumGGK8cLTC7Beb7pkd7RgusOQvs+/KW4S0PvefY926YGN8wxB9mwuNyrkGNs+4BBtXUQmjBKn/A5yXy/ES5xL8fMMhPWZvj8OED+9+w8sF+QLZvgdqJgT1/hsY64RsEm6QchHtnEM08nf2cnxYvquQjBqviqyk0lhix40iMdwL4fiK6ac7miTtGCyyBBVbFW7gEdouXXOUWkMD9LTcj3X5k+/jA4NTbU+g7mOgoM7+dlOnCl6/i64iERb6hcM5V7kHJUYelkIFtS/ihkp+o1UwoMR17eQ/lyIHfOYMaeDia234ejXWPAaWDsxASFwIgVM/hwiE5s3PVfS21j3dq/O5xWeUz3VPzewDeGqMHq/xLZBXc3qp7E1fBnMRbWGIL8PVI9p0xcUaT1IMSlV1GwJsI2MBsVoBW4D9Y4fvhlsT8Ah2giqxPaQ2elx26yge/oC8FJkJgUGkDXWpQGLzNJ0xTGIkBuSiBGrswsOdPkA7vAes2VHOitumSHfhifGUsBOhY4odm9stLbejX3C4fcxUM/0pE8jzFLVpg2VpgMd72ZXuzcWDRAnOxwIHPb34oeOYHkoQ3A/QSMG4DaAdE46AKDGaLus/GR6gQF3P+QH5M0WApjEbUih+V0ESlIVPd34wRUqiBK9DY+EpAz6C59XkgUzHgvxLiV0OfZ6WK9/xuJ0I58vf/AvATAPYKDyFWL8zlbYz7LKUF4rfAUlo/XnvZWEAIh/d9duPItGo3xhL1SoB/goAtbJPvMyAeFt5BPuAK2TCMBBifXCdqVMMvMOerpAXqRJZKLaLDKonQgpWKCH/qcjRBcvxtIJtG84w/xcCOlwG56uFp+DrI+yachmstzNPlCBgnFEsKryYRA5mlUN1JPnsbgHfG1MLCTEw8y+JbYMW8pYtviniFtWwB3rt74PDggZ9lUk9UwEYm7IbmJhRSRwzMQEhCHkEdh6C2Y2KFcJhnDKoRhnAtWhPNr8o3lwiLFfBhXuxKyiHnSnQPobH5Wgyc+T9ATeEbLKdSwhMtxFfEU3rAgYOxYLRyY7/muAdFB68VcTtxkGvVAhEgrNWZj/ddsgDvRXp4eOIXCPpniOi/NGgMmneJk60CgZ5KgpoogD25c3YlpmFZWqCasuhbGhkEtkvjycME7nZK6onVhlAMzqbQmHg5Bs76X1AinXzCbbEc9slG6k844OWwg0QLhF8gdaJCUBTeyrcAPBXA92JTpuUwRXEMc7FABAhzsVLcZ1VbgBnq0E3jVxHhD8HYCUBq04eLEHHh6L1zLqUB+oCIUpVB6A/rqhFqdA16gEAFDIRj6HetInhBQPsI1NjlGD7/Y6BUWkYEIKbfDEvvBSNYdLJfFSHACG48//hkz7vsH0m5w0MAjgAQJPZXx3/+KSJ6YNmPPA4wWqBYb0RbRAusTQtItcKRs0b3KFbXZIzXAdjlGi0ZCkEeKajrxlgxmRExCh14QEL0bjiMPPQKFTl3HfALwkuYj0MQEZIlQ8Jj4I9DwgRnx5BOvAqtHT+LZPTsU3D4p/isCAcBAjpWTI+FU7lh0TuQG/19929/jB6cijnjsafbAqsWvp9uQ8brrRwLCCFx8otjT9WgC5nxAgaGFeFcZhMKNls1QtAvrRBGFEo+vOrMqw4+ABM9q/8qmbEfiTHIIJSyGCGJUdQPeQaMMzH60BugBrcsPjiw8KrPdfqlFk7p+VmsPEh1UHXhENlH0gjSgEk4B+FsyeffO66YeDkR3XdKdxgPjhZYAgtEgLAERo+XXFoLTH1pYne7zTcQ0WZmbjkeQMHUC71tNRIQRMn7dVrMKxjq3EuOQMpCSwY/1FQhhDSGnKRYoRb0lkgGKCebBjW2Id34Wgzs/AnbalLlOGiRJuJ0+etFGn7vaU90Q0I6POZaN/unx/XFNqWNjyeie07baOOFogUWyAIRICyQIeNpVoYF+ObLGoe7334bFL8MwHYwGk77h0LHXu17UEceLLVKDm4/37fu7apULvjD+nZgrEkl9BNpKgMMBc6OQrUuRmPdy9A640dtbwMz6MV+7SWNsJwqI5bk2RTA8DcAvizpBSKS3+MWLbCiLLDY3xQryhhxsKvXAqax0q1oHn5g4rUM/IRiPoMJGlq6AonWQUWW2CzpK6JDs+kM1FQq5L69D0/PXDJ4A3PsUNFQ6NuZ0UUd/NBL3EduQw1ejnTiZUgnHotkZBdo0SMH7vmZNcWwep8xd2dCcJVoQQvApUS0b9XfcbzBVWuBCBBW7dTGG8tX59dBzTxzfPcU0xnE/MeKcA4LBdF65C4BjVJnxjCHHzQ3qi1B9BcJeQMOXPQs1MPOzDXgwwOGnlRCiVNgB1SqcAiiDEQKrCcBNY50/Llo7XgLkuFdQY+lFf3KnyjUv5QPvYxNQidS3igph7sBPJ+I/nMpBxWvHS1wKhZY0d8Wp3Lj8di1YQFx/Ic+M34WNZMHEbIXgfBK6ahXDemX0gV1Yf2qucJ9gkhALpQUOnH3llUOmb0qIbheNRIREiPD6xnAk82Ahi5Ha8uPI91wNVRj9OQm2lQbyI2dTKpgOfvxOZvjZNiUAgqOOinljwD4YuQezNneccdlaIEIEJbhpMQhLYwF9u5Feung+BOI6A1EfIVzW+MmWlC34q+5bAgc+oX6a1sw94siVD/vU+1QKoN048qjBkE6o7wfg/UWDJzxq2htf94CcA1OxtGfzDELM98LfBYhGYql54OQJHLwJ8cFkv4nEUn3xrhFC6xoC0SAsKKnLw6+nwX4a5tGDk529ijW7wboMRI1mLUDY3W96PyceUG8xkHlYv1LIdlUC/TILoeOvgYo1JU7Vl/QUsQgFGWU8fJRpBNvwODZ7wCdbOTglB+pk1l4n/JFT9cJ+qEff9PCP/g0gBcRkYgkxS1aYEVbIAKEFT19cfB1FjB9FYYeuBbAD5v6dOadUEaZJ8jFByTE8PMS068gKZYbKoVkgrJmQl3L5x7OgB90mHoIeAZmOKGf7fO3orOjRA5E66CJwbP+HM3N3zePB2NVO/R52OGkd/UG3O96LfwxER0+6bPFA6MFlpEFIkBYRpMRh3LqFmBGcuyW8YszzR9hpm1EMOWLuU8W3aBqVYFfiYd/qx5TAy7MOcNURQVchG2aS3dWw18wlwujFqEuQvXa7vci5aFB6dlobXsbGpueAUqlBUDcTmCBhcqFfBvAnwP4KoC/jUqJ8blbTRaIAGE1zeYavRe+DuqOp+xspdy9cCA99v0J1NMAfrBt1RxEAZx9qjLHBXoo/L131uZvpbLDIn1QrOADvmHg5OuASc+1SxUIdiQ5WHAAJJdxrlV4FNniJgZ2/x2aG6/oJRXqjpU1Dusp1+hzski3LWzOdx2fmrcTkfRdiFu0wKqxQAQIq2Yq1+6NfHfv7oEh1XlXknSf32jMrAexJ5YZt1gXMciBQwUAhDwAb1F/fKmawDnvsF9DPgNhJKGuj0NYtpgjAo9eKj0XPEhwf/agw4ITK4aUDDwMA3v+AunonpqHwAv6rbhXfaFW+Iv1YgjHQHpl/5brs/DfMXqwWKaO510qC6y4b42lMlS87vK1wF03bLsyUfrPW42ZHSph8aGNagTApwJ6yhkDv2x8dcW5+yV9Hi2QfarcgaDFcl5gEFYn+ExEJVpQUm6s0CNmG0ueutBsVBwGHvSnaG66BiAJmMRX+jQ8qTK7Us4ouZxXEtEHT8M14yWiBU67BeK3yWk3ebzgQljAlCresn3wnkk8B4wfShszVzXSbrmfQuDszYMuq+48LGB/qEbeeySPnVOvAgsf9g9JiR5M5PcXAIdSTwUXNeipWnBjrO2tEJQ2Qi6u2wBNYOCM96C59bnz1CtY7ovzhXhCFuUcYrj7HTD4IoD3AJCeHgcW5WrxpNECS2yBCBCWeALi5edngZtvvqxx5pHbWlmSDCYKV3NGf0CKx9Oko5JEytBrtpJzLTgFfpVeKlcMnLRFEDW8hD4lkf5Q5/9LQkglvkLd8aXretJDcC8lYqNULUyhseHNGDrnbYBqzM+Ice+TtYB0ZxTOgYRqvgngKUQk4khxixZYlRaIAGFVTuvqvCmpULjnhm2vJkVXADiDwF0GnthszlCSaCUe2RP8epx+QFbsETyqW1DPoQ9Dnsao4RSE18+vF1Q8hJilFDEIqyIqMs8W0BBYHwW1LsXg7t9HY/xiQJownZZtzUceZhxAEINLWuGnYhvn0/LgxYsskQUiQFgiw8fLzs8Cd/zLjg1EelfSoHPB/KdgmgTxOiXNi5vToET39idwS/k6sJBfvfIG5KTGOkBRLWkMF/g+fdGHgFjt49AjslQ1R13JpDl3BqRnYfCsP0Zj4uH2qFo5ZNlZ/s1HCHB+c7LG9pbwlDwBQkr8OIAvRXCwxp6ANXi7ESCswUlfibd8z6e2P4eZryXQGQBvYsZ9ANYnKZJGYwrSe6m01fRC6JFE9gdU9w10kOyqvbdUsmrD2qiEcd5BVULIZ3AAIMw2+Ov4a/bqKGQAD6O59VoM7Hp9Da1xJc7sooxZ0gBi7X7fbycTCpFj/v04QnsrgH8mIikPiVu0wKq2QAQIq3p6V/7N8V6kdDW6+z+19ZkZq78C87DnBcj3f6M5jURlOdmwVgTJPeVhuWLuhCsmKpER6yIE5sBQ4zjcqdJlMQAg4Y91KonelZkmk6ZMospDYHA2jWTkBzF8/jsrYkgL+Bqz6CpI1GEBz7k4j2E/Jy+ffwfAJgBjp3hpOdeUIyV+A8BvAvhLIpJUQ9yiBVa9BZb9t8Cqn4F4g7UWEPGjWx+5fmR0cODpSaKPZqx+BKyfDlCjAAhAs9mGEnLibKv8IEJQxwcwAwgFjtyIwnSD+agm0lDXermUiZiP5kGJiGgHYVMR0gxCobHxTRjY9bOgpOUaRGhX2riADxF3V0q5pEQJ+uVPhEwoREIjlHWSm5xfhI8kaiCcgzcA+H9EJOeOW7TAmrBABAhrYppXxk0yQ+HrF6T3HjxyBmfZIwD9faTpacxGMFlWgyRNkDwZMSGg0TpmY8leJtnfargIF/DgPvcaBs7fW2wQxPlzUFBZxPdkCiqApAo8evQWpC5TGjiV1JnF9VvyQklhsdSESbiXM4DajaFz/zdSISUu+nYyEfhFH9TpvsC9rm2zdGX8CBHdyMzNCBBO9zTE6y2lBSJAWErrx2uLc6Zbb93T3HNHl+7GzKsShYs14/lENA5mqd8rntHKCrvRyJCmNtprHbILzwf7mR+DJb0HALVVBv3mowI2wt1KwMAOoezswwhCTWqitvyxNI4GOGti6Nzrka5/NMiIIcVtkSwQ4jeJHkilghAS/56IJKIQt2iBNWWBCBDW1HQvj5uVSMH+GzYNUYNJc+NJrPlVDNpBwKWQKIJ1+c7bujGX2HyAIkJzQMiJuogehMDA/WzBQW/75f6NlCScP8fXol9KIOBLltINJdnl+rBBNVKB7BiS0Rdj8Lw/cqmFOY5teUz1ch9FNVTiyY23APiz402YzgHwPSL6neV+I3F80QKLYYH4bbMYVo3n7GuBI59ff8F0pp6WdZqvJ9ItBm0mkAgkS25Xcr2yRDY1i0RQJv3uVuY5kU9SC1LWmMxAkTh/e7kegmI1zVBJQ/QQEisAI7+uu5uS8qG/w2o5Ynjn4dsVRBLysYbnrRRhGLXEjEFqCwYv+CekI+Kr4rbIFpBZkMjBxwC8zl1rJxF9eZGvG08fLbAsLRABwrKcltUzKBE3OnjTxIUp+FwNejmAizqdxuZuNx0ycQKijmPcKWbSRNwwMsrGQwr5IOx9QDCdFgA0GxqJSS/4ev9gee4ARSijHPY96BEmqjF3uPKv4JNyv4aQ/9BDVChObFMJARMyrICsggM5TNQRO8Omz0Jjw+NiauH0vBIyE8eOW/8doncQ+Qanx+jxKsvXAhEgLN+5WbEjEwd/6DPjE/u3Hjq25cDE9wP4ZYbeAFCLkXCnk0B3U80GBBj3K1EDVTRUMsV++f2TqBwYD+9hgwCEDElSVJtVowFVcOBPNquqYdl/941IBAMrxJnqdBfcjjnxMej90KOtEB5v9lNAcg6GL7oBqjG8Yp+FEwz8dLIh+11LBJAktdB00YPfA/DHAKQ7o4DXuEULrFkLRICwZqd+YW+cb8Tgocb4tvGh5r1Hj808S2t6LhTWEfNDmGm7Sw+wzhrcbjcEAWQMdEhhgC39SyoV5D+64CFUVuBuKa8Uo9nsQKluj7RyKedfV2ngTxm4C/8S5NUM3rHPpo5YDTEEssg9nSMDoGBuIeRTuHtyFgAhAWsNcBetHe9Ec/vLQYk0DaxsYjRjrxVNWlwMgCC9ETYeB6VzbVCx30UNRDvhZgD/C8A0gJkIEBb2OyKebeVZIAKElTdny2bEJhVww1XJ4c3/PsZHkxcp1j/OhC8x8GwCZNlrny9ChywgaHWzBJ221PHnXtMyA9hWMNqVde6yzU7VCHyj0UEjFcqC008Md6hWLLgT1PIUAscd8g16SibrLF7lF7jffbQg5CuEoKAq+1yOfEikZAYqPRvNrW9Guv7JSAY210spi6CR8DnDUMmyeTIWZCAnCx7kwShXv8w+HGm69CMAbrM61rgzViwsyPzFk6wCC0SAsAomcSlu4WtfQ/PMYxOP1YyrmfFQMM4h4u1EWGf0DCwwsJIFZPK6U8xY32kPINOkSpUCNqNgAYLRBQiFC8pyxbJPozGNREiKlRV+j2hRAULy4XjAEYb9S3LIwTE5paBaquiBRUB67ClXnJXEUJFgznkMonlwBOm6N2Noj+/SGF/RBXi+ZQZ9F8bwdAIIpJTxxwGMHCcm7iciiR7ELVogWmAl6KnGWVo+FjARg89h4FBzfLvK8AIGXkuEHWA0hHPvvoRtaNfm1D0vTwoHu51O2uhmKbNWBkBYp2o9aVmXoPCunpSYW4GAgUEnjuQrEmfhDvQ6eS9lXGPXOpJhnQqjBz81aYUcbFTP5ZFJBbTk4REps9dyQzNobH4HBs/6aYBOV5fG5fOMLdJI5NkUxy/E2BBxCWj4OQDvdtGDNpHnxSzSSOJpowVWkAXi8mQFTdZSDvW+Gwd3NNPWk8H8TIDOZ/B5kgAXcUCXU7cFB8IkKJf0idsTDKA6nQa63Sbsd3BBPOzbNjnIUVi5YSCV9EKj09sPofok9ys/9A7fG7OSv+inyBjavqR6GEYXKhMUphuq+CC8Z6OwmE1CDT0DqrUbja2vQmPs4tWcPliqR1mAgkyLAFThKvzt8YFcF7syLtV0xOsudwtEgLDcZ2gJxsfXI7n/nA3not0Za7X0d8DJRZzpS5nVW0EYM3kA/+RoZEjQhTZ531ptfHGoghLa7QZ05gIMIbIo/VxD4gu8a7M5gyQpGukVkQfLSKxGDHrM5ysh+ti1ChBKYKDHyxcnKR0XRA/MrflVa105o7EjgTsdDO75GzQ2XG1pBVLmWFrsnmxKfgkeoKW5pKSxJOQi1Qh1m1QrSAdQeXgGAdwI4CeISMiJcYsWiBaosUAECPGxyC3A38UA7t5JBxtHn0Ka36GINzPouwRcyEwJWASMeNhFCUTMyEYNbNReRI0qHrpg7rFO0O1KBKHAEGblHJQO5L87B1u3mu8BCJ7EWOd8+2kU1PRuCK9VdfY5X6FCRDSGK4OBUqPHHE/0iTLkh+oumMbR2nIdmlueBygF1ZyIGcD5vZu+5jVgwPacQMoWBUh8AMDPCy+GiAQ4xC1aIFogAoT4DHgLeD7BYYztyJrJoMr0eYrxMCZkRDhPMx5NwI4Kge+QIXNZMGC76RUO0pEMi34EhYOU9ECTp9sNciWNdhhyrGglC7Aw7ERbwdDDO3CDVonoH0yjJIsfkgGrjjhUM64CiBCEuPOHtIGCG1B+Zkr7hH8KeBC5omNwfSP7FO6fpzoUWB9BOvxCtHa+GenY+aZhpbNGfGDnbgEBCBI9qFv0HAbwTwAeCeCfAfwkEQlQiFu0QLTALBaIEYQ19njwR9E6MDy4OWkNnk+kf4CBJyiCSB1vZaIpRZyaKgTmVAhbQT2B0ScgEQC2cQJLNAzsFzjAUite1oRup4muToP8ga3eCwGDrdizZxSQEJY9yu8q0Wg1Z1z9f6XHQkVIsQBC1nOHqYI8IuAvV1cmGce5WyoAACAASURBVNxXjkHczYYlkX63vqmJMh+j0EBwZRvmvrAVg+d/DMno2av9aZytRfNC3PuUAwleHEKsL599+Hj54muORw7EwEeJ6HsLcbF4jmiB1W6BCBBW+wyLH70ZDTS2NA9NT59/vHXB26GwnpguZuLBICauwSyF9blvrVmNFSREl8v3VYm5GWuW2O3OALKuKvdMqNjdax/0ix7I7hYguCq0nshBAARqBJIs6LAXzbUHzIdFq+h+n5eiKMF1vaX6yjhXEZS7XnE+K9TX3PKrGNgllXazmX4NPKgnf4u+yZLMsM9hSURhEsC1AP63/BzTCSdv4Hjk2rRABAircN7F5x398pZNM5PdRlNlTyHFj800ziRFj2bmhlQKVqL5ngHXASEl9yWbL6xPzPS3agdWxiCPA2jhHWQB7yB30HZXf1ojpex+Ey4jWR2FNOzomCZdpGnbRB08qKlyA8xUVjQLQn2CECT0lCPm3j5o11x3ruAaHkvVZDnsUxWmHaq+35w7MeCgte0lIJFTNjcXt5OwgI8UmP4ebvs1V6lwQ2y2dBIWjYdEC0QW1Mp/BvJOxuKaP7txZDKdGuom6bBivJkZLxIwIAqGDhCII9YwTZEgqYTcjUnq//hqq8vitSSVUITT5XMrf2ybIhTFh+V9RNFA+b9mmoxiopagREUvIAwy5ODAQgwjwSxKdgbImEEIAxJoNDOkpjlTiRdof/f5/Uo/g3x2A75B6KdL5/IDr6YbTgAIzJ8rQCDkG+Sphx4U0QaSXRg+75NIhrcu11fRzv3S6jmfaAwSUvqH44JHD5ZGYC6CIKEZiRz8llQtEFFR9rLyX/l4B9ECp80CMYJw2ky9cBeSMsS7z96+bvLeoSPrNx7Y00DnbHCyngnnEPQlmkkUDS8koFXS/S+W7EW/g+rKuRKGB2PaVCgAEnnINQ4qnto7d4s4GDZy0GkUpMNQf6ASkagQIYVVLjlk2Uu+6A0rXZQTpYKhR3i5GufPHXoZyOS8gbDMsYxUarUVevgKIWCoTmkl/RByFXoqMnga6cjTMHj+34CEfRm3k7WAOP8/dOkEadF8rytl/BUA749phZM1azwuWqCe8RvtsswswNdB4QLQgd3rtzfQOYOILtWMC8BK+h2sJ+IHMXAYjPOlxttFA4zgQFBFWDjxPnl0f9sV2WBZQco/I+tXR8YLzZVlZMSQtBaeY4AK/Co+SCc4kOGzCxI/EOAiHEjN0uFRStCYm3JNpQQgSAWDgwjBqj28flhBUJ7GygFVkOJ29ufPsUPdYRWOQ+k6dV0dS1EJuYEZEE1g4Mw/QWPL0yrDdCdfZs/gEg1HwKL0VhDdgrrFjFj2MwDeB+BC14NBqhS+5QDDvthXYYlmLl52VVggRhCW4TQKIPj6C5FuOLhlYjBpP5wS/TjN2ECMS0G0XUGv0yBZdorT9m64y4xGj8of2b8HmQF7x3UOMogm5GbxdAEb/rc+3fcgqD49QiDopMiyllFLFKeus6QoWyxFK2w5o0sn5GciovuZcddxYtm5AJs2hpKaTxONNK2RyS+P2d5r6OzD1EE43moqIfi9BBL6lEpW7Vy1STXyUAQrpA7kGJKJF2Foz3tB6ZDvUGVLOkxaZU2+lkXIp3gnJTpwFMBYH6MIcP0ogL0SLQAg6p43xS6My/BLLQ5pRVpgTX4TLZeZMhVubwfue8LGLaNDnSHuUNZJsu2AkiZI64jwJGmCBMI6k1v1nAE3a2FlX7VVcRC2t1+8oSMNQ+vGAwdsfg8easLvPWJC3pDCAWAyUYOZ7oBBI4oYSdJFpyuljfbijlNQlWZ2/RpMtGA/S4iYsFuBRoSH4I9rNttQyrL+/VZy0hJ9kP9zkY6eOa7ef8iLqEZGgnuvRFOCi7sfi7RNCXjVRiJy1uJ6DOz+PTQ3ueiBAQa+5lMQSUw51LyjVUvLXEu5ovRSEIDQIaIHlsu7HccRLbAaLBABwmmYRVko33nT6PoJHkx1mmaj40NHjhw8uJuz9qUg9WAifpaslJgwSIxdkjZwHRHrwvrFF2WQKsj9fD+yXRC5rltUV0v1yprFARSpRhEMoCBIKaPWZCSVhbBAioUIqTMddByyY8h7M0hMwq20xZ+KvsI/WtkkuhrEo6JeYHQCFFOrJfoHknmoLK/LzZRMUMKikbIDr6YmzF9rogg1EZj6qom6CEQf4OX0Jm0r52QnWmf+PpKR85AMbqtULojPky1WM9S8lqJnIEJdYhyRTP5vl1J4IREdPA2vcbxEtMCas0AECAsw5cymaVEmUsX33b5x3dBAe2fG/B2RbxvuJiMqpQsB/Qb3BfcgZhxSijYCvI5FrdBm4UtKhEWRXI+zKyIC4ZqqX8qgggby0HcILkLwUKMh4NITvc7ZcBwIWZYi09JnISgxUKZaQpb8zTqnHqQrBDDcx4y2Av0gET+Dgas00+8o4pcw8CSlQM2G5O0dGb0SDShlDmrQT08wJAxmV1MLdRGBSkTBPzJVLFaybfhc2dkF9DSgzsTw+R9FMrRLhB3WajphPm+dWE+4CKJpcIurWJA+Co9y/RT+I3ZgnI85477RAnO3QAQIc7dVvufevUivugoZvo7G9+6FGh9a96QmqNNFdokCHseEdaT4m2A1QcwjmnGVkyf2PiVod+xOGy7S+zgwDxp6VsOzrISrufD8JqrHFMPIF9f+WBdmz0dVpBqsQmK7K3xCS0wwD5RhSboLVISIOFRMsPvOMPNNivBelXT+oavTASB55NYN45+4e/8Dv6AI/1+z0bkpSTtPBLtGPHUr9dBruwhC/nDXlEHmZZz9Ii5hhCFMwVTvx+9XmT9rDsOxsPbUbVDjPDQ2vBStHT9muQerd/PCRfP5fqlyELzqopAUhXj4lwA2AfgPAJ+1nUNja+bV+wjFO1sOFpjPC7wcxrskY7j5ZjR2YePGkU631UmzFrT6Ps349nHlgSeDqEmaLwBhDxEaDIyCcVgE9Yksyc6lC/Kxm2iDbztbWfn3lMNZZ+d1CHpK8UpgwTt5x/SvBAn6htTdGHuVDiuOMeQqZJlUKSScaSElWlhg/8d2bipu1lEc8vuUMACLImPiWj5/g5G+ciuf8yW6+gbTOOdbH10/NjAxlDZmsuchwaua6UyWJtnlRqMhVEJ0LqWKF+r6KJSAUj+iZdVFVasVKmmLnoexroLB7JSCO0fQ3PIWDOx+CyiRys3qxU7bo73YcsdyI3INucH5kCkECByBFfGSY6VcUX4WJCXli38VaDLoWJ1w2p6XeKE1bIEIEGomXxZ+X/86GmfObB0fUZ3m4W7n8azVa0jzEBQmiHEOE7puRWv6Cxm9nnKoXj7zX8aGJBiEoMPSPjMC+ze74swXtSGD3nhxs2tpJe+de1+iYemIIDVfB0yKa9Q7eBMmB0QESVIKosysjSvw8oaBMSteO+/BRPQAMx+RRlAE+m9FeNPGx931j8JN8EdLFcf9V297cKbxeChc2mxlr0pousm+S5NVWsxvxnWTlj4Rtreyq7KoihTNWp3Qk4coPxh5xMF+7GWd/G+1XR39bBGl4O5RNLZci4HdPwNSNQ0HPVFxdX4ZnQgNydz/tYsUiH6B8A2ktPH/uO6L7yOiW1enaeJdRQssXwtEgBDMjaz0j35pZANn6WO0xrOJ+FJodImwh43eQElXQI7sutW9YduHCWXjEK0jKToeVlegdcp/lRnJ/ZZ1fHnzpOqK2F+9lAevpCqq4686zCqxz9xQ4GwFmnQzhXa7CVK2MEJLtKAI00vY1xALK+e2o7e9HGfA2Oe6Qv721sff/ct1r8f+z2wcBbe2EfTLVTLzhCTpPhKg1BVb5iWX7lghRKpQGTI8Z7+UTMkeod378DBqqzjqogxBZMMqQQoFcxQjl94CNbB5+X4bLN3IxGJfPP5M/AaANwK42JERX0xEH1m6YcUrRwusbQtEgCDLweugDjxt/QglnYsUJ79CzI8lIDWLbMu0t465YNDb9TcZEZeGlyYulRoWgYCiIVCBInQp7VAO5Uu7ZXF2dm7q8u3VyEJ1t1m0dszAXfSgFiD0iSwIEOh2WtCZqVFwS2hRNbJRhepmcYIZiJhP7JSCSRmQwLidiX596+Mu/wPgQ+LcK1e1dIa7b9j+YNWc2T6SZLsy8GtBuExSE6Gdq1ECp6KXpyLC+60CnlBlsgdw9UsnGFSErrkTDkLo5WqKQH6ZIN0sG5t/DgNnvh6UmKzTWt1kOiSN5ENOUqUjXN5vAPjKccu+DcBuR+b9YSeVfHvkGqzVxyXe91JbYE0DBHHSB2+YGMMQflFBn02ghzKwzfnbMG7unbaPBhi/CHCHhWsQSBD3rDLLQjvSDEmiCuLApN9BNS0hvrdj/i7yxlW3WQISblEeqiXWhcn79SfwT14JgJSRh78XcXCyCu5kLePsSNlVsdX1kVuQX3KUwlKWCKZMFw7UYi2iLkO/97gk9J9vvXLfLcLFmO0FuP3GneuHaerNSnWlp8SMIpwjPAQH1uyhwfhrSxkregf5bfdGg+zpvFKjmV57Uz2RI0kvaaMtIfNUcDtCUOF+NvpS+iEYufQjWjXGBV0oCYQs480/ddXvBi+BfSrfGXJuKVEUXoHPs7zzOPnwdwGI6qEASbOxbTduOClxixaIFlgaC5zKy740I16Aq37ro3taOzbfe0k3o4ug6Jms+TGOIW0BgPmGyi/kvES5bj5PIXgBI+8oap2E8TUZiKbBPGicf/kaPRLC4dVLjPvcw1V4boWDtnuUoxL9rRbuF4wprFSYmR6wqQRDpHCGye3jT1AeT92KnJkeSEj/5KbH7ftAXdSgbpB8487BgzNHW2oYryfwtWCkLI5Zrq8MeTODV5CsZrr7l2wW01x1hwEoq01BhPuH56+Zf6FMiHjU8IP3Ihm/GMSZyZLkbNAFeJYX4RQLKcYgDv8AgC0BlJPSVylXfJCAAkkpENG/LsJ9xFNGC0QLnKIF1hxAOHTj2HpO6EVEdAWYnwTCJnCJTCgrfK/I50iGLlburOWIcIUoTyVXn4e1y6t3477CkHjoRN3neb+EHuc0m2Nyjr33mHpuWF2lRN1n4kU73QF0OknRpSl4Yuz4iyW0IVg6XUQDF8zy2fQ2FEv8o074uplu62u7r/rezFwBgn++D98y8Vzu4i/AnIEwarCKXM66MzOqCpGwDPQqK/38157kRk1UwppRrmTASHHF4O2rgAUbYJoEGpdj5MJ/ADXGCgblKb60K+Rwsdc9LmJwDgAhGd4O4NMA/gTAQ9zfvh4rElbIjMZhrjkLrBmAwDejcZg3XArd/UUGHulY86LzPiF+kNnovUsvg7x7b+476kL95QhAjyd2oepCXKjczbAUlejJo+fh6eJ5rM2lh2MopQp6nZzZNeQeBD/7v4UgoZtJxSZNddpFwb7x99LQWY4tRyxycqIfcZ6ekNQA6ItK6Ws3XrnvU/MFBv58h742tp6O4sMaJDwEsas0qrJb9d79x2Fjp+q+/QBDeV7t6YveE+Vy0+DrgghtZkhjKWMZ5gToHoEaeyGGzn0PVFPUsusB2yr71hFBIylXlEoE6WP9dQB/78DCTa75kjRTMumDyC9YZbMfb2dVWWBVAwRD9PsQ1P1njJzbSNMfZs3fp4iGtAn3434wryPGf4HoISDeLLl/4wts2rlUMldyRt6JFE6m+Ob3/L1KiD+sBii1YA79mztLj7+rASilFXAAKHJ04wY8K6EvnP3gGlnWQKcrAIGnmWmwTldAPnMRg7KfFuaEBRByy3cy4zd0Sn+77Yq77ghLGef7FgmR9OizR87LOslDFNHrGPw4Ag4wm3I4WdX7ShI/O7KCFYXLsKNlASbClEA1PSM0RAvtCrJjOAch2CvmT+R+BWwaHCB2V4OPxeBZ70Iysmc19lfwYkjCIwklIaUfwpccMPh/AP4NwB3OTCKVbCwfgcF834C4f7TA6bfAqgYI+z8ztL3ZTJ9DoGuY8WQSchno21bMiPeBeCcxTTLRNjDLilTIiKbXUDgVPWx/cSC2ys+GtovVuXUjvjXSbOHrCnmwTI4rVsZ1uXw/aWHNf76KrltNV1Ua3aBrUhzodJroZqlptiQe0gCMIL1hmzq6D3yRQi4MEFA3mG5l1q/ZepWJGtTUOZzcwy6g78hN665g5h9Boj9IoG06w7tJoQAy9v7MDfRNp3gTuwRIhRBa1JDUyFDnQYYyf0FLV2qDNfQUqHUZhi74KJSkFgzcXBGvWvmO+k+RNEkSQCagSG5so5NClqjBDIDPAXhX1C44uWc8HhUtsFwssCK+teZrLFE+3KPGL6aMriSWRkg0CfCFDIwRMOJKCIWBbnUKzIrGlM+Z6gTz99wLV5y11TY4wpKOAAZLBMI+zrlaVli6nwBE1EYZSkjF/pI79soYSyz+GqP18B+C6IUoI2bdBjKd9DYn8ueyfk4YGqXnJpcTtnUNRwg8rJR67le7d/7T1VfbUPJCbjI/B76wfnQmHehuG7yre/jI2PVQdDkRDbDmkcJI/a+a2xroOtJj+V2oRFdK/IY+ER0DHEQ0qnsUybpXYPjc9wD9yxrnmm+QFbrse7KlD97+czl+NoKijEPOJZaRVIE0FRNegRAMJa0gOgYSITgXwP8lIgEKcYsWiBZYwRZYdQCBr0dy/84NW5tJ9rsM3kkkEQKegcbDzaqHTImVdXXapBoEDqQ2ZJ6HowuIUNEUcL7BhqBdCNvPfx6prsn1l/y8s3pPi2af786XqMXCswQKwvK7cN/QkYeDcqgiTEuEYCHrJiZyUCybDdnQ+tlcAtGBk1wGSRLtLppQpDj2gfAvmql5rD31I+c8+QFxGIu+Hbx5/GFK07uY+UJIdMjOs/y/5QN4G5V5IDLfbRZtfzaMemmv7QkoXddKwZzHbNW1dZAOyk1t9pG2zU0M7vkbNDY8diEiB7P1NZgLyJhrVCCwUs8di7MXVcO7AUwDuBzAhuMVCj/ueiNkJBU6cYsWiBZYVRZYVQBBwMHR3evP09AvAvhZZpXPdLb72h82DkCb9a98aYo0r1TvyW+2nj34Ou9H6AvT1X0crqHsh9/cuYPyF+iXzw5kCErBiNqLBs9huLP/ua4vQFmTwWIkTtHtptCZSyfIp+Lj/Bh7uQY9TsliCOqC+D8Swms3XnnFl4k+5PX4F/2FOfyF0Q1JkjW7nF4KTS9zIleiOfECKYt0xEEjPlWp9JC5EnKh5NDtCtvarcuApAyaOTaozkF4V/l8JmA9icaGN2Lw7Le7nguy48n0Llp0s0m5YcjbkPTAMWk1Hr4GAG4GDIH3xQC+5uz0HmlPfvwdegcRSRlj3KIFogVWoQVWBUDgr20aeeBAd30jVcNZ0n0mAS813/WMm5jwMNY4n4hHXJ8DQyFj0JTz4rJ0luqFEplt1tRBr0OW8KuVGPTlfU6vP+QW9AAK432s55ktvRByIPJD3MNYGmf4gIYXC9FPAE40N9BuN0xiIN9mAxuOXuGjCzmiYuwjRR8gpW/YdPm+jy8k52C+79y9ezGy6cx1ycEDfCkx/wAxHuLEnB7hShTFAobAWDJLuM6u74FRyBf4ws1QpMoMtAHdbWH43OvR2CjRg0Xb5hI5mO3iEhH48vHWyQ8LUheSLhDdAhEykjSBgAd5rt/siIaHieh++/yZJmTypExHsuGizXE8cbTAkltgxQME/hZaBx5YvznR2XnHiVHjimiYFb9IM3eh1YeVwnMBvhKMca9caCoYLFNdVo4ib1cvzduPhxCElwv9f1P7UJQ1Vqe2uqKv5LF7Sh1nezT6cR38MXXnNt/stkRD8uTdbjPvo+Dj8OYwzzPwuIWNZLK1RGGPwkERponp3Yd3DL11z55b2ydbxrhQb4IhmH4IhLPROpaNX9CxEaPXEeHVok1JGh1GXo5oMkvu1oyqpbtP+SkDc1qSVgyfBx9x8q2kTdyhjXTzT2LgjJ+Gak2c6JbCmERoXTdTs7IaJXUjqZQSmbZyQX9+X2UgfxYOgaz8bzxeenipUzP08FC6J74XwMcB7HDCYVJ98FUiOi2pohMZLP49WiBa4PRaYEUDBEkp7H/IpkF6gGmgle1ijXWZ5kQp/XhAPQXAdxk8TQrSdOlhbn0vrZZFqKfNTC3XkrmmG0ClK2BA6HP56cJ2nqXPRj45F1IoMeN789/5TPf0BMj9VFgVUPnQgYTaCELwt/DcIpMsrZkz7XsqFHLNtqmQ3LOJw5sQi6n3NAxOw06wpyrAh3x6hwL9yjGe/OBZVx8URvuy2piR3voxJJs3TrwP4M3M2EyMu0jhSZrRNv2j7A15Xoq9T0vGKK/S7ScONhW36XNJzB2o5iVobHiNbu18heRpZnPeJ7LTiXISkh6QlMiJ3l85jzh+UTKU7ZPHuRa/DeAJx0GCvB9vASBliXIe2U+EjQ7GqMCJpif+PVpgbVjgRF8wK8IKoo7YTdPhVGOHTvQMZbyJCO+FwjA07nSEKmG3G7UaF7K3PQ98z/qKAzdLusA6gXqSJWORzd+6/LU0HBJfkR9SlCC6Fs7Bqr6aTqimENx5Ay9k3VVPqiHEDBVeg/lTmE7QCt1OCi18TNtDwV7GRQfEncmYzbht42SbeihFK6jDxPcQaBOxqW3/0c2Pv+tfljpqcKKHVKJMOAR9aGb8Skr4fEA9CMSvB3AnAdsMV4Uwqa2NB4khP0rnyGKrRGV6rsnTSEZfisa65x9rbnv6DKDkWTvRNpdUgYAB2eRZlZW8hCYkEhDyB8LryKzJP9nnmwBExVC4FHcB+AvXEEmiB1cLyCCiXzvRIOPfowWiBdamBVY8QNi7F+mlI+NnKq0PJUmrmWl9lqJsSGv8JgMXuS/5tpQmGiEby8VLjd8Lyxlzh+oC7lWxJPt8aGLczWxK49aRDfOGkQTnlGvaKVYBgn/egtx3KaPRk8aoLGhD8OLGXiHg2QFrQrfbQqZVXp5YAI2iCsEIIleD3sE7EZz7BijKWkQ/NXHFnV9Z7uCg7rXmb2wcPXKk8watcYCINrPmRxPoc2joT1CXnsuEJzPjXCIMsaZpIkk1GIfsU0hhisV8xjyFxro3YmD3z0E1x8Nywbk2OQqtXxUfknMIUBBwKimC97sIwGU5wLWlhiJQdNHxdsl/54SKBBS8xMkbS6Tgg0Qk74EgQyEeThLRrA2z1ubXYrzraIFoAbHAigcIfPP2IUy3kwOppgMHDsxs3jx2CTK6BqAfAOkzAZoWNrptlgQhJMpqv5fRbsmFkmyXLoRS5iYKfXYrt/JtSwcAJmqZj73QTuikc7Bhfyh0AoIFeT9n3G/VWo1wVPLhDvDk4zVcgyxFu9Nwvap9WwS3izu+wCcuauA+yMfseyvY3gdf5ky9dsvo1ltw2S3dlQgO/JRefz2SF8ovZ0Pd0Uba5PHtWWv47m3j0+mxg/qcTsZPJIVfIuJPkqajGbCBQOcAfMyRWvdIu29mvh/EW6C2q6Fz/xnpyI4ZUPLfjugnQOH/urJAsWxYIeCHIvtI9YA8b7KPRAr+0EUARGvARw4kDSL7SGtk+fdZAG84Lkr0VMej+RiA/wLweQD/fvxvwrMRYCFdE4V8KOqFCyZYFb8+owWiBVa/BVY+QHCiOcNptqnblXBq98tdtC4mlf0qwFvBNGa0D5wgknH3CpPEaErrYFf8H5a/5T6zbkVeeiSqYedSOL5wxGHuvkesqF/oOjyXJ8QVRQ9F5D/Qb/DnzrRCljW01koJ76AnVJ6fr9A7MKoQTkHSgwOLbpiI6fc040zN/PZtV939pRO1aV5pr43IOO9//Kah20b3zzz84WaljiOfHdk8o9IrWi31Dc1Jm9rtq1nxbQR6IjNvokQpaH0uiO7U2eTZjfWvPTZ0zm9kmtQtSjWkHPBRAM5wXAHpSSBqg58BIKku0V0Q5y09CR7p1Af/0kUIJCogzv4D7lhx8PLZfre/liiASw2J+qeQbDcD+DZg+lPcG6MCK+0JjOONFlieFljxAMGs0W9G49DU+EjWSLL1jzpw9MAX1o80KLuWgR82X8hWCMlVOaLLzPcB0nue1oN4tCKza05p+GtVh1zN8+er7d4SyTxc79P4QcSgloMwG4egIsucRzT8M+WOZcMvYHSzpkQNWBvhaCto5O7G35Kl5zlhACednIlUsKEp2txLB0RHldK3dJlfmrUTvSO58xAtgjLi8nw1gOuug/qF62xa4eBNY69rqOQ+xfSZTrc7OYbDU4ey8YEkTbdm+v72+Obr9mPPLwgxUVbr8k/y/o920QGJKJwvnAcHAmQ/SU+JU7/KOf//dNwBAQRnSpSAiORZlVSAwSyRPLhcn5Q4rmiB1WmBVQEQ6qbm0BfGngrQexjYYdIFJPwB3s+ktEjdGTEcxgYDHirKMJ6/noftqw46IDDWCSqZ8YQ8+KoAUsAvyEGIu4mqpG+uo1ADMIrrSHVCC10RO3IRg1IPBa+IaJszz7BtWWxKO0sagfZpsGkW4D8U07cU9B9tumrf3tX5+M/9rg58Yt24GtBq4spDksvPtxxj1ZyKTUtHG9p3K35XTku5/DQbbeZy8yLZ14OB8Oe5jzbuGS0QLRAtcOoWWLUA4f7Prx9LVfZeguggmAoDcYz7CRBFxQlR2DMphsAx56mAILwfCh3lfj/gC5Zy//nJKtK8FYJiCApKZZFh0UDIUShzIIqAB4sSIiBSyaJrYMcXNFOqPB/SrIqJBCgJQLASxB4i2GvI6SSKcIAYv5Y01V9uuOOOffQiI5gTt2iBaIFogWiBNWSBVQsQ+EsTE4fb+gMgeopxfLak8SiIR8Bka8iDrosVIFAIHtWUP5ZARaC0U3K4IfCoRAxyvxxUMPgyxsBfWyBQlUd24EVrqVBomioF8eosTZbCmkRb4F/WdwiIjTbfkqv8yJWE0f5+FttQ968arc7NGx594PAaehfirUYLRAtEC0QLBBZYvQBhL9IjwxMvA/gXj7PCtwMseWER/2kJ+9yU9dmq0s+LigAAErtJREFUhtCvCjM/YzbMb/d5QV7o17AnPEdJq8Cdu+ToQ96CRwP5tapL/uB3cxwZQCCJAkdEZNa2SKI3NUEdBhvuheMsGImDPGJQnFoscRhQtyim3980uvXv6eG3+Nr7+LJEC0QLRAtEC6xRC6xagPDdvRhYNzR+HRGuJuCRQY2/NPFRDiBIFUOhpsuGwS469SN1vRlKBQc1hEVjzIpFc8GkPGxQz08IsUIVLwivQLOC7jZcp2VhINo2lHb8NhpgxuwL2dxHFhz0RAss/rEKkMcY9GetlH9jus207ep931uj70K87WiBaIFogWiBNRFBYKhDXxj/YSL8DkmkwLUiAOgOgEUtb73nIISr/p4WzGGKwXvxCgExt2f187r9KqWQVSBSnMvuqLsJMp2af54hkChtxBoMBy4ACHXkyoKw4BpCuZCCkTcg3HKcj/FbzdGpf1x36fKTSo5varRAtEC0QLTA0llg1UYQxP0dumn8CcR4HwhbwWgqomnNfDsUtkJjzLYp7hGLKusrVngCpamq4yfU6BeUVP2DfENACSgr/ztVQxZ55ExUEO2FTLkiuiDSXY2GIiblHH0hq+yub6IKhmLvT22aLmlSOCZ8DAJ/hyl545Yr79y7lN0Xl+7Rj1eOFogWiBaIFpjNAqsWIMhNH71p01aNzq+ztP0VboFl7WkG5bl5J5RkbRR67LqffQTB71sFD7lzLnQRSpoH4fHV6wVhCAEEPoWQVyeIwxc2ovh7xQ9A0zhIHL0TO6qKHwVjsTemO4aACFxLCrehnXxl8xPv+M+VrIYYX+1ogWiBaIFogcWzwKoFCLJ4Pvy5sXWUJm9h6DeBjXKdOEhTd97DFqgrbSwAgKgMyh6h4mKpE3DOZQjaMPRUNVQARJhe0CKNLOWKWhoqqVzXKC+99M+A5xQIiSIQzi0iBiV1RKtqAO6C8H5o7Dt0lH7rwdfcdd/iPVLxzNEC0QLRAtECq8ECqxYgmKX27TsHD9999NcBfh0BHSetLG7ViCO5qkCp8Rfxm3VESIoujC6okPc5DqY7X60XvZnM6dznIY+hH9nRuG0HU6QyodNpmFbLWjeMNo6wKE13xVCJ0Q2hVKJoKhhyUCBwQDILttWwSUuYHhT/jzO6dsvVd30kphNWw2sb7yFaIFogWmDxLbC6AQKDjvz/7d1biF13FcfxtfY5M7k1N5PUJLTWoqC9WUF6odVKCtUK6otQESyiD/oq6LtUBMFCQcGKViz0xZdiBbHY+hCrWIyGiphWqsS0NU3MPZlMO5OZs/ey//++nH1OprIe2uayvucx/DMz/886h/07e///6793/R1mxRNiti09vE/r/pougvm6WpmcLVTOmcqW/NW9vbC2vY56Zx2cv1qhvnxPNDuaaorUHRPdBoK6pt0djFE5kNS3aLScb1DUv77+K8bHLf+fds3t35Smplq9VpUzu03knnwglVQLhepPy2X5wY4Thw/S8Ojt/0DxGxBAAIHLReCyDgipSGm749a1m75nal8wk03Nnr8uCHSPHppNAyk85DsBbQ+hFc5B6C7x7V2I9pt9PwT0Hyf03y3pyUA1yKcjjMqhjEZNM8epHQ/THRx7OxTyIsq8nXFqR0Q+jdLkjIieqNR+O6hGD1RLxdntnzySjgLmhQACCCCAgFvgsg8ISWLuL5vvtKp6VER3SpHbDI+k6o5zHhvUxz3r9FbH6VMdp9cvth2IJvok1BfvfOhT+vfU6TC13S/LgZRlkQNIWnOYmxw1V/bpQ6O6RwnNPYf8JEF0lG85tK9xsKg0xQOxv1VqPxvqql9su+vlw+53AgMRQAABBBDoCYQICCf3br5pWFUPVKb3qlg643BgIqu7VsT9b+ITq/8nT2mcuCj3bvv3AkR+dNCsRei2UOY1BqPV9VFJzRbG/uOKtpFR3fk57UZMP2O8O6FZVzCZS5oA0ltseSIdEbysgx9dVR08EOnURT7RCCCAAAJvvUCIgGC7ZTi3ZsPXpNCHJPUASM/n2/4H42/g450NK7VDntrlUF/Ju9Mc2jMT6psPlls616cflcO8ALHuetg1Ox43ODqvM1Nd5K5HQ5M+zl8AWa9ArO9TyPNv7Iz8lszpb3Z+5tDrb/3bhJ+IAAIIIBBNIERASEU9tWfTzYXY06KydWqLY7rAlvn4Z60fO3Q7DJqdCb02zf1jnNOCx7wfcTw+nZEwyIsLyzK1WkiZoF1xuMJb603uXHSZYfpZRhsH6pWRKQj80cwODwv5/taPHf4rPQ2ifXyZLwIIIPD2CYQJCPPPbbq5XLanVGVb3gaYziGo7yKk7/vLYjrbbEiotx++STjoX7Pb3gfpEUJqhZxaH5ejol5bMPEDmgLWYaJe/pi3ULTbFtpTG1c+M2Gq/PP1VsXi25WWj+2467/H6kcS0ysY3r43DT8ZAQQQQODyFwgTEFJ74bN/3vRFU3lYxNamuwZNICgmGxr1ti7W39jPf7Xf/NOpiuWsLI/ymU8TmwqKoj1QqfnvdWgo8yJDtQUVu6LpbFif05gWM65wAFR7zpKKnkydEUzlca2qH777yi3/lOtfWCYYXP4fUmaIAAIIXAiBMAEhX+v3fmTmdLn/0ULss6qyrllDkL97t8/42yJM3EXogkLzVT09RpBKlkerpBwNeg2Sxlf4orAUBgbd6Yp5wYA16xDTgQq550L9/KFJF/kxhzVNnOoOC+nkyWOV2N+tlEeKYXF6ZlZe3HL7qwcvxJuF34kAAgggEEcgVEDI1+J/vX/V3Mljz4jKrb2mSeNmR+c9WuieQ+TreTmakVHestg0MmoaN08sIjSVYlCNqiqffdA+Uag3TXTJY/xYoR6Sf88BE7mmvaEgJgdkjX5ufm7VS++7599n4rwtmSkCCCCAwIUWiBcQ9u5ce7Z67ddmclezB6E26NYdpBv5DUtaMFBpbmaUzkoQG0hVFZPPEvJOgnaDYl3OvM9Rq3zDoH+WQtf8KKWB3rkO6c6BqM6r2iozmTGxvSKDPQO1P+0rDz2+a1c+R4IXAggggAAC75hAuICQZOefXXdTNRz8xExvX+kEx2blYu7DnI5bXl4aiqaVCtPrEcY5YmJhY84bXeDoGhak5wsjE5vpTmDMaSLHi6NmNisiqZnTYGT64FW7eIzwjn0K+EUIIIAAAucJhAwISeH43vUfnCmLx1TklnqVYH1jIG1TrNJjhDJd5FMb5GbdQbdVoH3k0DtRob9CcWKbQ7ehMu94FJGXRGSjiGxpw4apnhOzFwrRU+eWBvfvn/nPUe4Y8ElFAAEEELjQAmEDQrren9qz+aZBUT1RjoprRYaatieWo2HXATHdNUiPGOrnBpM7GnqPCyZqWLdRzCsNxrbN3QQTWRwUVlam68TkSKHyiKjtX1wcPW1Laxeu+fQr6VRJXggggAACCFxwgbgBYbcMT6674gOyvObh0Wh4m6jNWpU2G+aa5FUC7TkKE/+Y//38xYYTrZNVRmIybNcf1ONTyLCzKT9U5RtdDAp92BbLh35/5siJ++6TdOQ0LwQQQAABBC4agbABYfduGd44s/XBqhzebaLbReTK8XbDJiXkxwr99QRNl6MqHww96DooNgcudclivFYhH9Ykostm8o+05NHMnhItXly02Z9fu+ulxYvmncAfggACCCCAQE8gbEBI1/5jv9t5pxX2dRP5lJgsiOr6ZuFBfQZze9Ji74FB6mJolSypyKrc1WB8gsPkIsZaNndrVNE5M/vmYHn5yUM2OPOhTxxZqLsh8kIAAQQQQODiFAgbEPK3/eevnz189NTdw0LurSq7MQcE1Q+b2ZlCNO0q2FifoNw7vaG9OzC1JqG3QqE2rVs5vyKqe0Tk6TUzxS833nHw5MX5NuCvQgABBBBAYFIgdEBIFIee2XHdQPS7VslWKWRRxO4wsSdVdLuK3mpmw9zmoDk+Ia8kaA372x5T6+ZCXxWzSkz3a2HzMhx+Q5cWj2zbdey1+gwGXggggAACCFwaAuEDgj171ZrjVXlDVernK7PbROQ6UftSofpVMf24iG3oWiL3OyHW9U2xIfU2OKSq+9WqZ1SLX21bt2Pf8cWXV2/96PF5gsGl8UHgr0QAAQQQ4A7Ciu+B0394z+aFaukrasXSoLCFspJbVPXLdcOjHAC2V2avq8icqrzLVE6q6Rmx6jkpZ76ztMZOzW3cMH/DDS8s8SZDAAEEEEDgUhcIfwdhuoBpXcKR46fvV7NbTfRuEdlXmP241GK9qp0blfrycDDaItXwdR2Oji4dnjl89X0HFy71NwJ/PwIIIIAAAn0BAsIK74cDu9+7es3SwqCaHVy9blVxdMO5g3PKeQh8chBAAAEEAgkQEAIVm6kigAACCCDgFSAgeKUYhwACCCCAQCABAkKgYjNVBBBAAAEEvAIEBK8U4xBAAAEEEAgkQEAIVGymigACCCCAgFeAgOCVYhwCCCCAAAKBBAgIgYrNVBFAAAEEEPAKEBC8UoxDAAEEEEAgkAABIVCxmSoCCCCAAAJeAQKCV4pxCCCAAAIIBBIgIAQqNlNFAAEEEEDAK0BA8EoxDgEEEEAAgUACBIRAxWaqCCCAAAIIeAUICF4pxiGAAAIIIBBIgIAQqNhMFQEEEEAAAa8AAcErxTgEEEAAAQQCCRAQAhWbqSKAAAIIIOAVICB4pRiHAAIIIIBAIAECQqBiM1UEEEAAAQS8AgQErxTjEEAAAQQQCCRAQAhUbKaKAAIIIICAV4CA4JViHAIIIIAAAoEECAiBis1UEUAAAQQQ8AoQELxSjEMAAQQQQCCQAAEhULGZKgIIIIAAAl4BAoJXinEIIIAAAggEEiAgBCo2U0UAAQQQQMArQEDwSjEOAQQQQACBQAIEhEDFZqoIIIAAAgh4BQgIXinGIYAAAgggEEiAgBCo2EwVAQQQQAABrwABwSvFOAQQQAABBAIJEBACFZupIoAAAggg4BUgIHilGIcAAggggEAgAQJCoGIzVQQQQAABBLwCBASvFOMQQAABBBAIJEBACFRspooAAggggIBXgIDglWIcAggggAACgQQICIGKzVQRQAABBBDwChAQvFKMQwABBBBAIJAAASFQsZkqAggggAACXgECgleKcQgggAACCAQSICAEKjZTRQABBBBAwCtAQPBKMQ4BBBBAAIFAAgSEQMVmqggggAACCHgFCAheKcYhgAACCCAQSICAEKjYTBUBBBBAAAGvAAHBK8U4BBBAAAEEAgkQEAIVm6kigAACCCDgFSAgeKUYhwACCCCAQCABAkKgYjNVBBBAAAEEvAIEBK8U4xBAAAEEEAgkQEAIVGymigACCCCAgFeAgOCVYhwCCCCAAAKBBAgIgYrNVBFAAAEEEPAKEBC8UoxDAAEEEEAgkAABIVCxmSoCCCCAAAJeAQKCV4pxCCCAAAIIBBIgIAQqNlNFAAEEEEDAK0BA8EoxDgEEEEAAgUACBIRAxWaqCCCAAAIIeAUICF4pxiGAAAIIIBBIgIAQqNhMFQEEEEAAAa8AAcErxTgEEEAAAQQCCRAQAhWbqSKAAAIIIOAVICB4pRiHAAIIIIBAIAECQqBiM1UEEEAAAQS8AgQErxTjEEAAAQQQCCRAQAhUbKaKAAIIIICAV4CA4JViHAIIIIAAAoEECAiBis1UEUAAAQQQ8AoQELxSjEMAAQQQQCCQAAEhULGZKgIIIIAAAl4BAoJXinEIIIAAAggEEiAgBCo2U0UAAQQQQMArQEDwSjEOAQQQQACBQAIEhEDFZqoIIIAAAgh4BQgIXinGIYAAAgggEEiAgBCo2EwVAQQQQAABrwABwSvFOAQQQAABBAIJEBACFZupIoAAAggg4BUgIHilGIcAAggggEAgAQJCoGIzVQQQQAABBLwCBASvFOMQQAABBBAIJEBACFRspooAAggggIBXgIDglWIcAggggAACgQQICIGKzVQRQAABBBDwChAQvFKMQwABBBBAIJAAASFQsZkqAggggAACXgECgleKcQgggAACCAQSICAEKjZTRQABBBBAwCtAQPBKMQ4BBBBAAIFAAgSEQMVmqggggAACCHgFCAheKcYhgAACCCAQSICAEKjYTBUBBBBAAAGvAAHBK8U4BBBAAAEEAgkQEAIVm6kigAACCCDgFSAgeKUYhwACCCCAQCABAkKgYjNVBBBAAAEEvAIEBK8U4xBAAAEEEAgkQEAIVGymigACCCCAgFeAgOCVYhwCCCCAAAKBBAgIgYrNVBFAAAEEEPAKEBC8UoxDAAEEEEAgkAABIVCxmSoCCCCAAAJeAQKCV4pxCCCAAAIIBBIgIAQqNlNFAAEEEEDAK0BA8EoxDgEEEEAAgUACBIRAxWaqCCCAAAIIeAUICF4pxiGAAAIIIBBIgIAQqNhMFQEEEEAAAa8AAcErxTgEEEAAAQQCCfwPZiBBTEEGmiQAAAAASUVORK5CYII=;" vertex="1" parent="1">
                    <mxGeometry x="81.88" y="120" width="90" height="90" as="geometry"/>
                </mxCell>
            </root>
        </mxGraphModel>
    </diagram>
</mxfile>